<svg width="132" height="133" viewBox="0 0 132 133" fill="none" xmlns="http://www.w3.org/2000/svg">
<mask id="path-1-inside-1_4998_172532" fill="white">
<path d="M67.3652 17.8872C93.0967 17.8872 114.017 38.639 114.092 64.2252C114.158 86.5805 98.2886 105.244 77.1168 109.601L65.526 117.848C63.1338 119.55 59.7819 118.194 59.2596 115.313L58.2268 109.617C36.9926 105.288 20.9768 86.6065 20.911 64.2252C20.836 38.6391 41.6339 17.8874 67.3652 17.8872Z"/>
</mask>
<path d="M67.3652 17.8872C93.0967 17.8872 114.017 38.639 114.092 64.2252C114.158 86.5805 98.2886 105.244 77.1168 109.601L65.526 117.848C63.1338 119.55 59.7819 118.194 59.2596 115.313L58.2268 109.617C36.9926 105.288 20.9768 86.6065 20.911 64.2252C20.836 38.6391 41.6339 17.8874 67.3652 17.8872Z" fill="white"/>
<path d="M67.3652 17.8872L67.3665 16.8887L67.3665 16.8887L67.3652 17.8872ZM114.092 64.2252L115.094 64.221L115.094 64.221L114.092 64.2252ZM77.1168 109.601L76.9156 108.624L76.7082 108.666L76.5358 108.789L77.1168 109.601ZM65.526 117.848L66.107 118.66L66.107 118.66L65.526 117.848ZM59.2596 115.313L60.2451 115.134L60.2451 115.134L59.2596 115.313ZM58.2268 109.617L59.2123 109.438L59.0918 108.773L58.4286 108.638L58.2268 109.617ZM20.911 64.2252L19.9096 64.2294L19.9096 64.2294L20.911 64.2252ZM67.3652 17.8872L67.3639 18.8857C92.5462 18.8857 113.017 39.1953 113.091 64.2294L114.092 64.2252L115.094 64.221C115.017 38.0828 93.6472 16.8887 67.3665 16.8887L67.3652 17.8872ZM114.092 64.2252L113.091 64.2294C113.155 86.0989 97.631 104.36 76.9156 108.624L77.1168 109.601L77.318 110.579C98.9463 106.128 115.161 87.0622 115.094 64.221L114.092 64.2252ZM77.1168 109.601L76.5358 108.789L64.9449 117.035L65.526 117.848L66.107 118.66L77.6978 110.414L77.1168 109.601ZM65.526 117.848L64.945 117.035C63.1508 118.312 60.6369 117.295 60.2451 115.134L59.2596 115.313L58.2741 115.492C58.927 119.093 63.1168 120.788 66.107 118.66L65.526 117.848ZM59.2596 115.313L60.2451 115.134L59.2123 109.438L58.2268 109.617L57.2412 109.795L58.2741 115.492L59.2596 115.313ZM58.2268 109.617L58.4286 108.638C37.6474 104.402 21.9768 86.118 21.9125 64.221L20.911 64.2252L19.9096 64.2294C19.9767 87.0951 36.3377 106.174 58.0249 110.595L58.2268 109.617ZM20.911 64.2252L21.9125 64.221C21.8391 39.1903 42.1851 18.8859 67.3639 18.8857L67.3652 17.8872L67.3665 16.8887C41.0827 16.8889 19.8329 38.088 19.9096 64.2294L20.911 64.2252Z" fill="#3A3A3A" mask="url(#path-1-inside-1_4998_172532)"/>
<path d="M60.459 49.4584C60.2481 47.1171 62.0921 45.0996 64.4428 45.0996H68.3994C70.7502 45.0996 72.5942 47.1171 72.3833 49.4584L70.9856 64.9786C70.7999 67.0404 69.0718 68.6199 67.0017 68.6199H65.8406C63.7705 68.6199 62.0424 67.0404 61.8567 64.9787L60.459 49.4584Z" fill="#7A53EC"/>
<rect x="61.8672" y="75.8848" width="9.0782" height="9.04625" rx="4" fill="#7A53EC"/>
</svg>
