<svg width="24" height="24" viewBox="0 0 24 24" fill="none" xmlns="http://www.w3.org/2000/svg">
<path d="M12.9688 2.2168H6.16319C5.6475 2.2168 5.15292 2.42751 4.78826 2.80258C4.42361 3.17766 4.21875 3.68636 4.21875 4.2168V20.2168C4.21875 20.7472 4.42361 21.2559 4.78826 21.631C5.15292 22.0061 5.6475 22.2168 6.16319 22.2168H8.66319M12.9688 2.2168L19.7743 9.2168M12.9688 2.2168V9.2168H19.7743M19.7743 9.2168V13.0501" stroke="#B0B0B0" stroke-width="1.66667" stroke-linecap="round" stroke-linejoin="round"/>
<path d="M18.8281 21.38V16.6665H21.9336V17.4738H19.8047V18.6196H21.7318V19.4269H19.8047V21.38H18.8281Z" fill="#B0B0B0"/>
<path d="M15.8164 21.38H14.1562V16.6665H15.8359C17.2552 16.6665 18.1211 17.5519 18.1211 19.0168C18.1211 20.4946 17.2552 21.38 15.8164 21.38ZM15.1328 20.5402H15.7773C16.6758 20.5402 17.1445 20.0715 17.1445 19.0168C17.1445 17.9686 16.6758 17.5063 15.7839 17.5063H15.1328V20.5402Z" fill="#B0B0B0"/>
<path d="M10 21.38V16.6665H11.849C12.9232 16.6665 13.5352 17.3241 13.5352 18.255C13.5352 19.1991 12.9102 19.8436 11.8229 19.8436H10.9766V21.38H10ZM10.9766 19.0558H11.6667C12.2461 19.0558 12.526 18.7303 12.526 18.255C12.526 17.7863 12.2461 17.4673 11.6667 17.4673H10.9766V19.0558Z" fill="#B0B0B0"/>
</svg>
