<svg width="16" height="16" viewBox="0 0 16 16" fill="none" xmlns="http://www.w3.org/2000/svg">
<path d="M1.5 12.4001V9.99967C1.5 9.72353 1.72386 9.49967 2 9.49967C2.27614 9.49967 2.5 9.72353 2.5 9.99967V12.4001C2.50021 13.0073 2.99241 13.4995 3.59961 13.4997H12.4004C13.0076 13.4995 13.4998 13.0073 13.5 12.4001V9.99967C13.5 9.72353 13.7239 9.49967 14 9.49967C14.2761 9.49967 14.5 9.72353 14.5 9.99967V12.4001C14.4998 13.5596 13.5599 14.4995 12.4004 14.4997H3.59961C2.44012 14.4995 1.50021 13.5596 1.5 12.4001Z" fill="#A68FEB"/>
<path d="M7.5 11.333C7.5 11.6091 7.72386 11.833 8 11.833C8.27614 11.833 8.5 11.6091 8.5 11.333V3.23926L10.6396 5.45801C10.8313 5.65672 11.1479 5.66219 11.3467 5.4707C11.5454 5.27908 11.5518 4.96246 11.3604 4.76367L8.36035 1.65234C8.26612 1.55462 8.13576 1.5 8 1.5C7.86424 1.5 7.73388 1.55462 7.63965 1.65234L4.63965 4.76367L5 5.11035L5.36035 5.45801L7.5 3.23926V11.333ZM4.65332 5.4707C4.85211 5.66219 5.16874 5.65672 5.36035 5.45801L4.63965 4.76367C4.44816 4.96246 4.4546 5.27908 4.65332 5.4707Z" fill="#A68FEB"/>
</svg>
