<svg width="24" height="24" viewBox="0 0 24 24" fill="none" xmlns="http://www.w3.org/2000/svg">
<path d="M3.75 17.1621V7.2275C3.75012 5.51266 5.15692 4.13993 6.87012 4.13961H11.9092L12.0601 4.15572C12.4014 4.22581 12.6589 4.52758 12.6592 4.88961C12.6592 5.2519 12.4016 5.55487 12.0601 5.62496L11.9092 5.63961H6.87012C5.96539 5.63992 5.25012 6.36091 5.25 7.2275V17.1621C5.25 18.0288 5.96532 18.7496 6.87012 18.75H16.9468C17.8516 18.7497 18.5669 18.0288 18.5669 17.1621V12.1948C18.567 11.7807 18.9028 11.4448 19.3169 11.4448C19.731 11.4448 20.0668 11.7807 20.0669 12.1948V17.1621C20.0669 18.877 18.6601 20.2497 16.9468 20.25H6.87012C5.15685 20.2496 3.75 18.877 3.75 17.1621ZM16.3169 4.30807C17.0717 3.56388 18.291 3.56408 19.0459 4.30807L19.6787 4.93209C20.4395 5.68225 20.4395 6.90361 19.6787 7.65377L13.9365 13.3154C13.5729 13.6739 13.0824 13.8733 12.5728 13.8735H11.9385C10.8799 13.8731 10.0034 13.024 10.0034 11.9546V11.3305C10.0035 10.8185 10.2108 10.33 10.5747 9.97115L16.3169 4.30807ZM17.9927 5.37594C17.8218 5.208 17.5409 5.2078 17.3701 5.37594L16.4399 6.29147L17.6807 7.51607L18.627 6.5859C18.7919 6.42322 18.7918 6.16267 18.627 5.99996L17.9927 5.37594ZM11.5034 11.9546C11.5034 12.1757 11.6884 12.3731 11.9385 12.3735H12.5728C12.6913 12.3733 12.8026 12.327 12.8833 12.2475L16.6128 8.5693L15.3721 7.34615L11.6279 11.039C11.5476 11.1183 11.5035 11.2231 11.5034 11.3305V11.9546Z" fill="#3A3A3A"/>
</svg>
