<svg width="117" height="94" viewBox="0 0 117 94" fill="none" xmlns="http://www.w3.org/2000/svg">
<rect width="117" height="94" rx="12" fill="#F9F9F9"/>
<g filter="url(#filter0_d_5161_188411)">
<path d="M24 31C24 26.5817 27.5817 23 32 23H85C89.4183 23 93 26.5817 93 31V63C93 67.4183 89.4183 71 85 71H32C27.5817 71 24 67.4183 24 63V31Z" fill="white"/>
</g>
<path d="M52 40.2888C52 38.7896 53.5893 37.8233 54.9206 38.5128C59.5671 40.9197 63.7504 43.0866 68.4466 45.5192C69.9102 46.2774 69.8799 48.3818 68.3951 49.0975C63.7196 51.3511 59.4924 53.3886 54.869 55.6171C53.5411 56.2572 52 55.2899 52 53.8158C52 49.2489 52 45.1021 52 40.2888Z" fill="#7A53EC"/>
<g filter="url(#filter1_d_5161_188411)">
<path d="M66 17C66 12.5817 69.5817 9 74 9H92C96.4183 9 100 12.5817 100 17V22C100 26.4183 96.4183 30 92 30H66V17Z" fill="#FF44BF"/>
</g>
<path d="M72.8164 19.707V24H70.793V14.1016H72.7617V17.875H72.8438C73.1855 17.0137 73.9375 16.4805 75.0586 16.4805C76.6035 16.4805 77.6289 17.5195 77.6289 19.2695V24H75.6055V19.625C75.6055 18.709 75.1133 18.1621 74.2656 18.1621C73.418 18.1621 72.8164 18.7227 72.8164 19.707ZM83.0977 16.5762V18.0938H81.7031V21.7168C81.7031 22.3047 81.9902 22.4551 82.4004 22.4688C82.6055 22.4688 82.9609 22.4551 83.207 22.4277V24.0273C82.9883 24.0684 82.6328 24.0957 82.127 24.0957C80.6641 24.0957 79.666 23.4395 79.6797 22.0039V18.0938H78.6543V16.5762H79.6797V14.7988H81.7031V16.5762H83.0977ZM88.2793 16.5762V18.0938H86.8848V21.7168C86.8848 22.3047 87.1719 22.4551 87.582 22.4688C87.7871 22.4688 88.1426 22.4551 88.3887 22.4277V24.0273C88.1699 24.0684 87.8145 24.0957 87.3086 24.0957C85.8457 24.0957 84.8477 23.4395 84.8613 22.0039V18.0938H83.8359V16.5762H84.8613V14.7988H86.8848V16.5762H88.2793ZM89.5508 26.7891V16.5762H91.5469V17.8203H91.6289C91.9023 17.2188 92.5039 16.4805 93.748 16.4805C95.3887 16.4805 96.7559 17.752 96.7559 20.2949C96.7559 22.7695 95.4434 24.123 93.748 24.123C92.5312 24.123 91.916 23.4258 91.6289 22.8105H91.5742V26.7891H89.5508ZM91.5332 20.2812C91.5332 21.6211 92.1074 22.5098 93.1055 22.5098C94.1445 22.5098 94.6914 21.5938 94.6914 20.2812C94.6914 18.9824 94.1445 18.0938 93.1055 18.0938C92.0938 18.0938 91.5332 18.9414 91.5332 20.2812Z" fill="white"/>
<defs>
<filter id="filter0_d_5161_188411" x="24" y="23" width="69" height="52" filterUnits="userSpaceOnUse" color-interpolation-filters="sRGB">
<feFlood flood-opacity="0" result="BackgroundImageFix"/>
<feColorMatrix in="SourceAlpha" type="matrix" values="0 0 0 0 0 0 0 0 0 0 0 0 0 0 0 0 0 0 127 0" result="hardAlpha"/>
<feOffset dy="4"/>
<feComposite in2="hardAlpha" operator="out"/>
<feColorMatrix type="matrix" values="0 0 0 0 0.603922 0 0 0 0 0.603922 0 0 0 0 0.603922 0 0 0 0.1 0"/>
<feBlend mode="normal" in2="BackgroundImageFix" result="effect1_dropShadow_5161_188411"/>
<feBlend mode="normal" in="SourceGraphic" in2="effect1_dropShadow_5161_188411" result="shape"/>
</filter>
<filter id="filter1_d_5161_188411" x="66" y="9" width="34" height="25" filterUnits="userSpaceOnUse" color-interpolation-filters="sRGB">
<feFlood flood-opacity="0" result="BackgroundImageFix"/>
<feColorMatrix in="SourceAlpha" type="matrix" values="0 0 0 0 0 0 0 0 0 0 0 0 0 0 0 0 0 0 127 0" result="hardAlpha"/>
<feOffset dy="4"/>
<feComposite in2="hardAlpha" operator="out"/>
<feColorMatrix type="matrix" values="0 0 0 0 0.762809 0 0 0 0 0.120455 0 0 0 0 0.42022 0 0 0 0.1 0"/>
<feBlend mode="normal" in2="BackgroundImageFix" result="effect1_dropShadow_5161_188411"/>
<feBlend mode="normal" in="SourceGraphic" in2="effect1_dropShadow_5161_188411" result="shape"/>
</filter>
</defs>
</svg>
