<svg width="14" height="12" viewBox="0 0 14 12" fill="none" xmlns="http://www.w3.org/2000/svg">
<path d="M6.83008 0.0107422C6.99224 0.032491 7.1496 0.0870437 7.29297 0.170898C7.48394 0.282676 7.64413 0.443968 7.75781 0.638672L13.1621 10.0117C13.2735 10.2121 13.3324 10.4395 13.333 10.6709C13.3336 10.9023 13.2763 11.13 13.166 11.3311L13.0742 11.4756C12.9739 11.6129 12.848 11.7294 12.7041 11.8174L12.5557 11.8945C12.4028 11.9619 12.2384 11.9981 12.0713 12H1.26172L1.09668 11.9873C0.986797 11.9711 0.879498 11.9396 0.777344 11.8945L0.628906 11.8174C0.484918 11.7294 0.359077 11.613 0.258789 11.4756L0.166992 11.3311C0.0841899 11.1801 0.0318609 11.014 0.0107422 10.8428L0 10.6709C0.000468345 10.4971 0.033929 10.3255 0.0976562 10.166L0.170898 10.0117L5.5752 0.638672C5.66048 0.49261 5.77237 0.365247 5.90332 0.263672L6.04102 0.170898C6.2321 0.0591705 6.44772 0 6.66699 0L6.83008 0.0107422ZM6.66699 1C6.62692 1 6.58534 1.01114 6.5459 1.03418C6.50613 1.05744 6.46821 1.09334 6.43945 1.14258L6.43848 1.1416L1.04492 10.4971C1.01651 10.5482 1.00025 10.609 1 10.6729C0.999828 10.7368 1.01578 10.7982 1.04395 10.8496C1.07207 10.9009 1.11013 10.9392 1.15039 10.9639C1.19032 10.9883 1.23273 10.9995 1.27344 11H12.0596C12.1002 10.9995 12.1427 10.9882 12.1826 10.9639C12.2229 10.9392 12.2609 10.9009 12.2891 10.8496C12.3173 10.7982 12.3332 10.7368 12.333 10.6729C12.3328 10.609 12.3165 10.5482 12.2881 10.4971L6.89453 1.14258L6.84473 1.07812C6.82691 1.06027 6.80773 1.04571 6.78809 1.03418C6.74871 1.01115 6.70701 1.00006 6.66699 1Z" fill="#3A3A3A"/>
<path d="M6.16663 7.33366V4.66667C6.16663 4.39052 6.39048 4.16667 6.66663 4.16667C6.94277 4.16667 7.16663 4.39052 7.16663 4.66667V7.33366C7.16645 7.60965 6.94266 7.83366 6.66663 7.83366C6.39059 7.83366 6.1668 7.60965 6.16663 7.33366Z" fill="#3A3A3A"/>
<path d="M7.33329 9.33333C7.33329 9.70152 7.03482 10 6.66663 10C6.29844 10 5.99996 9.70152 5.99996 9.33333C5.99996 8.96514 6.29844 8.66667 6.66663 8.66667C7.03482 8.66667 7.33329 8.96514 7.33329 9.33333Z" fill="#3A3A3A"/>
</svg>
