<svg width="16" height="16" viewBox="0 0 16 16" fill="none" xmlns="http://www.w3.org/2000/svg">
<path d="M1.5 12.4004V3.59961C1.50021 2.44012 2.44012 1.50021 3.59961 1.5H7.14258C7.41872 1.5 7.64258 1.72386 7.64258 2C7.64258 2.27614 7.41872 2.5 7.14258 2.5H3.59961C2.99241 2.50021 2.50021 2.99241 2.5 3.59961V12.4004C2.50021 13.0076 2.99241 13.4998 3.59961 13.5H12.4004C13.0076 13.4998 13.4998 13.0076 13.5 12.4004V8.85742C13.5 8.58128 13.7239 8.35742 14 8.35742C14.2761 8.35742 14.5 8.58128 14.5 8.85742V12.4004C14.4998 13.5599 13.5599 14.4998 12.4004 14.5H3.59961C2.44012 14.4998 1.50021 13.5599 1.5 12.4004Z" fill="#3A3A3A"/>
<path d="M13.2181 2.07523C13.4133 1.88025 13.7299 1.88006 13.9251 2.07523C14.1201 2.27041 14.12 2.58702 13.9251 2.78226L12.135 4.57133L13.9251 6.36039C14.1201 6.55552 14.1199 6.87215 13.9251 7.06742C13.7298 7.26268 13.4123 7.26268 13.2171 7.06742L11.428 5.27836L9.63895 7.0684C9.4437 7.26322 9.12706 7.2634 8.93192 7.0684C8.73666 6.87314 8.73666 6.55565 8.93192 6.36039L10.721 4.57133L8.93192 2.78226C8.73681 2.58702 8.73678 2.27046 8.93192 2.07523C9.12714 1.88001 9.44368 1.88009 9.63895 2.07523L11.428 3.8643L13.2181 2.07523Z" fill="#3A3A3A"/>
</svg>
