<svg width="16" height="16" viewBox="0 0 16 16" fill="none" xmlns="http://www.w3.org/2000/svg">
<path d="M1.5 12.4004V10C1.5 9.72386 1.72386 9.5 2 9.5C2.27614 9.5 2.5 9.72386 2.5 10V12.4004C2.50021 13.0076 2.99241 13.4998 3.59961 13.5H12.4004C13.0076 13.4998 13.4998 13.0076 13.5 12.4004V10C13.5 9.72386 13.7239 9.5 14 9.5C14.2761 9.5 14.5 9.72386 14.5 10V12.4004C14.4998 13.5599 13.5599 14.4998 12.4004 14.5H3.59961C2.44012 14.4998 1.50021 13.5599 1.5 12.4004Z" fill="#3A3A3A"/>
<path d="M7.5 2C7.5 1.72386 7.72386 1.5 8 1.5C8.27614 1.5 8.5 1.72386 8.5 2V10.0938L10.6396 7.875C10.8313 7.67629 11.1479 7.67082 11.3467 7.8623C11.5454 8.05392 11.5518 8.37055 11.3604 8.56934L8.36035 11.6807C8.26612 11.7784 8.13576 11.833 8 11.833C7.86424 11.833 7.73388 11.7784 7.63965 11.6807L4.63965 8.56934L5 8.22266L5.36035 7.875L7.5 10.0938V2ZM4.65332 7.8623C4.85211 7.67082 5.16874 7.67629 5.36035 7.875L4.63965 8.56934C4.44816 8.37055 4.4546 8.05392 4.65332 7.8623Z" fill="#3A3A3A"/>
</svg>
