<svg width="49" height="42" viewBox="0 0 49 42" fill="none" xmlns="http://www.w3.org/2000/svg">
<circle cx="28.5078" cy="17.5" r="5" fill="#E9E9E9"/>
<path d="M35.5078 6.99268H47.5078" stroke="#E9E9E9" stroke-width="2" stroke-linecap="round"/>
<path d="M41.5156 1L41.5156 13" stroke="#E9E9E9" stroke-width="2" stroke-linecap="round"/>
<path d="M25.0169 42L42.6677 42C44.8649 42 46.1193 39.4917 44.8012 37.7337L35.5114 25.3434C34.4113 23.8762 32.193 23.9314 31.1673 25.4514L22.8064 37.8417C21.6113 39.6128 22.8803 42 25.0169 42Z" fill="#BDBDBD"/>
<path d="M4.79036 42L30.9262 42C33.0742 42 34.3407 39.5902 33.1225 37.821L19.3668 17.8437C18.2758 16.2592 15.9171 16.3161 14.9038 17.9513L2.52366 37.9287C1.42277 39.7051 2.70043 42 4.79036 42Z" fill="white"/>
</svg>
