<svg width="16" height="16" viewBox="0 0 16 16" fill="none" xmlns="http://www.w3.org/2000/svg">
<path d="M6.78804 2.63494C7.94482 2.37364 9.15497 2.49407 10.2382 2.97674C10.4905 3.08913 10.6045 3.38466 10.4921 3.63689C10.3797 3.88904 10.0832 4.00219 9.83101 3.88982C8.94472 3.495 7.95417 3.3967 7.00777 3.61052C6.06139 3.82443 5.20945 4.33878 4.57906 5.07634C3.94858 5.81401 3.57357 6.73599 3.50972 7.70427C3.44592 8.67243 3.69651 9.63541 4.22456 10.4494C4.75268 11.2634 5.53022 11.8846 6.44038 12.2209C7.35064 12.5572 8.34575 12.5907 9.27632 12.3156C10.2067 12.0404 11.0235 11.4716 11.6044 10.6945C12.1853 9.91742 12.4993 8.97329 12.5 8.0031V7.54314C12.5 7.267 12.7238 7.04314 13 7.04314C13.2761 7.04314 13.5 7.267 13.5 7.54314V8.0031L13.4951 8.22576C13.4496 9.33304 13.0708 10.4027 12.4052 11.2931C11.6951 12.2431 10.6969 12.9383 9.55952 13.2746C8.42216 13.6109 7.20624 13.5704 6.0937 13.1594C4.98125 12.7483 4.03119 11.9883 3.3857 10.9933C2.74034 9.99845 2.43365 8.82118 2.51167 7.63787C2.58979 6.45456 3.04879 5.32842 3.81929 4.42693C4.58988 3.52535 5.63117 2.89632 6.78804 2.63494ZM12.6464 3.64959C12.8416 3.4544 13.1582 3.45448 13.3535 3.64959C13.5487 3.84477 13.5486 4.16132 13.3535 4.35662L8.35347 9.3615C8.25973 9.45527 8.13255 9.50795 7.99995 9.50799C7.86735 9.50799 7.74021 9.45527 7.64644 9.3615L6.14644 7.8615C5.95124 7.66623 5.9512 7.34971 6.14644 7.15447C6.34169 6.95929 6.65822 6.95929 6.85347 7.15447L7.99898 8.29998L12.6464 3.64959Z" fill="#3A3A3A"/>
</svg>
