<svg width="20" height="19" viewBox="0 0 20 19" fill="none" xmlns="http://www.w3.org/2000/svg">
<path d="M8.68716 0.74345C9.17625 -0.247544 10.5894 -0.247546 11.0785 0.743448L13.0993 4.83811C13.2935 5.23163 13.6689 5.50439 14.1032 5.5675L18.6219 6.22411C19.7156 6.38302 20.1522 7.72698 19.3609 8.49836L16.0911 11.6856C15.7769 11.9919 15.6335 12.4333 15.7076 12.8658L16.4795 17.3663C16.6664 18.4555 15.5231 19.2861 14.5449 18.7718L10.5033 16.647C10.1148 16.4428 9.65079 16.4428 9.26236 16.647L5.22069 18.7718C4.24252 19.2861 3.09927 18.4555 3.28609 17.3663L4.05798 12.8658C4.13216 12.4333 3.98876 11.9919 3.67452 11.6856L0.404736 8.49837C-0.38662 7.72698 0.0500581 6.38302 1.14369 6.22411L5.66241 5.5675C6.09669 5.50439 6.47211 5.23163 6.66633 4.83811L8.68716 0.74345Z" fill="#7A53EC"/>
</svg>
