<svg width="300" height="24" viewBox="0 0 300 24" fill="none" xmlns="http://www.w3.org/2000/svg">
<g clip-path="url(#clip0_6446_4226)">
<path d="M6.93408 8.33028H16.781C21.0532 8.33028 24.5168 11.8379 24.5168 16.165C24.5168 20.4919 21.0534 23.9997 16.781 23.9997H2.3125L4.98605 10.303C5.23557 9.21736 5.85826 8.33008 6.93408 8.33008V8.33028Z" fill="url(#paint0_linear_6446_4226)"/>
<g style="mix-blend-mode:multiply">
<path d="M17.5827 15.6694H7.73582C3.46333 15.6694 0 12.1616 0 7.83469C0 3.50759 3.46333 0 7.73582 0H22.2041L19.5305 13.6965C19.281 14.7821 18.6583 15.6694 17.5825 15.6694H17.5827Z" fill="#59259F"/>
</g>
</g>
<path d="M115.997 4.91256V18.9452C115.997 19.365 115.663 19.7038 115.249 19.7038H113.958C113.545 19.7038 113.211 19.365 113.211 18.9452V13.3412H104.67C104.256 13.3412 103.922 13.0024 103.922 12.5826V11.2726C103.922 10.8528 104.256 10.514 104.67 10.514H113.211V4.91002C113.211 4.49023 113.545 4.15137 113.958 4.15137H115.249C115.663 4.15137 115.997 4.49023 115.997 4.91002V4.91256Z" fill="#471596"/>
<path d="M95.4036 4.15324C95.8174 4.15324 96.1513 4.49211 96.1513 4.9119V6.22184C96.1513 6.64163 95.8174 6.9805 95.4036 6.9805H91.274V6.97291H87.872C86.4116 6.99062 85.2003 6.87429 84.0364 7.59501C81.7137 9.05669 81.2027 12.6148 82.6931 14.8705C84.0439 17.0251 86.0078 16.8936 88.3331 16.8683C89.4172 16.8683 90.6683 16.8683 91.8173 16.8683C92.6921 16.8759 93.4971 16.8582 94.1326 16.8759H95.4036C95.8174 16.8759 96.1513 17.2148 96.1513 17.6346V18.9445C96.1513 19.3643 95.8174 19.7032 95.4036 19.7032H91.274V19.6931C89.3798 19.7007 87.2789 19.7285 85.6489 19.6551C77.8407 19.0356 76.5522 7.50398 83.6053 4.6666C85.2103 4.00656 86.596 4.17094 88.4527 4.14565L95.4036 4.15324Z" fill="#471596"/>
<path d="M70.8474 6.98351H64.2105V18.9475C64.2105 19.3673 63.8765 19.7062 63.4628 19.7062H62.1718C61.7581 19.7062 61.4241 19.3673 61.4241 18.9475V6.98351H54.7399C54.3262 6.98351 53.9922 6.64465 53.9922 6.22485V4.91491C53.9922 4.49512 54.3262 4.15625 54.7399 4.15625H70.8474C71.2611 4.15625 71.595 4.49512 71.595 4.91491V6.22485C71.595 6.64465 71.2611 6.98351 70.8474 6.98351Z" fill="#471596"/>
<path d="M101.993 4.15332H100.732C100.319 4.15332 99.9844 4.49298 99.9844 4.91198V18.9446C99.9844 19.3636 100.319 19.7033 100.732 19.7033H101.993C102.406 19.7033 102.741 19.3636 102.741 18.9446V4.91198C102.741 4.49298 102.406 4.15332 101.993 4.15332Z" fill="#471596"/>
<path d="M75.9697 4.15332H74.7086C74.2957 4.15332 73.9609 4.49298 73.9609 4.91198V18.9446C73.9609 19.3636 74.2957 19.7033 74.7086 19.7033H75.9697C76.3826 19.7033 76.7174 19.3636 76.7174 18.9446V4.91198C76.7174 4.49298 76.3826 4.15332 75.9697 4.15332Z" fill="#471596"/>
<path d="M46.9508 19.8186H35.9924C35.5786 19.8186 35.2447 19.4797 35.2447 19.0599V17.8157C35.2447 17.3959 35.5786 17.057 35.9924 17.057H46.9508C47.853 17.057 48.5833 16.3161 48.5833 15.4006V14.9176C48.5833 14.0022 47.853 13.2612 46.9508 13.2612H39.5987C37.1936 13.2612 35.2422 11.2837 35.2422 8.84078V8.70169C35.2422 6.26134 37.1911 4.28125 39.5987 4.28125H50.5571C50.9709 4.28125 51.3048 4.62012 51.3048 5.03991V6.2841C51.3048 6.70389 50.9709 7.04276 50.5571 7.04276H39.5987C38.6965 7.04276 37.9662 7.78372 37.9662 8.69917V8.83825C37.9662 9.7537 38.6965 10.4946 39.5987 10.4946H46.9508C49.3559 10.4946 51.3073 12.4747 51.3073 14.9151V15.3981C51.3073 17.8385 49.3559 19.8186 46.9508 19.8186Z" fill="#471596"/>
<defs>
<linearGradient id="paint0_linear_6446_4226" x1="2.3125" y1="16.1687" x2="24.5168" y2="16.1687" gradientUnits="userSpaceOnUse">
<stop stop-color="#9280FF" stop-opacity="0.3"/>
<stop offset="1" stop-color="#9280FF"/>
</linearGradient>
<clipPath id="clip0_6446_4226">
<rect width="24.5169" height="24" fill="white"/>
</clipPath>
</defs>
</svg>
