<svg width="12" height="12" viewBox="0 0 12 12" fill="none" xmlns="http://www.w3.org/2000/svg">
<path d="M7.5 3C7.77614 3 8 3.22386 8 3.5C8 3.77614 7.77614 4 7.5 4H3.5C3.22386 4 3 3.77614 3 3.5C3 3.22386 3.22386 3 3.5 3H7.5Z" fill="#3A3A3A"/>
<path d="M5 4.5C5.27614 4.5 5.5 4.72386 5.5 5C5.5 5.27614 5.27614 5.5 5 5.5H3.5C3.22386 5.5 3 5.27614 3 5C3 4.72386 3.22386 4.5 3.5 4.5H5Z" fill="#3A3A3A"/>
<path d="M10 5V2.7002C10 2.3136 9.6864 2 9.2998 2H2.7002C2.3136 2 2 2.3136 2 2.7002V9.2998C2 9.68641 2.3136 10 2.7002 10H6.5C6.77614 10 7 10.2239 7 10.5C7 10.7761 6.77614 11 6.5 11H2.7002C1.76131 11 1 10.2387 1 9.2998V2.7002C1 1.76131 1.76131 1 2.7002 1H9.2998C10.2387 1 11 1.76131 11 2.7002V5C11 5.27614 10.7761 5.5 10.5 5.5C10.2239 5.5 10 5.27614 10 5Z" fill="#3A3A3A"/>
<path d="M11.216 8.34938C9.44246 9.9861 6.70992 10.015 4.90213 8.41616L4.7236 8.25094L5.42319 7.53639C6.87522 8.95803 9.19637 8.94607 10.6348 7.52063L10.5762 7.46324C9.12402 6.04164 6.8029 6.05333 5.36457 7.479L5.42319 7.53639L4.7236 8.25094L4.62311 8.15255L4.55815 8.08211C4.25202 7.71502 4.26812 7.16808 4.6097 6.8192C6.43105 4.95905 9.41546 4.92749 11.2757 6.7487L11.3762 6.84708C11.7482 7.21125 11.755 7.80833 11.391 8.18041L11.216 8.34938Z" fill="#3A3A3A"/>
<path d="M8.5 7.5C8.5 7.22386 8.27614 7 8 7C7.72386 7 7.5 7.22386 7.5 7.5C7.5 7.77614 7.72386 8 8 8V8.5C7.44772 8.5 7 8.05228 7 7.5C7 6.94772 7.44772 6.5 8 6.5C8.55228 6.5 9 6.94772 9 7.5C9 8.05228 8.55228 8.5 8 8.5V8C8.27614 8 8.5 7.77614 8.5 7.5Z" fill="#3A3A3A"/>
</svg>
