<svg width="24" height="24" viewBox="0 0 24 24" fill="none" xmlns="http://www.w3.org/2000/svg">
<path d="M2.25 18.5996V15C2.25 14.5858 2.58579 14.25 3 14.25C3.41421 14.25 3.75 14.5858 3.75 15V18.5996C3.75 19.5109 4.48912 20.25 5.40039 20.25H18.5996C19.5109 20.25 20.25 19.5109 20.25 18.5996V15C20.25 14.5858 20.5858 14.25 21 14.25C21.4142 14.25 21.75 14.5858 21.75 15V18.5996C21.75 20.3393 20.3393 21.75 18.5996 21.75H5.40039C3.66069 21.75 2.25 20.3393 2.25 18.5996Z" fill="#A68FEB"/>
<path d="M11.25 17C11.25 17.4142 11.5858 17.75 12 17.75C12.4142 17.75 12.75 17.4142 12.75 17V4.85938L15.96 8.1875C16.2474 8.48553 16.7223 8.49425 17.0205 8.20703C17.3186 7.91961 17.3273 7.44467 17.04 7.14648L12.54 2.47949C12.3987 2.3329 12.2036 2.25 12 2.25C11.7964 2.25 11.6013 2.3329 11.46 2.47949L6.95996 7.14648L6.91016 7.2041C6.67517 7.50301 6.69991 7.93744 6.97949 8.20703C7.25888 8.47616 7.69334 8.4853 7.9834 8.24023L8.04004 8.1875L11.25 4.85938V17Z" fill="#A68FEB"/>
</svg>
