<svg width="139" height="50" viewBox="0 0 139 50" fill="none" xmlns="http://www.w3.org/2000/svg">
<path d="M15.1582 42.873C15.1289 42.5736 14.9938 42.3392 14.7529 42.1699C14.5153 42.0007 14.2044 41.916 13.8203 41.916C13.5599 41.916 13.332 41.9551 13.1367 42.0332C12.9414 42.1113 12.7917 42.2204 12.6875 42.3604C12.5833 42.5003 12.5312 42.6582 12.5312 42.834C12.5312 43.1042 12.6436 43.3141 12.8682 43.4639C13.0928 43.6104 13.3841 43.7259 13.7422 43.8105L14.4062 43.9863C15.015 44.1263 15.5114 44.359 15.8955 44.6846C16.2829 45.0068 16.4766 45.4512 16.4766 46.0176C16.4766 46.431 16.3708 46.7956 16.1592 47.1113C15.9476 47.4271 15.64 47.6729 15.2363 47.8486C14.8359 48.0212 14.3574 48.1074 13.8008 48.1074C13.2507 48.1074 12.7738 48.0228 12.3701 47.8535C11.9665 47.681 11.6507 47.432 11.4229 47.1064C11.1982 46.7777 11.0762 46.3822 11.0566 45.9199H12.3066C12.3359 46.278 12.4857 46.5514 12.7559 46.7402C13.0293 46.929 13.3743 47.0234 13.791 47.0234C14.0677 47.0234 14.3135 46.9811 14.5283 46.8965C14.7432 46.8118 14.9092 46.693 15.0264 46.54C15.1468 46.3838 15.207 46.2064 15.207 46.0078C15.207 45.7507 15.0996 45.5505 14.8848 45.4072C14.6732 45.2607 14.3542 45.1322 13.9277 45.0215L13.127 44.8164C11.8704 44.4876 11.2422 43.8529 11.2422 42.9121C11.2422 42.502 11.3545 42.1406 11.5791 41.8281C11.8037 41.5124 12.113 41.2682 12.5068 41.0957C12.904 40.9199 13.3483 40.832 13.8398 40.832C14.3346 40.832 14.7725 40.9199 15.1533 41.0957C15.5374 41.2682 15.8353 41.5091 16.0469 41.8184C16.2617 42.1276 16.3724 42.4792 16.3789 42.873H15.1582ZM17.2188 40.9297H22.8535V41.9941H20.6758V48H19.4062V41.9941H17.2188V40.9297ZM23.8496 40.9297H28.4492V41.9941H25.1191V43.9277H28.2051V44.9922H25.1191V46.9258H28.4688V48H23.8496V40.9297ZM29.6699 40.9297H32.3262C32.8535 40.9297 33.3044 41.029 33.6787 41.2275C34.0531 41.4261 34.3363 41.7028 34.5283 42.0576C34.7204 42.4092 34.8164 42.8145 34.8164 43.2734C34.8164 43.7292 34.7188 44.1344 34.5234 44.4893C34.3314 44.8408 34.0465 45.1159 33.6689 45.3145C33.2913 45.5098 32.8372 45.6074 32.3066 45.6074H30.9395V48H29.6699V40.9297ZM32.1309 44.5625C32.5931 44.5625 32.9398 44.4469 33.1709 44.2158C33.402 43.9814 33.5176 43.6673 33.5176 43.2734C33.5176 42.8763 33.402 42.5638 33.1709 42.3359C32.9398 42.1081 32.5931 41.9941 32.1309 41.9941H30.9395V44.5625H32.1309ZM38.6445 48H37.3652V42.1699H37.3262L35.6758 43.2246V42.0625L37.4238 40.9297H38.6445V48Z" fill="#8671C3"/>
<path d="M100.838 42.873C100.809 42.5736 100.674 42.3392 100.433 42.1699C100.195 42.0007 99.8841 41.916 99.5 41.916C99.2396 41.916 99.0117 41.9551 98.8164 42.0332C98.6211 42.1113 98.4714 42.2204 98.3672 42.3604C98.263 42.5003 98.2109 42.6582 98.2109 42.834C98.2109 43.1042 98.3232 43.3141 98.5479 43.4639C98.7725 43.6104 99.0638 43.7259 99.4219 43.8105L100.086 43.9863C100.695 44.1263 101.191 44.359 101.575 44.6846C101.963 45.0068 102.156 45.4512 102.156 46.0176C102.156 46.431 102.05 46.7956 101.839 47.1113C101.627 47.4271 101.32 47.6729 100.916 47.8486C100.516 48.0212 100.037 48.1074 99.4805 48.1074C98.9303 48.1074 98.4535 48.0228 98.0498 47.8535C97.6462 47.681 97.3304 47.432 97.1025 47.1064C96.8779 46.7777 96.7559 46.3822 96.7363 45.9199H97.9863C98.0156 46.278 98.1654 46.5514 98.4355 46.7402C98.709 46.929 99.054 47.0234 99.4707 47.0234C99.7474 47.0234 99.9932 46.9811 100.208 46.8965C100.423 46.8118 100.589 46.693 100.706 46.54C100.826 46.3838 100.887 46.2064 100.887 46.0078C100.887 45.7507 100.779 45.5505 100.564 45.4072C100.353 45.2607 100.034 45.1322 99.6074 45.0215L98.8066 44.8164C97.5501 44.4876 96.9219 43.8529 96.9219 42.9121C96.9219 42.502 97.0342 42.1406 97.2588 41.8281C97.4834 41.5124 97.7926 41.2682 98.1865 41.0957C98.5837 40.9199 99.028 40.832 99.5195 40.832C100.014 40.832 100.452 40.9199 100.833 41.0957C101.217 41.2682 101.515 41.5091 101.727 41.8184C101.941 42.1276 102.052 42.4792 102.059 42.873H100.838ZM102.898 40.9297H108.533V41.9941H106.355V48H105.086V41.9941H102.898V40.9297ZM109.529 40.9297H114.129V41.9941H110.799V43.9277H113.885V44.9922H110.799V46.9258H114.148V48H109.529V40.9297ZM115.35 40.9297H118.006C118.533 40.9297 118.984 41.029 119.358 41.2275C119.733 41.4261 120.016 41.7028 120.208 42.0576C120.4 42.4092 120.496 42.8145 120.496 43.2734C120.496 43.7292 120.398 44.1344 120.203 44.4893C120.011 44.8408 119.726 45.1159 119.349 45.3145C118.971 45.5098 118.517 45.6074 117.986 45.6074H116.619V48H115.35V40.9297ZM117.811 44.5625C118.273 44.5625 118.619 44.4469 118.851 44.2158C119.082 43.9814 119.197 43.6673 119.197 43.2734C119.197 42.8763 119.082 42.5638 118.851 42.3359C118.619 42.1081 118.273 41.9941 117.811 41.9941H116.619V44.5625H117.811ZM121.453 47.082L123.953 44.6699C124.223 44.3997 124.432 44.1784 124.578 44.0059C124.728 43.8301 124.842 43.6576 124.92 43.4883C124.998 43.3158 125.037 43.1335 125.037 42.9414C125.037 42.7266 124.985 42.5378 124.881 42.375C124.777 42.2122 124.632 42.0869 124.446 41.999C124.264 41.9111 124.057 41.8672 123.826 41.8672C123.585 41.8672 123.374 41.916 123.191 42.0137C123.012 42.1081 122.874 42.2448 122.776 42.4238C122.679 42.5996 122.632 42.8047 122.635 43.0391H121.424C121.421 42.5996 121.521 42.2139 121.727 41.8818C121.932 41.5465 122.216 41.2878 122.581 41.1055C122.949 40.9232 123.367 40.832 123.836 40.832C124.311 40.832 124.731 40.9199 125.096 41.0957C125.464 41.2715 125.748 41.5156 125.95 41.8281C126.155 42.1374 126.258 42.4889 126.258 42.8828C126.258 43.1562 126.204 43.4199 126.097 43.6738C125.993 43.9277 125.813 44.2093 125.56 44.5186C125.306 44.8245 124.946 45.1973 124.48 45.6367L123.221 46.8867V46.9355H126.365V48H121.453V47.082Z" fill="#8671C3"/>
<g clip-path="url(#clip0_5396_176216)">
<rect x="24.3359" y="8" width="25" height="25" rx="12.5" fill="#CBC1E8"/>
<path d="M36.838 23.051C39.2683 23.051 41.2385 21.0808 41.2385 18.6505C41.2385 16.2202 39.2683 14.25 36.838 14.25C34.4077 14.25 32.4375 16.2202 32.4375 18.6505C32.4375 21.0808 34.4077 23.051 36.838 23.051Z" fill="white"/>
<path d="M28.8047 29.5669C28.8047 28.7812 29.0725 28.0516 29.6083 27.3781C31.0145 25.6944 33.6931 24.9648 36.8404 24.9648C39.9208 24.9648 42.7333 25.6383 44.0725 27.3781C44.6083 28.0516 44.8761 28.7812 44.8761 29.5669C44.8761 30.1194 44.8761 31.5006 44.8761 32.7034C44.8761 33.854 43.9434 34.7863 42.7928 34.7863H30.9207C29.7836 34.7863 28.8565 33.8749 28.8399 32.7379C28.8226 31.552 28.8047 30.1765 28.8047 29.5669Z" fill="white"/>
</g>
<rect x="24.8532" y="8.51724" width="23.9655" height="23.9655" rx="11.9828" stroke="#8671C3" stroke-width="1.03448"/>
<g clip-path="url(#clip1_5396_176216)">
<rect x="12.3359" y="8" width="25" height="25" rx="12.5" fill="#CBC1E8"/>
<path d="M24.838 23.051C27.2683 23.051 29.2385 21.0808 29.2385 18.6505C29.2385 16.2202 27.2683 14.25 24.838 14.25C22.4077 14.25 20.4375 16.2202 20.4375 18.6505C20.4375 21.0808 22.4077 23.051 24.838 23.051Z" fill="white"/>
<path d="M16.8047 29.5669C16.8047 28.7812 17.0725 28.0516 17.6083 27.3781C19.0145 25.6944 21.6931 24.9648 24.8404 24.9648C27.9208 24.9648 30.7333 25.6383 32.0725 27.3781C32.6083 28.0516 32.8761 28.7812 32.8761 29.5669C32.8761 30.1194 32.8761 31.5006 32.8761 32.7034C32.8761 33.854 31.9434 34.7863 30.7928 34.7863H18.9207C17.7836 34.7863 16.8565 33.8749 16.8399 32.7379C16.8226 31.552 16.8047 30.1765 16.8047 29.5669Z" fill="white"/>
</g>
<rect x="12.8532" y="8.51724" width="23.9655" height="23.9655" rx="11.9828" stroke="#8671C3" stroke-width="1.03448"/>
<g clip-path="url(#clip2_5396_176216)">
<rect x="0.335938" y="8" width="25" height="25" rx="12.5" fill="#CBC1E8"/>
<path d="M12.838 23.051C15.2683 23.051 17.2385 21.0808 17.2385 18.6505C17.2385 16.2202 15.2683 14.25 12.838 14.25C10.4077 14.25 8.4375 16.2202 8.4375 18.6505C8.4375 21.0808 10.4077 23.051 12.838 23.051Z" fill="white"/>
<path d="M4.80469 29.5669C4.80469 28.7812 5.07255 28.0516 5.60826 27.3781C7.01451 25.6944 9.69308 24.9648 12.8404 24.9648C15.9208 24.9648 18.7333 25.6383 20.0725 27.3781C20.6083 28.0516 20.8761 28.7812 20.8761 29.5669C20.8761 30.1194 20.8761 31.5006 20.8761 32.7034C20.8761 33.854 19.9434 34.7863 18.7928 34.7863H6.92075C5.78361 34.7863 4.85649 33.8749 4.8399 32.7379C4.8226 31.552 4.80469 30.1765 4.80469 29.5669Z" fill="white"/>
</g>
<rect x="0.853179" y="8.51724" width="23.9655" height="23.9655" rx="11.9828" stroke="#8671C3" stroke-width="1.03448"/>
<path fill-rule="evenodd" clip-rule="evenodd" d="M124.503 13.7569H135.061C136.515 13.7569 137.706 15.1006 137.706 16.7428V28.4447C137.706 29.6241 136.851 30.589 135.806 30.589H117.243C116.198 30.589 115.344 29.6241 115.344 28.4447V17.5706V15.9012V12.7886C115.344 11.2549 116.455 10 117.813 10H122.033C123.392 10 124.503 11.255 124.503 12.7886V13.7569Z" fill="#CBC1E8" stroke="#8671C3" stroke-width="1.82047" stroke-miterlimit="22.9256" stroke-linecap="round" stroke-linejoin="round"/>
<path fill-rule="evenodd" clip-rule="evenodd" d="M115.576 16.7832H132.574C134.042 16.7832 135.455 17.9842 135.713 19.4524L137.296 28.4413C137.506 29.6363 136.701 30.6137 135.506 30.6137H117.515C116.32 30.6137 115.17 29.6363 114.96 28.4413L113.377 19.4524C113.118 17.9842 114.108 16.7832 115.576 16.7832Z" fill="#EFECFA" stroke="#8671C3" stroke-width="1.82047" stroke-miterlimit="22.9256"/>
<path fill-rule="evenodd" clip-rule="evenodd" d="M95.5031 13.7569H106.061C107.515 13.7569 108.706 15.1006 108.706 16.7428V28.4447C108.706 29.6241 107.851 30.589 106.806 30.589H88.2429C87.1983 30.589 86.3438 29.6241 86.3438 28.4447V17.5706V15.9012V12.7886C86.3438 11.2549 87.455 10 88.8134 10H93.0334C94.3919 10 95.5031 11.255 95.5031 12.7886V13.7569Z" fill="#CBC1E8" stroke="#8671C3" stroke-width="1.82047" stroke-miterlimit="22.9256" stroke-linecap="round" stroke-linejoin="round"/>
<path fill-rule="evenodd" clip-rule="evenodd" d="M86.5761 16.7832H103.574C105.042 16.7832 106.455 17.9842 106.713 19.4524L108.296 28.4413C108.506 29.6363 107.701 30.6137 106.506 30.6137H88.5146C87.3196 30.6137 86.1702 29.6363 85.9597 28.4413L84.377 19.4524C84.1185 17.9842 85.1079 16.7832 86.5761 16.7832Z" fill="#EFECFA" stroke="#8671C3" stroke-width="1.82047" stroke-miterlimit="22.9256"/>
<path d="M55.875 19.8684H73.8507M73.8507 19.8684L68.9823 15M73.8507 19.8684L68.9823 24.7368" stroke="#8671C3" stroke-width="2" stroke-linecap="round" stroke-linejoin="round"/>
<defs>
<clipPath id="clip0_5396_176216">
<rect x="24.3359" y="8" width="25" height="25" rx="12.5" fill="white"/>
</clipPath>
<clipPath id="clip1_5396_176216">
<rect x="12.3359" y="8" width="25" height="25" rx="12.5" fill="white"/>
</clipPath>
<clipPath id="clip2_5396_176216">
<rect x="0.335938" y="8" width="25" height="25" rx="12.5" fill="white"/>
</clipPath>
</defs>
</svg>
