<svg width="16" height="16" viewBox="0 0 16 16" fill="none" xmlns="http://www.w3.org/2000/svg">
<path d="M13.6689 8.00049C13.6689 4.87098 11.1324 2.33367 8.00293 2.3335C4.87332 2.3335 2.33594 4.87087 2.33594 8.00049C2.33611 11.13 4.87342 13.6665 8.00293 13.6665V14.6665L7.65918 14.6577C4.25053 14.4847 1.51753 11.752 1.34473 8.34326L1.33594 8.00049C1.33594 4.31859 4.32103 1.3335 8.00293 1.3335L8.3457 1.34229C11.8682 1.52086 14.6689 4.43366 14.6689 8.00049L14.6602 8.34326C14.4816 11.8656 11.5696 14.6663 8.00293 14.6665V13.6665C11.1323 13.6663 13.6688 11.1298 13.6689 8.00049Z" fill="#3A3A3A"/>
<path d="M8.50256 7.3335L8.50256 11.3335C8.50256 11.6096 8.27871 11.8335 8.00256 11.8335C7.72642 11.8335 7.50256 11.6096 7.50256 11.3335L7.50256 7.3335C7.50256 7.05735 7.72642 6.8335 8.00256 6.8335C8.27871 6.8335 8.50256 7.05735 8.50256 7.3335Z" fill="#3A3A3A"/>
<path d="M7.33592 5.33333C7.33592 4.96514 7.63439 4.66667 8.00258 4.66667C8.37077 4.66667 8.66925 4.96514 8.66925 5.33333C8.66925 5.70152 8.37077 6 8.00258 6C7.63439 6 7.33592 5.70152 7.33592 5.33333Z" fill="#3A3A3A"/>
</svg>
