<svg width="24" height="24" viewBox="0 0 24 24" fill="none" xmlns="http://www.w3.org/2000/svg">
<path d="M8.75 8.44434V6C8.75 5.30964 9.30964 4.75 10 4.75H18C18.6904 4.75 19.25 5.30964 19.25 6V18C19.25 18.6904 18.6904 19.25 18 19.25H10C9.30965 19.25 8.75 18.6904 8.75 18V15.5557C8.75 15.1415 8.41421 14.8057 8 14.8057C7.58579 14.8057 7.25 15.1415 7.25 15.5557V18C7.25 19.5188 8.48122 20.75 10 20.75H18C19.5188 20.75 20.75 19.5188 20.75 18V6C20.75 4.48122 19.5188 3.25 18 3.25H10C8.48122 3.25 7.25 4.48122 7.25 6V8.44434C7.25 8.85855 7.58579 9.19434 8 9.19434C8.41421 9.19434 8.75 8.85855 8.75 8.44434Z" fill="#5E5E5E"/>
<path d="M10.2988 8.4834C10.5841 8.18342 11.0582 8.17108 11.3584 8.45606L14.5166 11.4561C14.6656 11.5977 14.75 11.7944 14.75 12C14.75 12.2056 14.6656 12.4023 14.5166 12.5439L11.3584 15.5439C11.0582 15.8289 10.5841 15.8166 10.2988 15.5166C10.0136 15.2163 10.025 14.7414 10.3252 14.4561L12.1211 12.75H4C3.58579 12.75 3.25 12.4142 3.25 12C3.25 11.5858 3.58579 11.25 4 11.25H12.1211L10.3252 9.54395C10.025 9.25865 10.0136 8.78368 10.2988 8.4834Z" fill="#7A53EC"/>
</svg>
