<svg width="16" height="16" viewBox="0 0 16 16" fill="none" xmlns="http://www.w3.org/2000/svg">
<path fill-rule="evenodd" clip-rule="evenodd" d="M10.668 2C11.4039 2.00037 12.0008 2.59701 12.001 3.33301V6H13.334L13.4658 6.00684C13.7709 6.03715 14.0576 6.17195 14.2764 6.39062C14.5263 6.6406 14.6669 6.9795 14.667 7.33301V10.667L14.6611 10.7988C14.6308 11.1039 14.4951 11.3907 14.2764 11.6094C14.0576 11.8281 13.7709 11.9628 13.4658 11.9932L13.334 12H12.001V13.334L11.9941 13.4707C11.9255 14.1424 11.3577 14.6666 10.668 14.667H5.33398C4.59792 14.6668 4.00124 14.07 4.00098 13.334V12H2.66699C2.35772 11.9999 2.05943 11.8925 1.82227 11.6982L1.72461 11.6094C1.50591 11.3907 1.37121 11.1039 1.34082 10.7988L1.33398 10.667V7.33301C1.33406 7.02374 1.44145 6.72545 1.63574 6.48828L1.72461 6.39062C1.97458 6.14065 2.31349 6.00009 2.66699 6H4.00098V3.33301C4.00115 2.59689 4.59786 2.00018 5.33398 2H10.668ZM5.33398 10.334C5.15015 10.3342 5.00115 10.4832 5.00098 10.667V13.334C5.00124 13.5177 5.1502 13.6668 5.33398 13.667H10.668C10.8516 13.6666 11.0007 13.5176 11.001 13.334V10.667C11.0008 10.5061 10.8862 10.3719 10.7344 10.3408L10.668 10.334H5.33398ZM2.66699 7C2.5787 7.00009 2.49408 7.03522 2.43164 7.09766C2.38487 7.14442 2.35369 7.20369 2.34082 7.26758L2.33398 7.33301V10.667C2.33407 10.7553 2.36921 10.8399 2.43164 10.9023C2.49408 10.9648 2.5787 10.9999 2.66699 11H4.00098V10.667C4.00115 9.93087 4.59786 9.33416 5.33398 9.33398H10.668C11.4039 9.33436 12.0008 9.93099 12.001 10.667V11H13.334C13.4223 11 13.5068 10.9648 13.5693 10.9023C13.6318 10.8399 13.6669 10.7553 13.667 10.667V7.33301C13.6669 7.24472 13.6318 7.16009 13.5693 7.09766C13.5068 7.03525 13.4223 7 13.334 7H2.66699ZM5.33398 3C5.15015 3.00018 5.00115 3.14917 5.00098 3.33301V6H11.001V3.33301C11.0008 3.17205 10.8862 3.03787 10.7344 3.00684L10.668 3H5.33398Z" fill="white"/>
</svg>
