<svg width="12" height="12" viewBox="0 0 12 12" fill="none" xmlns="http://www.w3.org/2000/svg">
<path d="M1 9.5V7.5C1 7.22386 1.22386 7 1.5 7C1.77614 7 2 7.22386 2 7.5V9.5C2 9.77614 2.22386 10 2.5 10H9.5C9.77614 10 10 9.77614 10 9.5V7.5C10 7.22386 10.2239 7 10.5 7C10.7761 7 11 7.22386 11 7.5V9.5C11 10.3284 10.3284 11 9.5 11H2.5C1.67157 11 1 10.3284 1 9.5Z" fill="#3A3A3A"/>
<path d="M5.5 1.5C5.5 1.22386 5.72386 1 6 1C6.27614 1 6.5 1.22386 6.5 1.5V7.26074L7.88965 5.81934C8.08125 5.62064 8.39788 5.61521 8.59668 5.80664C8.79538 5.99824 8.80179 6.31488 8.61035 6.51367L6.36035 8.84668C6.26612 8.94441 6.13576 9 6 9C5.86424 9 5.73388 8.94441 5.63965 8.84668L3.38965 6.51367L3.75 6.16699L4.11035 5.81934L5.5 7.26074V1.5ZM3.40332 5.80664C3.60212 5.61521 3.91875 5.62064 4.11035 5.81934L3.38965 6.51367C3.19821 6.31488 3.20462 5.99824 3.40332 5.80664Z" fill="#3A3A3A"/>
</svg>
