<svg width="144" height="36" viewBox="0 0 144 36" fill="none" xmlns="http://www.w3.org/2000/svg">
<g clip-path="url(#clip0_5396_176254)">
<rect x="0.335938" y="8" width="25" height="25" rx="12.5" fill="#CBC1E8"/>
<path d="M12.838 23.051C15.2683 23.051 17.2385 21.0808 17.2385 18.6505C17.2385 16.2202 15.2683 14.25 12.838 14.25C10.4077 14.25 8.4375 16.2202 8.4375 18.6505C8.4375 21.0808 10.4077 23.051 12.838 23.051Z" fill="white"/>
<path d="M4.80469 29.5669C4.80469 28.7812 5.07255 28.0516 5.60826 27.3781C7.01451 25.6944 9.69308 24.9648 12.8404 24.9648C15.9208 24.9648 18.7333 25.6383 20.0725 27.3781C20.6083 28.0516 20.8761 28.7812 20.8761 29.5669C20.8761 30.1194 20.8761 31.5006 20.8761 32.7034C20.8761 33.854 19.9434 34.7863 18.7928 34.7863H6.92075C5.78361 34.7863 4.85649 33.8749 4.8399 32.7379C4.8226 31.552 4.80469 30.1765 4.80469 29.5669Z" fill="white"/>
</g>
<rect x="0.853179" y="8.51724" width="23.9655" height="23.9655" rx="11.9828" stroke="#8671C3" stroke-width="1.03448"/>
<path fill-rule="evenodd" clip-rule="evenodd" d="M101.503 13.7569H112.061C113.515 13.7569 114.706 15.1006 114.706 16.7428V28.4447C114.706 29.6241 113.851 30.589 112.806 30.589H94.2429C93.1983 30.589 92.3438 29.6241 92.3438 28.4447V17.5706V15.9012V12.7886C92.3438 11.2549 93.455 10 94.8134 10H99.0334C100.392 10 101.503 11.255 101.503 12.7886V13.7569Z" fill="#CBC1E8" stroke="#8671C3" stroke-width="1.82047" stroke-miterlimit="22.9256" stroke-linecap="round" stroke-linejoin="round"/>
<path fill-rule="evenodd" clip-rule="evenodd" d="M92.5761 16.7832H109.574C111.042 16.7832 112.455 17.9842 112.713 19.4524L114.296 28.4413C114.506 29.6363 113.701 30.6137 112.506 30.6137H94.5146C93.3196 30.6137 92.1702 29.6363 91.9597 28.4413L90.377 19.4524C90.1185 17.9842 91.1079 16.7832 92.5761 16.7832Z" fill="#EFECFA" stroke="#8671C3" stroke-width="1.82047" stroke-miterlimit="22.9256"/>
<path fill-rule="evenodd" clip-rule="evenodd" d="M129.503 13.7569H140.061C141.515 13.7569 142.706 15.1006 142.706 16.7428V28.4447C142.706 29.6241 141.851 30.589 140.806 30.589H122.243C121.198 30.589 120.344 29.6241 120.344 28.4447V17.5706V15.9012V12.7886C120.344 11.2549 121.455 10 122.813 10H127.033C128.392 10 129.503 11.255 129.503 12.7886V13.7569Z" fill="#CBC1E8" stroke="#8671C3" stroke-width="1.82047" stroke-miterlimit="22.9256" stroke-linecap="round" stroke-linejoin="round"/>
<path fill-rule="evenodd" clip-rule="evenodd" d="M120.576 16.7832H137.574C139.042 16.7832 140.455 17.9842 140.713 19.4524L142.296 28.4413C142.506 29.6363 141.701 30.6137 140.506 30.6137H122.515C121.32 30.6137 120.17 29.6363 119.96 28.4413L118.377 19.4524C118.118 17.9842 119.108 16.7832 120.576 16.7832Z" fill="#EFECFA" stroke="#8671C3" stroke-width="1.82047" stroke-miterlimit="22.9256"/>
<path fill-rule="evenodd" clip-rule="evenodd" d="M73.5031 13.7569H84.0609C85.5155 13.7569 86.7055 15.1006 86.7055 16.7428V28.4447C86.7055 29.6241 85.851 30.589 84.8064 30.589H66.2429C65.1983 30.589 64.3438 29.6241 64.3438 28.4447V17.5706V15.9012V12.7886C64.3438 11.2549 65.455 10 66.8134 10H71.0334C72.3919 10 73.5031 11.255 73.5031 12.7886V13.7569Z" fill="#CBC1E8" stroke="#8671C3" stroke-width="1.82047" stroke-miterlimit="22.9256" stroke-linecap="round" stroke-linejoin="round"/>
<path fill-rule="evenodd" clip-rule="evenodd" d="M64.5761 16.7832H81.5741C83.0423 16.7832 84.4548 17.9842 84.7133 19.4524L86.296 28.4413C86.5065 29.6363 85.7013 30.6137 84.5063 30.6137H66.5146C65.3196 30.6137 64.1702 29.6363 63.9597 28.4413L62.377 19.4524C62.1185 17.9842 63.1079 16.7832 64.5761 16.7832Z" fill="#EFECFA" stroke="#8671C3" stroke-width="1.82047" stroke-miterlimit="22.9256"/>
<path d="M32.6641 20H52.6641" stroke="#8671C3" stroke-width="2" stroke-linecap="round" stroke-linejoin="round"/>
<defs>
<clipPath id="clip0_5396_176254">
<rect x="0.335938" y="8" width="25" height="25" rx="12.5" fill="white"/>
</clipPath>
</defs>
</svg>
