<svg width="88" height="40" viewBox="0 0 88 40" fill="none" xmlns="http://www.w3.org/2000/svg">
<g clip-path="url(#clip0_4538_383887)">
<rect y="8" width="25" height="25" rx="12.5" fill="#CBC1E8"/>
<path d="M12.4943 23.051C14.9246 23.051 16.8948 21.0808 16.8948 18.6505C16.8948 16.2202 14.9246 14.25 12.4943 14.25C10.0639 14.25 8.09375 16.2202 8.09375 18.6505C8.09375 21.0808 10.0639 23.051 12.4943 23.051Z" fill="white"/>
<path d="M4.46094 29.5674C4.46094 28.7817 4.7288 28.0521 5.26451 27.3786C6.67076 25.6949 9.34933 24.9653 12.4967 24.9653C15.577 24.9653 18.3895 25.6388 19.7288 27.3786C20.2645 28.0521 20.5324 28.7817 20.5324 29.5674C20.5324 30.1199 20.5324 31.5011 20.5324 32.7039C20.5324 33.8545 19.5996 34.7868 18.449 34.7868H6.577C5.43986 34.7868 4.51274 33.8754 4.49615 32.7384C4.47885 31.5525 4.46094 30.177 4.46094 29.5674Z" fill="white"/>
</g>
<rect x="0.517241" y="8.51724" width="23.9655" height="23.9655" rx="11.9828" stroke="#8671C3" stroke-width="1.03448"/>
<path d="M44.4902 21.4873H34.355C33.8031 21.4873 33.3516 21.9626 33.3516 22.5436C33.3516 23.1246 33.8031 23.5999 34.355 23.5999H44.4902C45.0421 23.5999 45.4936 23.1246 45.4936 22.5436C45.4936 21.9626 45.0421 21.4873 44.4902 21.4873Z" fill="#8671C3"/>
<path d="M44.4902 17.2637H34.355C33.8031 17.2637 33.3516 17.739 33.3516 18.32C33.3516 18.9009 33.8031 19.3763 34.355 19.3763H44.4902C45.0421 19.3763 45.4936 18.9009 45.4936 18.32C45.4936 17.739 45.0421 17.2637 44.4902 17.2637Z" fill="#8671C3"/>
<path fill-rule="evenodd" clip-rule="evenodd" d="M66.8058 12.3177H79.1894C80.8956 12.3177 82.2914 13.8938 82.2914 15.8199V29.5454C82.2914 30.9289 81.289 32.0606 80.0638 32.0606H58.2901C57.0649 32.0606 56.0625 30.9289 56.0625 29.5454V16.7909V14.8329V11.1819C56.0625 9.383 57.366 7.91113 58.9593 7.91113H63.909C65.5024 7.91113 66.8058 9.38313 66.8058 11.1819V12.3177Z" fill="#CBC1E8" stroke="#8671C3" stroke-width="1.33333" stroke-miterlimit="22.9256" stroke-linecap="round" stroke-linejoin="round"/>
<path fill-rule="evenodd" clip-rule="evenodd" d="M56.3386 15.8667H76.2758C77.9978 15.8667 79.6546 17.2755 79.9579 18.9976L81.8143 29.5407C82.0611 30.9422 81.1165 32.0887 79.7149 32.0887H58.6123C57.2107 32.0887 55.8623 30.9422 55.6155 29.5407L53.7591 18.9976C53.4558 17.2755 54.6166 15.8667 56.3386 15.8667Z" fill="#EFECFA" stroke="#8671C3" stroke-width="1.33333" stroke-miterlimit="22.9256"/>
<path d="M59.5547 10.9795H63.0639" stroke="#8671C3" stroke-width="1.33333" stroke-miterlimit="22.9256" stroke-linecap="round"/>
<defs>
<clipPath id="clip0_4538_383887">
<rect y="8" width="25" height="25" rx="12.5" fill="white"/>
</clipPath>
</defs>
</svg>
