<svg width="16" height="16" viewBox="0 0 16 16" fill="none" xmlns="http://www.w3.org/2000/svg">
<path d="M6.7139 12.743C6.88855 12.5292 7.20315 12.4971 7.41703 12.6717C7.6308 12.8462 7.66262 13.1609 7.48832 13.3748L6.17582 14.9823C6.0012 15.1962 5.68661 15.2282 5.47269 15.0535C5.25879 14.8789 5.2268 14.5643 5.4014 14.3504L6.7139 12.743ZM6.12601 10.5662C6.30867 10.3594 6.62407 10.3398 6.83109 10.5223C7.03815 10.705 7.05872 11.0213 6.87601 11.2283L3.69144 14.8367C3.50874 15.0438 3.19245 15.0634 2.98539 14.8807C2.77848 14.698 2.75879 14.3816 2.94144 14.1746L6.12601 10.5662ZM13.1358 1.54084C13.3017 1.46941 13.4932 1.49276 13.6368 1.60237C13.7804 1.71217 13.8536 1.89116 13.8282 2.07014L12.2471 13.1864C12.0675 14.4494 10.3677 14.7316 9.79691 13.5848L7.66214 9.29573L2.64847 8.70393C1.3239 8.54739 1.06827 6.73595 2.28812 6.21077L13.1358 1.54084ZM8.57718 8.89045L10.6924 13.1395C10.8233 13.4019 11.2156 13.3427 11.2578 13.0457L12.5743 3.78108L8.57718 8.89045ZM3.88968 10.3045C4.07496 10.0999 4.39103 10.0842 4.59574 10.2694C4.80044 10.4547 4.81623 10.7707 4.63089 10.9754L3.10257 12.6639C2.91718 12.8681 2.60106 12.8833 2.39652 12.6981C2.19216 12.5127 2.17618 12.1966 2.36136 11.992L3.88968 10.3045ZM2.68265 7.12971C2.39709 7.25316 2.46321 7.67496 2.76566 7.71077L7.76859 8.30159L11.7344 3.23225L2.68265 7.12971Z" fill="#747474"/>
</svg>
