<svg width="19" height="20" viewBox="0 0 19 20" fill="none" xmlns="http://www.w3.org/2000/svg">
<path d="M7.4082 16.9961L6.90234 16.8213C6.1064 16.5461 5.38351 16.115 4.73438 15.5713L4.33691 15.2383L3.88477 15.4932L3.43848 15.7441L3.43359 15.7471C2.74675 16.1401 2.11962 15.8991 1.9248 15.5645H1.92383L0.849609 13.6914L0.84668 13.6855L0.811523 13.6172C0.659293 13.2592 0.792473 12.6573 1.43066 12.292L1.42969 12.291L1.87305 12.043L2.33496 11.7822L2.24316 11.2598C2.1695 10.8393 2.12891 10.4254 2.12891 9.99414C2.12892 9.56244 2.17014 9.14945 2.24316 8.74316L2.33691 8.21875L1.87305 7.95703L1.43652 7.71191C0.744778 7.30756 0.646452 6.65583 0.84668 6.31445L0.849609 6.30859L1.92578 4.43262L1.92676 4.43164C2.12247 4.09006 2.74434 3.85052 3.42773 4.25L3.43066 4.25098L3.86621 4.50293L4.32031 4.76562L4.72266 4.42871C5.36909 3.8873 6.10635 3.45353 6.91113 3.16504L7.4082 2.98633V1.95508C7.40834 1.16905 7.92238 0.75 8.33008 0.75H10.4941C10.9018 0.750167 11.4159 1.16921 11.416 1.95508V3.00391L11.9209 3.17871C12.7197 3.45486 13.4539 3.8871 14.1006 4.42871L14.5029 4.76562L14.957 4.50293L15.3926 4.25098L15.3955 4.25C16.0788 3.85057 16.7007 4.09013 16.8965 4.43164L16.8975 4.43262L17.9736 6.30859L17.9775 6.31445C18.1776 6.6559 18.0783 7.30766 17.3867 7.71191L16.9502 7.95703L16.4863 8.21875L16.5811 8.74316C16.654 9.14886 16.6943 9.57332 16.6943 9.99414C16.6943 10.4145 16.6536 10.8399 16.5801 11.2598L16.4883 11.7822L16.9502 12.043L17.3926 12.291V12.292C18.0735 12.6818 18.1796 13.3407 17.9775 13.6855L17.9736 13.6914L16.8994 15.5645C16.7048 15.8993 16.0768 16.1404 15.3896 15.7471L15.3848 15.7441L14.9385 15.4932L14.4863 15.2383L14.0889 15.5713C13.4463 16.1094 12.71 16.5347 11.9102 16.8252L11.416 17.0049V18.0449C11.4159 18.8224 10.8992 19.2498 10.4941 19.25H8.33008C7.92497 19.25 7.40835 18.8226 7.4082 18.0449V16.9961Z" fill="white" stroke="#5E5E5E" stroke-width="1.5" stroke-miterlimit="10"/>
<circle cx="9.41452" cy="9.99997" r="3.36765" stroke="#5E5E5E" stroke-width="1.5"/>
</svg>
