<svg width="24" height="24" viewBox="0 0 24 24" fill="none" xmlns="http://www.w3.org/2000/svg">
<path d="M12.9688 2.2168H6.16319C5.6475 2.2168 5.15292 2.42751 4.78826 2.80258C4.42361 3.17766 4.21875 3.68636 4.21875 4.2168V20.2168C4.21875 20.7472 4.42361 21.2559 4.78826 21.631C5.15292 22.0061 5.6475 22.2168 6.16319 22.2168H8.66319M12.9688 2.2168L19.7743 9.2168M12.9688 2.2168V9.2168H19.7743M19.7743 9.2168V13.0501" stroke="#B0B0B0" stroke-width="1.66667" stroke-linecap="round" stroke-linejoin="round"/>
<path d="M22.2778 18.2833C22.1447 17.8308 21.7788 17.5514 21.2532 17.5514C20.508 17.5514 20.0023 18.1236 20.0023 19.1349C20.0023 20.1529 20.4947 20.7317 21.2598 20.7317C21.9484 20.7317 22.3576 20.3425 22.3709 19.7337H21.3264V18.9819H23.3357V19.5807C23.3357 20.8448 22.4707 21.6166 21.2532 21.6166C19.9025 21.6166 18.9844 20.6718 18.9844 19.1482C18.9844 17.5847 19.9624 16.6665 21.2332 16.6665C22.3177 16.6665 23.156 17.3318 23.2891 18.2833H22.2778Z" fill="#B0B0B0"/>
<path d="M18.2608 16.7334V21.5504H17.3959L15.2801 18.4899H15.2402V21.5504H14.2422V16.7334H15.1204L17.2229 19.7939H17.2695V16.7334H18.2608Z" fill="#B0B0B0"/>
<path d="M10 21.5504V16.7334H11.8896C12.9874 16.7334 13.6128 17.4054 13.6128 18.3568C13.6128 19.3216 12.9741 19.9802 11.8629 19.9802H10.998V21.5504H10ZM10.998 19.1752H11.7033C12.2954 19.1752 12.5815 18.8425 12.5815 18.3568C12.5815 17.8778 12.2954 17.5518 11.7033 17.5518H10.998V19.1752Z" fill="#B0B0B0"/>
</svg>
