<svg width="24" height="24" viewBox="0 0 24 24" fill="none" xmlns="http://www.w3.org/2000/svg">
<path d="M12.9688 2.2168H6.16319C5.6475 2.2168 5.15292 2.42751 4.78826 2.80258C4.42361 3.17766 4.21875 3.68636 4.21875 4.2168V20.2168C4.21875 20.7472 4.42361 21.2559 4.78826 21.631C5.15292 22.0061 5.6475 22.2168 6.16319 22.2168H8.66319M12.9688 2.2168L19.7743 9.2168M12.9688 2.2168V9.2168H19.7743M19.7743 9.2168V13.0501" stroke="#B0B0B0" stroke-width="1.66667" stroke-linecap="round" stroke-linejoin="round"/>
<path d="M18.5078 17.4277V16.6665H22.2189V17.4277H20.8296V21.1109H19.8971V17.4277H18.5078Z" fill="#B0B0B0"/>
<path d="M15.1655 16.6665L16.0917 18.195H16.123L17.0555 16.6665H18.1194L16.7363 18.8887L18.1506 21.1109H17.0617L16.123 19.5824H16.0917L15.153 21.1109H14.0703L15.4909 18.8887L14.0953 16.6665H15.1655Z" fill="#B0B0B0"/>
<path d="M10 17.4277V16.6665H13.7111V17.4277H12.3218V21.1109H11.3893V17.4277H10Z" fill="#B0B0B0"/>
</svg>
