<svg width="16" height="16" viewBox="0 0 16 16" fill="none" xmlns="http://www.w3.org/2000/svg">
<path d="M9.66807 4.66699C9.66807 3.74663 8.92238 3.00018 8.00206 3C7.08158 3 6.33506 3.74652 6.33506 4.66699C6.33524 5.58732 7.08169 6.33301 8.00206 6.33301V7.33301L7.72862 7.31934C6.47385 7.19168 5.47623 6.19427 5.34874 4.93945L5.33506 4.66699C5.33506 3.19423 6.5293 2 8.00206 2L8.27452 2.01367C9.61914 2.15029 10.6681 3.28632 10.6681 4.66699L10.6544 4.93945C10.5178 6.28396 9.38257 7.33284 8.00206 7.33301V6.33301C8.92227 6.33283 9.6679 5.58721 9.66807 4.66699Z" fill="#919191"/>
<path d="M13.3351 13.667V14.667H2.66807V13.667H13.3351ZM8.30284 8.00684C11.3963 8.14434 13.942 10.3898 14.5372 13.3418C14.6827 14.0636 14.0714 14.667 13.3351 14.667V13.667C13.4331 13.667 13.5045 13.6256 13.5382 13.5898C13.5525 13.5746 13.5568 13.5643 13.5577 13.5615C13.5581 13.5603 13.5586 13.5585 13.5587 13.5566C13.5588 13.5546 13.5587 13.5487 13.5567 13.5391C13.0345 10.9496 10.7447 9.00015 8.00206 9C5.25935 9 2.96971 10.9496 2.44737 13.5391C2.44541 13.5488 2.44533 13.5547 2.44542 13.5566C2.44551 13.5585 2.44505 13.5603 2.44542 13.5615C2.44626 13.5641 2.45057 13.5745 2.46495 13.5898C2.49856 13.6256 2.57017 13.6669 2.66807 13.667V14.667L2.53233 14.6602C1.90365 14.596 1.40149 14.0927 1.44835 13.4756L1.4669 13.3418C2.08133 10.2946 4.7738 8 8.00206 8L8.30284 8.00684Z" fill="#919191"/>
</svg>
