<svg width="12" height="12" viewBox="0 0 12 12" fill="none" xmlns="http://www.w3.org/2000/svg">
<g clip-path="url(#clip0_6446_17107)">
<path d="M5.93898 1.26012H2.58047C1.7076 1.26012 1 1.95783 1 2.8185V9.44162C1 10.3023 1.7076 11 2.58047 11H9.29748C10.1704 11 10.878 10.3023 10.878 9.44162V6.13006M9.7878 3.71327L6.9402 6.52107C6.792 6.66719 6.591 6.74929 6.38141 6.74929H5.95945C5.52301 6.74929 5.16921 6.40043 5.16921 5.9701V5.55403C5.16921 5.34737 5.25247 5.14918 5.40067 5.00306L8.24827 2.19526M9.7878 3.71327L10.7685 2.74623C11.0772 2.44194 11.0772 1.94858 10.7685 1.64429L10.3466 1.22822C10.038 0.923926 9.53762 0.923927 9.22902 1.22822L8.24827 2.19526M9.7878 3.71327L8.24827 2.19526" stroke="#3A3A3A" stroke-linecap="round" stroke-linejoin="round"/>
</g>
<defs>
<clipPath id="clip0_6446_17107">
<rect width="12" height="12" fill="white"/>
</clipPath>
</defs>
</svg>
