<svg width="24" height="24" viewBox="0 0 24 24" fill="none" xmlns="http://www.w3.org/2000/svg">
<path d="M14.25 8.44434V6C14.25 5.30964 13.6904 4.75 13 4.75H5C4.30964 4.75 3.75 5.30964 3.75 6V18C3.75 18.6904 4.30964 19.25 5 19.25H13C13.6904 19.25 14.25 18.6904 14.25 18V15.5557C14.25 15.1415 14.5858 14.8057 15 14.8057C15.4142 14.8057 15.75 15.1415 15.75 15.5557V18C15.75 19.5188 14.5188 20.75 13 20.75H5C3.48122 20.75 2.25 19.5188 2.25 18V6C2.25 4.48122 3.48122 3.25 5 3.25H13C14.5188 3.25 15.75 4.48122 15.75 6V8.44434C15.75 8.85855 15.4142 9.19434 15 9.19434C14.5858 9.19434 14.25 8.85855 14.25 8.44434Z" fill="#5E5E5E"/>
<path d="M17.2988 8.4834C17.5664 8.20203 18.0002 8.17349 18.3008 8.40625L18.3584 8.45606L21.5166 11.4561C21.6656 11.5977 21.75 11.7944 21.75 12C21.75 12.2056 21.6656 12.4023 21.5166 12.5439L18.3584 15.5439C18.0582 15.8289 17.5841 15.8166 17.2988 15.5166C17.0136 15.2163 17.025 14.7414 17.3252 14.4561L19.1211 12.75H11C10.5858 12.75 10.25 12.4142 10.25 12C10.25 11.5858 10.5858 11.25 11 11.25H19.1211L17.3252 9.54395L17.2725 9.48828C17.0247 9.19996 17.0314 8.76494 17.2988 8.4834Z" fill="#7A53EC"/>
</svg>
