<svg width="56" height="78" viewBox="0 0 56 78" fill="none" xmlns="http://www.w3.org/2000/svg">
<path d="M48 20C48 31.0457 39.0457 40 28 40C16.9543 40 8 31.0457 8 20C8 8.9543 16.9543 0 28 0C39.0457 0 48 8.9543 48 20Z" fill="#D9D9D9"/>
<path d="M56 72C56 78 56 78 28 78C0 78 0 78 0 72C0 53.4432 9.33333 36 28 36C46.6667 36 56 53.4432 56 72Z" fill="white"/>
<path d="M44 20C44 11.1634 36.8366 4 28 4C19.1634 4 12 11.1634 12 20C12 28.8366 19.1634 36 28 36V40C16.9543 40 8 31.0457 8 20C8 8.9543 16.9543 0 28 0C39.0457 0 48 8.9543 48 20C48 31.0457 39.0457 40 28 40V36C36.8366 36 44 28.8366 44 20Z" fill="#3A3A3A"/>
<path d="M52 72C52 63.3241 49.8076 55.1825 45.7207 49.332C41.7236 43.6101 35.895 40 28 40C20.105 40 14.2764 43.6101 10.2793 49.332C6.19239 55.1825 4 63.3241 4 72C4 72.5673 4.00208 72.9577 4.01465 73.2598C4.10695 73.2838 4.21362 73.3122 4.33789 73.3389C5.67726 73.6259 7.95658 73.8132 11.9072 73.9072C15.7855 73.9996 20.9789 74 28 74V78C0 78 0 78 0 72C0 53.4432 9.33333 36 28 36C46.6667 36 56 53.4432 56 72C56 78 56 78 28 78V74C35.0211 74 40.2145 73.9996 44.0928 73.9072C48.0434 73.8132 50.3227 73.6259 51.6621 73.3389C51.786 73.3123 51.8923 73.2837 51.9844 73.2598C51.9969 72.9577 52 72.5673 52 72Z" fill="#3A3A3A"/>
</svg>
