<svg width="12" height="12" viewBox="0 0 12 12" fill="none" xmlns="http://www.w3.org/2000/svg">
<path d="M1 9.2998V2.7002C1 1.76131 1.76131 1 2.7002 1H6C6.27614 1 6.5 1.22386 6.5 1.5C6.5 1.77614 6.27614 2 6 2H2.7002C2.3136 2 2 2.3136 2 2.7002V9.2998C2 9.68641 2.3136 10 2.7002 10H9.2998C9.68641 10 10 9.6864 10 9.2998V6C10 5.72386 10.2239 5.5 10.5 5.5C10.7761 5.5 11 5.72386 11 6V9.2998C11 10.2387 10.2387 11 9.2998 11H2.7002C1.76131 11 1 10.2387 1 9.2998Z" fill="#7A53EC"/>
<path d="M8.5 1C8.77614 1 9 1.22386 9 1.5V3H10.5C10.7761 3 11 3.22386 11 3.5C11 3.77614 10.7761 4 10.5 4H9V5.5C9 5.77614 8.77614 6 8.5 6C8.22386 6 8 5.77614 8 5.5V4H6.5C6.22386 4 6 3.77614 6 3.5C6 3.22386 6.22386 3 6.5 3H8V1.5C8 1.22386 8.22386 1 8.5 1Z" fill="#7A53EC"/>
</svg>
