<svg width="14" height="12" viewBox="0 0 14 12" fill="none" xmlns="http://www.w3.org/2000/svg">
<path d="M13.0018 4.8535C11.8409 3.69844 9.44236 1.70654 6.66667 1.70654C5.95359 1.70654 5.26409 1.83619 4.60994 2.06013L5.28177 2.7791C5.72965 2.66124 6.19521 2.59052 6.66667 2.59052C9.11234 2.59052 11.2928 4.39973 12.3772 5.48408C12.4361 5.54301 12.4479 5.61962 12.4479 5.66087C12.4479 5.70212 12.4361 5.77873 12.3772 5.83767C11.8114 6.40341 10.951 7.16953 9.90203 7.76474L10.509 8.42477C11.5698 7.7942 12.4361 7.03398 13.0018 6.46824C13.4438 6.02035 13.4438 5.30139 13.0018 4.8535ZM2.87735 2.86161C1.78711 3.49807 0.909024 4.27597 0.331492 4.8535C-0.110497 5.30139 -0.110497 6.02035 0.331492 6.46824C1.49245 7.6233 3.89098 9.6152 6.66667 9.6152C7.40331 9.6152 8.11639 9.47376 8.78821 9.24393L8.31676 8.73711L8.12228 8.52496C7.65672 8.65461 7.16759 8.73122 6.66667 8.73122C4.22099 8.73122 2.04052 6.92201 0.956169 5.83767C0.897237 5.77873 0.885451 5.70212 0.885451 5.66087C0.885451 5.61962 0.897237 5.54301 0.956169 5.48408C1.5337 4.90654 2.41768 4.12275 3.49024 3.52164L2.87735 2.86161Z" fill="#3A3A3A"/>
<path d="M11.8166 11.2003C11.7341 11.2828 11.6221 11.3182 11.516 11.3182C11.3982 11.3182 11.2803 11.271 11.1919 11.1768L9.23538 9.07289L8.58713 8.3775L7.50868 7.21654L6.86043 6.52114L5.82323 5.40733L5.17497 4.70604L3.88437 3.31525L3.25969 2.64343L1.49173 0.745819C1.32672 0.563131 1.33851 0.286151 1.51531 0.121142C1.6921 -0.0497608 1.97497 -0.0379744 2.13998 0.144714L4.09652 2.24858L4.74477 2.94398L5.82323 4.10494L6.47148 4.80033L7.50868 5.91414L8.15693 6.61543L9.44753 8.00623L10.0722 8.67805L11.8402 10.5757C12.0052 10.7583 11.9934 11.0353 11.8166 11.2003Z" fill="#3A3A3A"/>
<path d="M6.42667 6.69217C6.3972 6.69806 6.36773 6.69806 6.33827 6.69806C5.84913 6.69806 5.45429 6.30322 5.45429 5.81409C5.45429 5.76105 5.46018 5.70801 5.47197 5.66086L4.80604 4.94189C4.65871 5.1953 4.57031 5.49585 4.57031 5.81409C4.57031 6.79235 5.36 7.58204 6.33827 7.58204C6.60935 7.58204 6.86865 7.52311 7.0926 7.41114L6.42667 6.69217Z" fill="#3A3A3A"/>
<path d="M8.70335 5.50184C8.70335 5.78472 8.63852 6.04402 8.52066 6.27974L7.81937 5.51952V5.50184C7.81937 5.03039 7.45399 4.64733 6.98843 4.62376L6.28125 3.86354C6.48162 3.77514 6.70556 3.73389 6.93539 3.73389C7.91366 3.73389 8.70335 4.52357 8.70335 5.50184Z" fill="#3A3A3A"/>
</svg>
