<svg width="24" height="24" viewBox="0 0 24 24" fill="none" xmlns="http://www.w3.org/2000/svg">
<path d="M11.9085 4.89018H6.87071C5.5614 4.89018 4.5 5.93675 4.5 7.22775V17.1624C4.5 18.4534 5.5614 19.5 6.87071 19.5H16.9462C18.2555 19.5 19.3169 18.4534 19.3169 17.1624V12.1951M17.6817 8.5699L13.4103 12.7816C13.188 13.0008 12.8865 13.1239 12.5721 13.1239H11.9392C11.2845 13.1239 10.7538 12.6006 10.7538 11.9551V11.331C10.7538 11.0211 10.8787 10.7238 11.101 10.5046L15.3724 6.29289M17.6817 8.5699L19.1528 7.11934C19.6157 6.6629 19.6157 5.92287 19.1528 5.46643L18.5199 4.84233C18.057 4.38589 17.3064 4.38589 16.8435 4.84233L15.3724 6.29289M17.6817 8.5699L15.3724 6.29289" stroke="#3A3A3A" stroke-width="1.5" stroke-linecap="round" stroke-linejoin="round"/>
</svg>
