<svg width="16" height="16" viewBox="0 0 16 16" fill="none" xmlns="http://www.w3.org/2000/svg">
  <path d="M14.3378 7.14631C13.1768 5.99125 10.7783 3.99935 8.0026 3.99935C7.28953 3.99935 6.60003 4.129 5.94588 4.35294L6.6177 5.07191C7.06559 4.95404 7.53115 4.88333 8.0026 4.88333C10.4483 4.88333 12.6288 6.69253 13.7131 7.77688C13.772 7.83581 13.7838 7.91242 13.7838 7.95368C13.7838 7.99493 13.772 8.07154 13.7131 8.13047C13.1474 8.69622 12.287 9.46233 11.238 10.0575L11.845 10.7176C12.9057 10.087 13.772 9.32679 14.3378 8.76104C14.7798 8.31316 14.7798 7.59419 14.3378 7.14631ZM4.21329 5.15441C3.12305 5.79088 2.24496 6.56878 1.66743 7.14631C1.22544 7.59419 1.22544 8.31316 1.66743 8.76104C2.82839 9.91611 5.22691 11.908 8.0026 11.908C8.73925 11.908 9.45233 11.7666 10.1242 11.5367L9.6527 11.0299L9.45822 10.8178C8.99266 10.9474 8.50352 11.024 8.0026 11.024C5.55693 11.024 3.37645 9.21482 2.29211 8.13047C2.23317 8.07154 2.22139 7.99493 2.22139 7.95368C2.22139 7.91242 2.23317 7.83581 2.29211 7.77688C2.86964 7.19935 3.75362 6.41556 4.82618 5.81445L4.21329 5.15441Z" fill="#3A3A3A"/>
  <path d="M13.1532 13.4933C13.0707 13.5758 12.9587 13.6112 12.8527 13.6112C12.7348 13.6112 12.6169 13.564 12.5285 13.4697L10.572 11.3659L9.92376 10.6705L8.84531 9.50951L7.15985 7.7003L6.5116 6.99901L2.82836 3.03879C2.66335 2.8561 2.67514 2.57912 2.85194 2.41411C3.02873 2.24321 3.3116 2.25499 3.47661 2.43768L5.43315 4.54155L6.0814 5.23695L7.15985 6.3979L8.84531 8.20711L9.49356 8.9084L13.1768 12.8686C13.3418 13.0513 13.33 13.3283 13.1532 13.4933Z" fill="#3A3A3A"/>
  <path d="M7.76093 8.98498C7.73147 8.99087 7.702 8.99087 7.67254 8.99087C7.1834 8.99087 6.78856 8.59603 6.78856 8.10689C6.78856 8.05385 6.79445 8.00081 6.80624 7.95367L6.14031 7.2347C5.99298 7.48811 5.90458 7.78866 5.90458 8.10689C5.90458 9.08516 6.69427 9.87485 7.67254 9.87485C7.94362 9.87485 8.20292 9.81592 8.42687 9.70395L7.76093 8.98498Z" fill="#3A3A3A"/>
  <path d="M10.0417 7.79465C10.0417 8.07752 9.97686 8.33682 9.859 8.57255L9.15771 7.81233V7.79465C9.15771 7.32319 8.79233 6.94014 8.32677 6.91656L7.61959 6.15634C7.81996 6.06795 8.0439 6.02669 8.27373 6.02669C9.252 6.02669 10.0417 6.81638 10.0417 7.79465Z" fill="#3A3A3A"/>
  </svg>   