<svg width="16" height="16" viewBox="0 0 16 16" fill="none" xmlns="http://www.w3.org/2000/svg">
<path d="M8.0026 4.89485C10.4483 4.89485 12.6288 6.72632 13.7131 7.82401C13.7779 7.88963 13.7838 7.96719 13.7838 8.00298C13.7838 8.03878 13.772 8.1223 13.7131 8.18195C12.6288 9.27368 10.4483 11.1111 8.0026 11.1111C5.55693 11.1111 3.37645 9.27964 2.29211 8.18195C2.22728 8.11633 2.22139 8.03878 2.22139 8.00298C2.22139 7.96719 2.23317 7.88367 2.29211 7.82401C3.37645 6.72632 5.55693 4.89485 8.0026 4.89485ZM8.0026 4C5.22691 4 2.82839 6.01641 1.66743 7.18568C1.22544 7.63311 1.22544 8.36689 1.66743 8.81432C2.82839 9.98359 5.22691 12 8.0026 12C10.7783 12 13.1768 9.98359 14.3378 8.81432C14.7798 8.36689 14.7798 7.63311 14.3378 7.18568C13.1768 6.01641 10.7783 4 8.0026 4Z" fill="#3A3A3A"/>
<circle cx="8" cy="8" r="1.5" stroke="#3A3A3A"/>
</svg>
