<svg width="14" height="12" viewBox="0 0 14 12" fill="none" xmlns="http://www.w3.org/2000/svg">
<path d="M2.66699 10.9997V11.9997H1.33301V10.9997H2.66699ZM3 10.6667V5.99967C2.99982 5.81584 2.85083 5.66684 2.66699 5.66667H1.33301C1.14917 5.66684 1.00018 5.81584 1 5.99967V10.6667C1 10.8507 1.14906 10.9995 1.33301 10.9997V11.9997C0.596778 11.9995 0 11.4029 0 10.6667V5.99967C0.000176404 5.26355 0.596887 4.66684 1.33301 4.66667H2.66699L2.80273 4.6735C3.47509 4.74165 3.99984 5.30938 4 5.99967V10.6667L3.99316 10.8034C3.92926 11.4308 3.43023 11.9292 2.80273 11.9928L2.66699 11.9997V10.9997C2.85094 10.9995 3 10.8507 3 10.6667Z" fill="#3A3A3A"/>
<path d="M7.33366 10.9997V11.9997H5.99967V10.9997H7.33366ZM7.66667 10.6667V3.99967C7.66649 3.81584 7.5175 3.66684 7.33366 3.66667H5.99967C5.81584 3.66684 5.66684 3.81584 5.66667 3.99967V10.6667C5.66667 10.8507 5.81573 10.9995 5.99967 10.9997V11.9997C5.3096 11.9995 4.74195 11.4754 4.6735 10.8034L4.66667 10.6667V3.99967C4.66684 3.26355 5.26355 2.66684 5.99967 2.66667H7.33366L7.4694 2.6735C8.14176 2.74165 8.6665 3.30938 8.66667 3.99967V10.6667C8.66667 11.3571 8.14185 11.9247 7.4694 11.9928L7.33366 11.9997V10.9997C7.51761 10.9995 7.66667 10.8507 7.66667 10.6667Z" fill="#3A3A3A"/>
<path d="M12.0003 11V12H10.6663V11H12.0003ZM12.3333 10.667V1.33301C12.3332 1.14917 12.1842 1.00018 12.0003 1H10.6663C10.4825 1.00018 10.3335 1.14917 10.3333 1.33301V10.667C10.3335 10.8508 10.4825 10.9998 10.6663 11V12C9.97604 11.9998 9.40832 11.4751 9.34017 10.8027L9.33333 10.667V1.33301C9.33351 0.596886 9.93022 0.000175889 10.6663 0H12.0003L12.1361 0.00683594C12.8084 0.0749853 13.3332 0.64271 13.3333 1.33301V10.667L13.3265 10.8027C13.2629 11.4305 12.7638 11.9295 12.1361 11.9932L12.0003 12V11C12.1842 10.9998 12.3332 10.8508 12.3333 10.667Z" fill="#3A3A3A"/>
</svg>
