<svg width="11" height="11" viewBox="0 0 11 11" fill="none" xmlns="http://www.w3.org/2000/svg">
<path d="M7.28906 0C7.89634 0.000117213 8.38846 0.492347 8.38867 1.09961V2.11133H10C10.2761 2.11133 10.5 2.33519 10.5 2.61133C10.4999 2.88737 10.2761 3.11133 10 3.11133H9.92676L9.35156 9.14258C9.27804 9.91221 8.63159 10.5 7.8584 10.5H2.64062C1.8676 10.4998 1.22093 9.91211 1.14746 9.14258L0.572266 3.11133H0.5C0.22393 3.11133 0.000117218 2.88737 0 2.61133C0 2.33519 0.223858 2.11133 0.5 2.11133H2.11133V1.09961C2.11154 0.492406 2.60373 0.000211023 3.21094 0H7.28906ZM2.14258 9.04785C2.16719 9.30413 2.38317 9.49978 2.64062 9.5H7.8584C8.11601 9.5 8.33178 9.30423 8.35645 9.04785L8.92188 3.11133H1.57715L2.14258 9.04785ZM6.25293 4.16797C6.44845 3.97297 6.76541 3.97297 6.96094 4.16797C7.15642 4.36297 7.15645 4.67904 6.96094 4.87402L5.9541 5.87695L6.96094 6.88086C7.15638 7.07578 7.15623 7.3919 6.96094 7.58691C6.76541 7.78191 6.44845 7.78191 6.25293 7.58691L5.24609 6.58301L4.24707 7.58105C4.0516 7.77575 3.73453 7.77575 3.53906 7.58105C3.34354 7.38605 3.34354 7.06902 3.53906 6.87402L4.53809 5.87695L3.53906 4.88086C3.34356 4.68588 3.34361 4.36981 3.53906 4.1748C3.73459 3.9798 4.05155 3.9798 4.24707 4.1748L5.24609 5.1709L6.25293 4.16797ZM3.21094 1C3.15602 1.00021 3.11154 1.04469 3.11133 1.09961V2.11133H7.38867V1.09961C7.38846 1.04463 7.34406 1.00012 7.28906 1H3.21094Z" fill="#3A3A3A"/>
</svg>
