<svg width="12" height="13" viewBox="0 0 12 13" fill="none" xmlns="http://www.w3.org/2000/svg">
<path d="M9.66699 5.33398C9.66699 2.94075 7.72624 1 5.33301 1C2.93992 1.00018 1 2.94086 1 5.33398C1.00018 7.72696 2.94003 9.66682 5.33301 9.66699C7.72613 9.66699 9.66682 7.72707 9.66699 5.33398ZM10.6602 5.6084C10.5915 6.9617 10.0165 8.18021 9.12305 9.08301L11.6875 11.6475C11.8822 11.8427 11.8824 12.1594 11.6875 12.3545C11.4924 12.5496 11.1758 12.5492 10.9805 12.3545L8.35352 9.72754C7.4945 10.319 6.45471 10.667 5.33301 10.667C2.38775 10.6668 0.000176125 8.27924 0 5.33398C0 2.38857 2.38764 0.000176123 5.33301 0L5.60742 0.00683594C8.42558 0.149486 10.667 2.48038 10.667 5.33398L10.6602 5.6084Z" fill="#3A3A3A"/>
</svg>
