<svg width="13" height="14" viewBox="0 0 13 14" fill="none" xmlns="http://www.w3.org/2000/svg">
<path d="M7.11037 1.30371C7.11037 1.16789 7.06405 1.0755 7.02541 1.03027C6.99349 0.992958 6.97984 0.998277 6.99026 1H5.55861C5.56937 0.998305 5.55556 0.992742 5.52346 1.03027C5.48483 1.07553 5.4385 1.16798 5.4385 1.30371V2.34277L4.77639 2.58008C4.29881 2.75128 3.85834 3.01047 3.46975 3.33594L2.93361 3.78516L2.32717 3.43457L2.03713 3.26758L2.03322 3.26465C1.91646 3.19639 1.8118 3.18939 1.75197 3.2002C1.72956 3.20425 1.71752 3.20978 1.71193 3.21289L1.00002 4.45215C1.00252 4.44262 0.994271 4.45028 1.00881 4.49121C1.02885 4.5474 1.08762 4.63662 1.20901 4.70801L1.49416 4.86914L2.1133 5.21777L1.98733 5.91699C1.94339 6.16146 1.91897 6.4076 1.91897 6.66309C1.91898 6.91781 1.94354 7.1644 1.9883 7.41992L2.11037 8.11719L1.49416 8.46387L1.20119 8.62793L1.20217 8.62891C1.08732 8.6947 1.02922 8.78049 1.00881 8.83789C1.00092 8.86012 0.999979 8.87353 1.00002 8.87988L1.70803 10.1123C1.71409 10.1157 1.72694 10.1224 1.75197 10.127C1.81635 10.1386 1.92392 10.1315 2.04104 10.0645L2.0469 10.0605L2.34475 9.89258L2.94729 9.55371L3.47756 9.99805C3.86982 10.3265 4.29977 10.5802 4.76565 10.7412L5.4385 10.9746V12.0293C5.4385 12.1596 5.48437 12.2536 5.52541 12.3018C5.54234 12.3216 5.55443 12.3297 5.56057 12.333H6.9883C6.99438 12.3298 7.00643 12.3217 7.02346 12.3018C7.0645 12.2536 7.11037 12.1596 7.11037 12.0293V10.9863L7.76955 10.7471C8.24806 10.5733 8.68794 10.3191 9.07131 9.99805L9.60158 9.55371L10.2041 9.89258L10.502 10.0605L10.5078 10.0645C10.6249 10.1314 10.7325 10.1386 10.7969 10.127C10.8207 10.1226 10.8334 10.1158 10.8399 10.1123L11.5479 8.87988C11.5479 8.87353 11.548 8.86016 11.5401 8.83789C11.5196 8.78047 11.4616 8.69471 11.3467 8.62891L10.4385 8.11719L10.5606 7.41992C10.6052 7.16517 10.6299 6.91092 10.6299 6.66309C10.6299 6.41449 10.6053 6.16067 10.5615 5.91699L10.4356 5.21777L11.0547 4.86914L11.3389 4.70801C11.4609 4.63654 11.52 4.54754 11.5401 4.49121C11.5545 4.45063 11.5456 4.44304 11.5479 4.45215L10.836 3.21289C10.83 3.20976 10.8182 3.20404 10.7969 3.2002C10.737 3.18944 10.6323 3.19647 10.5156 3.26465L10.5117 3.26758L10.2217 3.43457L9.61623 3.78516L9.07912 3.33594C8.69027 3.01026 8.2538 2.75417 7.7842 2.5918L7.11037 2.35938V1.30371ZM8.11037 1.64648C8.63145 1.82661 9.11203 2.09412 9.54104 2.42383L9.7217 2.56934L10.0117 2.40137C10.6376 2.03569 11.3928 2.17275 11.6983 2.70605L12.416 3.95703C12.7287 4.49055 12.4694 5.20636 11.8438 5.57227L11.5459 5.74023C11.5994 6.03755 11.6299 6.35053 11.6299 6.66309L11.624 6.89746C11.6129 7.13137 11.586 7.36422 11.5459 7.59277L11.8438 7.76074C12.4696 8.11908 12.729 8.84337 12.416 9.37695L11.6983 10.627C11.3929 11.1529 10.6377 11.2899 10.0117 10.9316L9.71389 10.7646C9.24059 11.161 8.69816 11.4731 8.11037 11.6865V12.0293C8.11037 12.7011 7.67438 13.259 7.11037 13.3262L6.99611 13.333H5.55276C4.93456 13.3328 4.4385 12.7458 4.4385 12.0293V11.6865C3.84307 11.4807 3.30827 11.161 2.83498 10.7646L2.53811 10.9316C1.95118 11.2676 1.25 11.168 0.913107 10.7207L0.850607 10.627L0.132833 9.37695C-0.16064 8.8766 0.0494633 8.20875 0.592794 7.83203L0.705099 7.76074L1.00295 7.59277C0.962889 7.36414 0.935917 7.13546 0.924825 6.90039L0.918966 6.66309C0.918966 6.3429 0.949512 6.03755 1.00295 5.74023L0.705099 5.57227C0.0795914 5.20635 -0.179731 4.4905 0.132833 3.95703L0.850607 2.70605C1.15606 2.17261 1.9122 2.0355 2.53811 2.40137L2.82815 2.56934C3.30143 2.17296 3.84309 1.85211 4.4385 1.63867V1.30371C4.4385 0.579626 4.93456 0.000221254 5.55276 0H6.99611L7.11037 0.00683594C7.67439 0.0731502 8.11037 0.624759 8.11037 1.30371V1.64648Z" fill="#5E5E5E"/>
<path d="M8.01962 6.66648C8.01962 5.70271 7.23829 4.92139 6.27452 4.92138C5.31073 4.92138 4.52941 5.7027 4.52941 6.66648C4.52942 7.63026 5.31074 8.41159 6.27452 8.41159V9.41158L5.99425 9.39693C4.70202 9.26588 3.67514 8.23897 3.54407 6.94676L3.52942 6.66648C3.52942 5.15042 4.75845 3.92139 6.27452 3.92139L6.55479 3.93604C7.93917 4.07646 9.01962 5.24506 9.01962 6.66648L9.00497 6.94676C8.86454 8.33113 7.69593 9.41157 6.27452 9.41158V8.41159C7.23829 8.41158 8.01961 7.63025 8.01962 6.66648Z" fill="#5E5E5E"/>
</svg>
