<svg width="14" height="12" viewBox="0 0 14 12" fill="none" xmlns="http://www.w3.org/2000/svg">
<path d="M6.66699 0.5C6.7966 0.500058 6.92484 0.535162 7.04004 0.602539C7.12673 0.653242 7.20423 0.721192 7.26758 0.803711L7.32617 0.890625L12.7246 10.2539H12.7256C12.7955 10.3797 12.8326 10.5241 12.833 10.6719C12.8334 10.8195 12.7967 10.9636 12.7275 11.0898C12.6583 11.216 12.5595 11.3196 12.4434 11.3906C12.3274 11.4614 12.1971 11.4985 12.0654 11.5H1.26758C1.13591 11.4984 1.00557 11.4615 0.889648 11.3906C0.773484 11.3196 0.674708 11.216 0.605469 11.0898C0.536354 10.9637 0.499602 10.8194 0.5 10.6719C0.500308 10.561 0.521356 10.4521 0.561523 10.3516L0.608398 10.2539L6.00684 0.889648L6.00781 0.890625C6.07902 0.768674 6.17762 0.67006 6.29297 0.602539C6.40827 0.535101 6.53727 0.5 6.66699 0.5Z" stroke="#FF44BF" stroke-linecap="round" stroke-linejoin="round"/>
<path d="M6.66675 4.6665V7.33317" stroke="#FF44BF" stroke-linecap="round" stroke-linejoin="round"/>
<circle cx="6.66667" cy="9.33317" r="0.666667" fill="#FF44BF"/>
</svg>
