<svg width="12" height="12" viewBox="0 0 12 12" fill="none" xmlns="http://www.w3.org/2000/svg">
<g clip-path="url(#clip0_6829_40637)">
<path d="M0.5 9.44138V2.81833C0.500077 1.67511 1.43795 0.75995 2.58008 0.75974H5.93945C6.21526 0.759997 6.43926 0.983918 6.43945 1.25974C6.43945 1.53572 6.21538 1.75948 5.93945 1.75974H2.58008C1.97693 1.75995 1.50008 2.24061 1.5 2.81833V9.44138C1.5 10.0192 1.97688 10.4998 2.58008 10.5H9.29785C9.90106 10.4998 10.3779 10.0192 10.3779 9.44138V6.12986C10.378 5.8538 10.6019 5.62987 10.8779 5.62986C11.154 5.62986 11.3778 5.8538 11.3779 6.12986V9.44138C11.3779 10.5847 10.44 11.4998 9.29785 11.5H2.58008C1.4379 11.4998 0.5 10.5847 0.5 9.44138ZM8.87793 0.872044C9.38113 0.375919 10.194 0.376051 10.6973 0.872044L11.1191 1.28806C11.6263 1.78817 11.6263 2.6024 11.1191 3.10251L7.29102 6.87693C7.04863 7.1159 6.7216 7.24889 6.38184 7.249H5.95898C5.25327 7.24875 4.66895 6.68263 4.66895 5.9697V5.55369C4.66903 5.21231 4.80723 4.88669 5.0498 4.64744L8.87793 0.872044ZM9.99512 1.58396C9.8812 1.472 9.69391 1.47187 9.58008 1.58396L8.95996 2.19431L9.78711 3.01072L10.418 2.3906C10.5279 2.28215 10.5279 2.10845 10.418 1.99997L9.99512 1.58396ZM5.66895 5.9697C5.66895 6.11714 5.79227 6.24875 5.95898 6.249H6.38184C6.46084 6.24889 6.53507 6.21799 6.58887 6.16501L9.0752 3.71286L8.24805 2.89744L5.75195 5.35935C5.69838 5.41219 5.66903 5.48205 5.66895 5.55369V5.9697Z" fill="white"/>
</g>
<defs>
<clipPath id="clip0_6829_40637">
<rect width="12" height="12" fill="white"/>
</clipPath>
</defs>
</svg>
