<svg width="24" height="24" viewBox="0 0 24 24" fill="none" xmlns="http://www.w3.org/2000/svg">
<path d="M15.25 18.25V18.667C15.2498 19.9714 13.9286 21.25 12 21.25C10.0714 21.25 8.75022 19.9714 8.75 18.667V18.25H15.25Z" stroke="#0A0A0A" stroke-width="1.5"/>
<path d="M12 4.75C15.5428 4.75 18.25 7.26526 18.25 10.1768V14.5879C18.25 14.7383 18.2953 14.8854 18.3799 15.0098L19.2549 16.2969C19.8191 17.1267 19.2251 18.2498 18.2217 18.25H5.77832C4.77492 18.2498 4.18085 17.1267 4.74512 16.2969L5.62012 15.0098C5.70465 14.8854 5.75 14.7383 5.75 14.5879V10.1768C5.75 7.26526 8.45725 4.75 12 4.75Z" stroke="#0A0A0A" stroke-width="1.5" stroke-linejoin="round"/>
<circle cx="12" cy="4" r="1" fill="#0A0A0A"/>
</svg>
