<svg width="14" height="8" viewBox="0 0 14 8" fill="none" xmlns="http://www.w3.org/2000/svg">
<path d="M6.92607 0.00585938C9.59135 0.125249 11.8776 2.05281 13.0022 3.18555C13.4442 3.63297 13.4442 4.36703 13.0022 4.81445C11.8413 5.98369 9.44282 7.99984 6.66728 8C3.89159 8 1.4923 5.98373 0.331344 4.81445C-0.110448 4.36706 -0.110448 3.63294 0.331344 3.18555C1.4923 2.01627 3.89159 0 6.66728 0L6.92607 0.00585938ZM6.66728 0.894531C4.22161 0.894531 2.04069 2.72653 0.956344 3.82422C0.89758 3.88384 0.886043 3.96714 0.886031 4.00293C0.886031 4.03868 0.891719 4.11606 0.956344 4.18164C2.04069 5.27933 4.22161 7.11133 6.66728 7.11133C9.11282 7.11117 11.2929 5.27331 12.3772 4.18164C12.4361 4.12199 12.4485 4.03871 12.4485 4.00293C12.4485 3.96711 12.442 3.88981 12.3772 3.82422C11.3268 2.76089 9.24804 1.00902 6.8958 0.900391L6.66728 0.894531ZM7.66728 4C7.66728 3.44782 7.21942 3.00018 6.66728 3C6.115 3 5.66728 3.44772 5.66728 4C5.66728 4.55228 6.115 5 6.66728 5V6L6.4622 5.98926C5.52093 5.89352 4.77245 5.14547 4.67705 4.2041L4.66728 4C4.66728 2.89543 5.56271 2 6.66728 2L6.87138 2.01074C7.8799 2.11315 8.66728 2.96446 8.66728 4L8.65654 4.2041C8.5543 5.21269 7.7028 5.99983 6.66728 6V5C7.21942 4.99982 7.66728 4.55218 7.66728 4Z" fill="#3A3A3A"/>
</svg>
