<svg width="12" height="12" viewBox="0 0 12 12" fill="none" xmlns="http://www.w3.org/2000/svg">
<path d="M8.25 0.700195C9.2165 0.700195 10 1.4837 10 2.4502C10 3.41669 9.2165 4.2002 8.25 4.2002C7.81575 4.2002 7.41918 4.04117 7.11328 3.7793L4.93945 5.30176C4.97736 5.44501 5 5.59482 5 5.75C5 6.03434 4.92991 6.30169 4.80957 6.53906L7.05566 8.17285C7.36847 7.88025 7.78788 7.7002 8.25 7.7002C9.2165 7.7002 10 8.4837 10 9.4502C10 10.4167 9.2165 11.2002 8.25 11.2002C7.2835 11.2002 6.5 10.4167 6.5 9.4502C6.5 9.30882 6.51816 9.1717 6.5498 9.04004L4.11523 7.26953C3.85986 7.41526 3.56507 7.5 3.25 7.5C2.2835 7.5 1.5 6.7165 1.5 5.75C1.5 4.7835 2.2835 4 3.25 4C3.69843 4 4.10635 4.16991 4.41602 4.44727L6.57031 2.93945C6.52514 2.78411 6.5 2.62011 6.5 2.4502C6.5 1.4837 7.2835 0.700195 8.25 0.700195ZM8.25 8.7002C7.83579 8.7002 7.5 9.03598 7.5 9.4502C7.5 9.86441 7.83579 10.2002 8.25 10.2002C8.66421 10.2002 9 9.86441 9 9.4502C9 9.03598 8.66421 8.7002 8.25 8.7002ZM3.25 5C2.83579 5 2.5 5.33579 2.5 5.75C2.5 6.16421 2.83579 6.5 3.25 6.5C3.66421 6.5 4 6.16421 4 5.75C4 5.33579 3.66421 5 3.25 5ZM8.25 1.7002C7.83579 1.7002 7.5 2.03598 7.5 2.4502C7.5 2.86441 7.83579 3.2002 8.25 3.2002C8.66421 3.2002 9 2.86441 9 2.4502C9 2.03598 8.66421 1.7002 8.25 1.7002Z" fill="#3A3A3A"/>
</svg>
