<svg width="16" height="16" viewBox="0 0 16 16" fill="none" xmlns="http://www.w3.org/2000/svg">
<path d="M2.5 11.4414V4.81833C2.50008 3.67511 3.43795 2.75995 4.58008 2.75974H7.93945L8.04004 2.77048C8.26761 2.81721 8.43929 3.01839 8.43945 3.25974C8.43945 3.50127 8.26774 3.70324 8.04004 3.74997L7.93945 3.75974H4.58008C3.97693 3.75995 3.50008 4.24061 3.5 4.81833V11.4414C3.5 12.0192 3.97688 12.4998 4.58008 12.5H11.2979C11.9011 12.4998 12.3779 12.0192 12.3779 11.4414V8.12986C12.378 7.8538 12.6019 7.62987 12.8779 7.62986C13.154 7.62986 13.3778 7.8538 13.3779 8.12986V11.4414C13.3779 12.5847 12.44 13.4998 11.2979 13.5H4.58008C3.4379 13.4998 2.5 12.5847 2.5 11.4414ZM10.8779 2.87204C11.3811 2.37592 12.194 2.37605 12.6973 2.87204L13.1191 3.28806C13.6263 3.78817 13.6263 4.6024 13.1191 5.10251L9.29102 8.87693C9.04863 9.1159 8.7216 9.24889 8.38184 9.249H7.95898C7.25327 9.24875 6.66895 8.68263 6.66895 7.9697V7.55369C6.66903 7.21231 6.80723 6.88669 7.0498 6.64744L10.8779 2.87204ZM11.9951 3.58396C11.8812 3.472 11.6939 3.47187 11.5801 3.58396L10.96 4.19431L11.7871 5.01072L12.418 4.3906C12.5279 4.28215 12.5279 4.10845 12.418 3.99997L11.9951 3.58396ZM7.66895 7.9697C7.66895 8.11714 7.79227 8.24875 7.95898 8.249H8.38184C8.46084 8.24889 8.53507 8.21799 8.58887 8.16501L11.0752 5.71286L10.248 4.89744L7.75195 7.35935C7.69838 7.41219 7.66903 7.48205 7.66895 7.55369V7.9697Z" fill="#3A3A3A"/>
</svg>
