<svg width="77" height="14" viewBox="0 0 77 14" fill="none" xmlns="http://www.w3.org/2000/svg">
<g filter="url(#filter0_d_6208_374941)">
<path d="M69.6901 0.648713C69.8415 0.369548 70.2421 0.369547 70.3935 0.648712L72.1187 3.83131C72.176 3.93712 72.278 4.01148 72.3963 4.03377L75.9418 4.70175C76.2522 4.76023 76.3756 5.13856 76.1593 5.36876L73.6784 8.00876C73.5964 8.09594 73.5578 8.2152 73.5731 8.33385L74.0375 11.9343C74.078 12.2486 73.7544 12.483 73.4684 12.3464L70.2142 10.7923C70.1052 10.7403 69.9784 10.7403 69.8694 10.7923L66.6152 12.3464C66.3292 12.483 66.0056 12.2486 66.0461 11.9343L66.5105 8.33385C66.5258 8.2152 66.4872 8.09594 66.4053 8.00876L63.9243 5.36876C63.708 5.13856 63.8314 4.76023 64.1418 4.70175L67.6873 4.03377C67.8056 4.01148 67.9076 3.93712 67.9649 3.83131L69.6901 0.648713Z" fill="#D9D9D9"/>
</g>
<g filter="url(#filter1_d_6208_374941)">
<path d="M53.9187 0.648713C54.07 0.369548 54.4706 0.369547 54.622 0.648712L56.3472 3.83131C56.4046 3.93712 56.5065 4.01148 56.6248 4.03377L60.1703 4.70175C60.4808 4.76023 60.6041 5.13856 60.3878 5.36876L57.9069 8.00876C57.8249 8.09594 57.7863 8.2152 57.8016 8.33385L58.266 11.9343C58.3066 12.2486 57.9829 12.483 57.6969 12.3464L54.4427 10.7923C54.3337 10.7403 54.207 10.7403 54.0979 10.7923L50.8437 12.3464C50.5577 12.483 50.2341 12.2486 50.2746 11.9343L50.739 8.33385C50.7543 8.2152 50.7157 8.09594 50.6338 8.00876L48.1529 5.36876C47.9365 5.13856 48.0599 4.76023 48.3703 4.70175L51.9158 4.03377C52.0341 4.01148 52.1361 3.93712 52.1934 3.83131L53.9187 0.648713Z" fill="#D9D9D9"/>
</g>
<path d="M38.1491 0.648713C38.3005 0.369548 38.7011 0.369547 38.8524 0.648712L40.5777 3.83131C40.635 3.93712 40.737 4.01148 40.8553 4.03377L44.4008 4.70175C44.7112 4.76023 44.8346 5.13856 44.6182 5.36876L42.1373 8.00876C42.0554 8.09594 42.0168 8.2152 42.0321 8.33385L42.4965 11.9343C42.537 12.2486 42.2134 12.483 41.9274 12.3464L38.6732 10.7923C38.5641 10.7403 38.4374 10.7403 38.3284 10.7923L35.0742 12.3464C34.7882 12.483 34.4645 12.2486 34.5051 11.9343L34.9695 8.33385C34.9848 8.2152 34.9462 8.09594 34.8642 8.00876L32.3833 5.36876C32.167 5.13856 32.2903 4.76023 32.6008 4.70175L36.1463 4.03377C36.2646 4.01148 36.3665 3.93712 36.4239 3.83131L38.1491 0.648713Z" fill="#7A53EC"/>
<path d="M22.3776 0.648713C22.529 0.369548 22.9296 0.369547 23.081 0.648712L24.8062 3.83131C24.8635 3.93712 24.9655 4.01148 25.0838 4.03377L28.6293 4.70175C28.9397 4.76023 29.0631 5.13856 28.8468 5.36876L26.3659 8.00876C26.2839 8.09594 26.2453 8.2152 26.2606 8.33385L26.725 11.9343C26.7655 12.2486 26.4419 12.483 26.1559 12.3464L22.9017 10.7923C22.7927 10.7403 22.6659 10.7403 22.5569 10.7923L19.3027 12.3464C19.0167 12.483 18.6931 12.2486 18.7336 11.9343L19.198 8.33385C19.2133 8.2152 19.1747 8.09594 19.0928 8.00876L16.6118 5.36876C16.3955 5.13856 16.5189 4.76023 16.8293 4.70175L20.3748 4.03377C20.4931 4.01148 20.5951 3.93712 20.6524 3.83131L22.3776 0.648713Z" fill="#7A53EC"/>
<path d="M6.60616 0.648713C6.75749 0.369548 7.15814 0.369547 7.30947 0.648712L9.0347 3.83131C9.09206 3.93712 9.19402 4.01148 9.3123 4.03377L12.8578 4.70175C13.1683 4.76023 13.2916 5.13856 13.0753 5.36876L10.5944 8.00876C10.5124 8.09594 10.4738 8.2152 10.4891 8.33385L10.9535 11.9343C10.9941 12.2486 10.6704 12.483 10.3844 12.3464L7.1302 10.7923C7.02117 10.7403 6.89446 10.7403 6.78544 10.7923L3.5312 12.3464C3.24523 12.483 2.92157 12.2486 2.96211 11.9343L3.42649 8.33385C3.44179 8.2152 3.40319 8.09594 3.32127 8.00876L0.840363 5.36876C0.624041 5.13856 0.747369 4.76023 1.05779 4.70175L4.60333 4.03377C4.72161 4.01148 4.82357 3.93712 4.88093 3.83131L6.60616 0.648713Z" fill="#7A53EC"/>
<defs>
<filter id="filter0_d_6208_374941" x="63.8164" y="0.439453" width="12.4512" height="13.5468" filterUnits="userSpaceOnUse" color-interpolation-filters="sRGB">
<feFlood flood-opacity="0" result="BackgroundImageFix"/>
<feColorMatrix in="SourceAlpha" type="matrix" values="0 0 0 0 0 0 0 0 0 0 0 0 0 0 0 0 0 0 127 0" result="hardAlpha"/>
<feOffset dy="1.6"/>
<feComposite in2="hardAlpha" operator="out"/>
<feColorMatrix type="matrix" values="0 0 0 0 0.698991 0 0 0 0 0.698991 0 0 0 0 0.698991 0 0 0 0.1 0"/>
<feBlend mode="normal" in2="BackgroundImageFix" result="effect1_dropShadow_6208_374941"/>
<feBlend mode="normal" in="SourceGraphic" in2="effect1_dropShadow_6208_374941" result="shape"/>
</filter>
<filter id="filter1_d_6208_374941" x="48.0449" y="0.439453" width="12.4512" height="13.5468" filterUnits="userSpaceOnUse" color-interpolation-filters="sRGB">
<feFlood flood-opacity="0" result="BackgroundImageFix"/>
<feColorMatrix in="SourceAlpha" type="matrix" values="0 0 0 0 0 0 0 0 0 0 0 0 0 0 0 0 0 0 127 0" result="hardAlpha"/>
<feOffset dy="1.6"/>
<feComposite in2="hardAlpha" operator="out"/>
<feColorMatrix type="matrix" values="0 0 0 0 0.698991 0 0 0 0 0.698991 0 0 0 0 0.698991 0 0 0 0.1 0"/>
<feBlend mode="normal" in2="BackgroundImageFix" result="effect1_dropShadow_6208_374941"/>
<feBlend mode="normal" in="SourceGraphic" in2="effect1_dropShadow_6208_374941" result="shape"/>
</filter>
</defs>
</svg>
