<svg width="117" height="94" viewBox="0 0 117 94" fill="none" xmlns="http://www.w3.org/2000/svg">
<rect width="117" height="94" rx="12" fill="#F9F9F9"/>
<g filter="url(#filter0_d_5161_188396)">
<rect x="24" y="18" width="69" height="58" rx="8" fill="white"/>
</g>
<path d="M60.625 30H49.25C48.388 30 47.5614 30.3582 46.9519 30.9958C46.3424 31.6335 46 32.4983 46 33.4V60.6C46 61.5017 46.3424 62.3665 46.9519 63.0042C47.5614 63.6418 48.388 64 49.25 64H68.75C69.612 64 70.4386 63.6418 71.0481 63.0042C71.6576 62.3665 72 61.5017 72 60.6V41.9L60.625 30Z" fill="#E9E9E9"/>
<path d="M60.5 39.0023V30L72 42H63.5C61.8431 42 60.5 40.6591 60.5 39.0023Z" fill="#7A53EC"/>
<g filter="url(#filter1_d_5161_188396)">
<path d="M66 17C66 12.5817 69.5817 9 74 9H92C96.4183 9 100 12.5817 100 17V22C100 26.4183 96.4183 30 92 30H66V17Z" fill="#FF44BF"/>
</g>
<path d="M79 16.8571L83 13M83 13L87 16.8571M83 13V22" stroke="white" stroke-width="2" stroke-linecap="round" stroke-linejoin="round"/>
<path d="M77 22V24C77 25.1046 77.8954 26 79 26H87C88.1046 26 89 25.1046 89 24V22" stroke="white" stroke-width="2" stroke-linecap="round" stroke-linejoin="round"/>
<defs>
<filter id="filter0_d_5161_188396" x="24" y="18" width="69" height="62" filterUnits="userSpaceOnUse" color-interpolation-filters="sRGB">
<feFlood flood-opacity="0" result="BackgroundImageFix"/>
<feColorMatrix in="SourceAlpha" type="matrix" values="0 0 0 0 0 0 0 0 0 0 0 0 0 0 0 0 0 0 127 0" result="hardAlpha"/>
<feOffset dy="4"/>
<feComposite in2="hardAlpha" operator="out"/>
<feColorMatrix type="matrix" values="0 0 0 0 0.603922 0 0 0 0 0.603922 0 0 0 0 0.603922 0 0 0 0.1 0"/>
<feBlend mode="normal" in2="BackgroundImageFix" result="effect1_dropShadow_5161_188396"/>
<feBlend mode="normal" in="SourceGraphic" in2="effect1_dropShadow_5161_188396" result="shape"/>
</filter>
<filter id="filter1_d_5161_188396" x="66" y="9" width="34" height="25" filterUnits="userSpaceOnUse" color-interpolation-filters="sRGB">
<feFlood flood-opacity="0" result="BackgroundImageFix"/>
<feColorMatrix in="SourceAlpha" type="matrix" values="0 0 0 0 0 0 0 0 0 0 0 0 0 0 0 0 0 0 127 0" result="hardAlpha"/>
<feOffset dy="4"/>
<feComposite in2="hardAlpha" operator="out"/>
<feColorMatrix type="matrix" values="0 0 0 0 0.762809 0 0 0 0 0.120455 0 0 0 0 0.42022 0 0 0 0.1 0"/>
<feBlend mode="normal" in2="BackgroundImageFix" result="effect1_dropShadow_5161_188396"/>
<feBlend mode="normal" in="SourceGraphic" in2="effect1_dropShadow_5161_188396" result="shape"/>
</filter>
</defs>
</svg>
