<svg width="13" height="13" viewBox="0 0 13 13" fill="none" xmlns="http://www.w3.org/2000/svg">
<path d="M9.0332 0C9.75089 0.000263791 10.3339 0.582088 10.334 1.2998V2.66699H12.5C12.7761 2.66706 13 2.89089 13 3.16699C12.9997 3.44287 12.7759 3.66693 12.5 3.66699H12.2881L11.5801 11.0996C11.4773 12.177 10.5724 12.9996 9.49023 13H3.51074C2.42819 13 1.52274 12.1772 1.41992 11.0996L0.711914 3.66699H0.5C0.22402 3.66699 0.000263764 3.44291 0 3.16699C0 2.89085 0.223858 2.66699 0.5 2.66699H2.66699V1.2998C2.6671 0.58199 3.24898 0.000105572 3.9668 0H9.0332ZM2.41602 11.0049C2.47001 11.5692 2.94379 12 3.51074 12H9.49023C10.0569 11.9996 10.531 11.569 10.585 11.0049L11.2842 3.66699H1.7168L2.41602 11.0049ZM7.86035 5.22363C8.05591 5.029 8.37296 5.02876 8.56836 5.22363C8.76371 5.4185 8.76347 5.73467 8.56836 5.92969L7.20312 7.29102L8.56836 8.65234C8.76358 8.84732 8.76365 9.16347 8.56836 9.3584C8.37291 9.55333 8.05589 9.55318 7.86035 9.3584L6.49512 7.99707L5.13965 9.34961C4.94417 9.54429 4.6271 9.54432 4.43164 9.34961C4.23612 9.15461 4.23612 8.83758 4.43164 8.64258L5.78613 7.29102L4.43164 5.93945C4.23618 5.74451 4.2363 5.42841 4.43164 5.2334C4.62716 5.0384 4.94412 5.0384 5.13965 5.2334L6.49414 6.58496L7.86035 5.22363ZM3.9668 1C3.80127 1.00011 3.6671 1.13427 3.66699 1.2998V2.66699H9.33398V1.2998C9.33388 1.13437 9.1986 1.00026 9.0332 1H3.9668Z" fill="#3A3A3A"/>
</svg>
