<svg width="136" height="28" viewBox="0 0 136 28" fill="none" xmlns="http://www.w3.org/2000/svg">
            <g clip-path="url(#clip0_5078_158935)">
              <path d="M8.12934 9.71899H19.6739C24.6828 9.71899 28.7435 13.8112 28.7435 18.8595C28.7435 23.9075 24.6831 27.9999 19.6739 27.9999H2.71094L5.84544 12.0205C6.13798 10.7539 6.86803 9.71875 8.12934 9.71875V9.71899Z" fill="url(#paint0_linear_5078_158935)"/>
              <g style="mix-blend-mode:multiply">
                <path d="M20.6142 18.281H9.06959C4.06045 18.281 0 14.1885 0 9.14048C0 4.09219 4.06045 0 9.06959 0H26.0324L22.8979 15.9792C22.6053 17.2458 21.8753 18.281 20.614 18.281H20.6142Z" fill="#59259F"/>
              </g>
            </g>
            <path d="M136.001 5.72985V22.1013C136.001 22.591 135.609 22.9864 135.124 22.9864H133.61C133.125 22.9864 132.734 22.591 132.734 22.1013V15.5633H122.72C122.235 15.5633 121.844 15.168 121.844 14.6782V13.1499C121.844 12.6602 122.235 12.2648 122.72 12.2648H132.734V5.7269C132.734 5.23714 133.125 4.8418 133.61 4.8418H135.124C135.609 4.8418 136.001 5.23714 136.001 5.7269V5.72985Z" fill="#471596"/>
            <path d="M111.852 4.84414C112.337 4.84414 112.728 5.23949 112.728 5.72924V7.25752C112.728 7.74727 112.337 8.14262 111.852 8.14262H107.01V8.13377H103.022C101.309 8.15442 99.8892 8.0187 98.5247 8.85955C95.8014 10.5648 95.2024 14.716 96.9497 17.3477C98.5334 19.8614 100.836 19.7079 103.562 19.6784C104.833 19.6784 106.3 19.6784 107.647 19.6784C108.673 19.6873 109.616 19.6666 110.362 19.6873H111.852C112.337 19.6873 112.728 20.0826 112.728 20.5724V22.1007C112.728 22.5904 112.337 22.9858 111.852 22.9858H107.01V22.974C104.789 22.9828 102.326 23.0153 100.415 22.9297C91.2607 22.2069 89.75 8.75334 98.0192 5.44306C99.9009 4.67302 101.526 4.8648 103.702 4.83529L111.852 4.84414Z" fill="#471596"/>
            <path d="M83.0659 8.14613H75.2847V22.1042C75.2847 22.5939 74.8932 22.9893 74.4081 22.9893H72.8946C72.4095 22.9893 72.018 22.5939 72.018 22.1042V8.14613H64.1813C63.6962 8.14613 63.3047 7.75078 63.3047 7.26103V5.73276C63.3047 5.243 63.6962 4.84766 64.1813 4.84766H83.0659C83.551 4.84766 83.9425 5.243 83.9425 5.73276V7.26103C83.9425 7.75078 83.551 8.14613 83.0659 8.14613Z" fill="#471596"/>
            <path d="M119.582 4.84375H118.103C117.619 4.84375 117.227 5.24002 117.227 5.72885V22.1003C117.227 22.5891 117.619 22.9854 118.103 22.9854H119.582C120.066 22.9854 120.458 22.5891 120.458 22.1003V5.72885C120.458 5.24002 120.066 4.84375 119.582 4.84375Z" fill="#471596"/>
            <path d="M89.0739 4.84375H87.5953C87.1112 4.84375 86.7188 5.24002 86.7188 5.72885V22.1003C86.7188 22.5891 87.1112 22.9854 87.5953 22.9854H89.0739C89.558 22.9854 89.9504 22.5891 89.9504 22.1003V5.72885C89.9504 5.24002 89.558 4.84375 89.0739 4.84375Z" fill="#471596"/>
            <path d="M55.0477 23.121H42.1998C41.7148 23.121 41.3232 22.7257 41.3232 22.2359V20.7843C41.3232 20.2946 41.7148 19.8992 42.1998 19.8992H55.0477C56.1054 19.8992 56.9616 19.0348 56.9616 17.9668V17.4032C56.9616 16.3352 56.1054 15.4708 55.0477 15.4708H46.4279C43.6082 15.4708 41.3203 13.1636 41.3203 10.3136V10.1513C41.3203 7.30425 43.6053 4.99414 46.4279 4.99414H59.2758C59.7608 4.99414 60.1524 5.38949 60.1524 5.87924V7.3308C60.1524 7.82056 59.7608 8.2159 59.2758 8.2159H46.4279C45.3702 8.2159 44.514 9.08035 44.514 10.1484V10.3106C44.514 11.3787 45.3702 12.2431 46.4279 12.2431H55.0477C57.8674 12.2431 60.1553 14.5532 60.1553 17.4003V17.9638C60.1553 20.8109 57.8674 23.121 55.0477 23.121Z" fill="#471596"/>
            <defs>
              <linearGradient id="paint0_linear_5078_158935" x1="2.71094" y1="18.8638" x2="28.7435" y2="18.8638" gradientUnits="userSpaceOnUse">
                <stop stop-color="#9280FF" stop-opacity="0.3"/>
                <stop offset="1" stop-color="#9280FF"/>
              </linearGradient>
              <clipPath id="clip0_5078_158935">
                <rect width="28.744" height="28" fill="white"/>
              </clipPath>
            </defs>
          </svg>