<svg width="117" height="94" viewBox="0 0 117 94" fill="none" xmlns="http://www.w3.org/2000/svg">
<rect width="117" height="94" rx="12" fill="#F9F9F9"/>
<g filter="url(#filter0_d_5161_188267)">
<rect x="24" y="12" width="69" height="70" rx="8" fill="white"/>
</g>
<path fill-rule="evenodd" clip-rule="evenodd" d="M75.9362 34.8291C75.6519 34.5451 75.3105 34.3249 74.9346 34.1829C74.5587 34.0409 74.157 33.9805 73.7559 34.0055C73.3549 34.0306 72.9638 34.1406 72.6085 34.3282C72.2532 34.5158 71.9419 34.7769 71.6951 35.094L68.7783 38.8414C68.2437 39.5288 68.0552 40.4242 68.2664 41.2692L69.1553 44.8281C69.2009 45.0125 69.1983 45.2055 69.1476 45.3885C69.097 45.5716 69 45.7384 68.8661 45.8731L64.8736 49.8659C64.7388 50.0001 64.5716 50.0972 64.3883 50.1479C64.205 50.1986 64.0117 50.2011 63.8271 50.1551L60.2701 49.2662C59.853 49.1626 59.4179 49.1548 58.9975 49.2434C58.577 49.3321 58.1821 49.5149 57.8424 49.7781L54.0953 52.6935C52.7482 53.7417 52.6247 55.7324 53.8304 56.9366L55.5106 58.6169C56.7131 59.8195 58.5103 60.3476 60.1856 59.7577C64.4743 58.2506 68.3679 55.7954 71.5765 52.5749C74.7965 49.3666 77.2515 45.4733 78.7587 41.1847C79.347 39.5109 78.8189 37.7119 77.6164 36.5094L75.9362 34.8291Z" fill="#7A53EC"/>
<path d="M32 12C27.5817 12 24 15.5817 24 20L24 74C24 78.4183 27.5817 82 32 82L40 82L40 12L32 12Z" fill="#E9E9E9"/>
<rect width="8" height="4" rx="2" transform="matrix(1 -1.5299e-07 -4.99559e-08 -1 19 31)" fill="#5E5E5E"/>
<rect width="6" height="6" rx="3" transform="matrix(1 -1.5299e-07 -4.99559e-08 -1 24 32)" fill="#5E5E5E"/>
<rect width="8" height="4" rx="2" transform="matrix(1 -1.5299e-07 -4.99559e-08 -1 19 43)" fill="#5E5E5E"/>
<rect width="6" height="6" rx="3" transform="matrix(1 -1.5299e-07 -4.99559e-08 -1 24 44)" fill="#5E5E5E"/>
<rect width="6" height="6" rx="3" transform="matrix(1 -1.5299e-07 -4.99559e-08 -1 24 56)" fill="#5E5E5E"/>
<rect width="8" height="4" rx="2" transform="matrix(1 -1.5299e-07 -4.99559e-08 -1 19 55)" fill="#5E5E5E"/>
<rect width="6" height="6" rx="3" transform="matrix(1 -1.5299e-07 -4.99559e-08 -1 24 68)" fill="#5E5E5E"/>
<rect width="8" height="4" rx="2" transform="matrix(1 -1.5299e-07 -4.99559e-08 -1 19 67)" fill="#5E5E5E"/>
<g filter="url(#filter1_d_5161_188267)">
<path d="M66 17C66 12.5817 69.5817 9 74 9H92C96.4183 9 100 12.5817 100 17V22C100 26.4183 96.4183 30 92 30H66V17Z" fill="#FF44BF"/>
</g>
<path d="M75.2192 18.114C74.8978 17.8178 74.9305 17.3215 75.3129 17.0925C77.6008 15.7233 80.2712 14.9963 82.9991 15C85.8335 15 88.4744 15.7679 90.6853 17.0925C90.7738 17.1475 90.8477 17.2201 90.9018 17.3049C90.9558 17.3897 90.9885 17.4846 90.9975 17.5826C91.0065 17.6805 90.9915 17.7792 90.9537 17.8711C90.9159 17.9631 90.8562 18.0461 90.7791 18.114C90.6523 18.228 90.4872 18.299 90.311 18.3152C90.1347 18.3313 89.9577 18.2918 89.809 18.2031C87.7766 17.0034 85.4127 16.3675 82.9991 16.3712C80.5855 16.3675 78.2217 17.0034 76.1892 18.2031C75.8842 18.3841 75.4751 18.3512 75.2192 18.114ZM78.4671 21.1073C78.1309 20.7974 78.1919 20.2777 78.6159 20.0789C79.9741 19.4435 81.476 19.1128 82.9991 19.1136C84.5762 19.1136 86.0671 19.4619 87.3823 20.0789C87.8064 20.2777 87.8674 20.7974 87.5311 21.1073L87.5088 21.1279C87.2707 21.3473 86.9017 21.3884 86.5997 21.2513C85.4786 20.7461 84.247 20.4839 82.9991 20.4848C81.7077 20.4848 80.4847 20.7604 79.3985 21.2527C79.0965 21.3898 78.729 21.3487 78.4895 21.1279L78.4671 21.1073ZM81.422 23.8305C81.1304 23.5618 81.1274 23.1175 81.4815 22.9255C81.9408 22.6744 82.465 22.5417 82.9991 22.5416C83.5332 22.5417 84.0574 22.6744 84.5167 22.9255C84.8708 23.1175 84.8679 23.5618 84.5762 23.8305L83.5258 24.7986C83.4567 24.8624 83.3746 24.9131 83.2842 24.9476C83.1939 24.9822 83.097 25 82.9991 25C82.9013 25 82.8044 24.9822 82.714 24.9476C82.6236 24.9131 82.5415 24.8624 82.4724 24.7986L81.4205 23.8291L81.422 23.8305Z" fill="white"/>
<defs>
<filter id="filter0_d_5161_188267" x="24" y="12" width="69" height="74" filterUnits="userSpaceOnUse" color-interpolation-filters="sRGB">
<feFlood flood-opacity="0" result="BackgroundImageFix"/>
<feColorMatrix in="SourceAlpha" type="matrix" values="0 0 0 0 0 0 0 0 0 0 0 0 0 0 0 0 0 0 127 0" result="hardAlpha"/>
<feOffset dy="4"/>
<feComposite in2="hardAlpha" operator="out"/>
<feColorMatrix type="matrix" values="0 0 0 0 0.603922 0 0 0 0 0.603922 0 0 0 0 0.603922 0 0 0 0.1 0"/>
<feBlend mode="normal" in2="BackgroundImageFix" result="effect1_dropShadow_5161_188267"/>
<feBlend mode="normal" in="SourceGraphic" in2="effect1_dropShadow_5161_188267" result="shape"/>
</filter>
<filter id="filter1_d_5161_188267" x="66" y="9" width="34" height="25" filterUnits="userSpaceOnUse" color-interpolation-filters="sRGB">
<feFlood flood-opacity="0" result="BackgroundImageFix"/>
<feColorMatrix in="SourceAlpha" type="matrix" values="0 0 0 0 0 0 0 0 0 0 0 0 0 0 0 0 0 0 127 0" result="hardAlpha"/>
<feOffset dy="4"/>
<feComposite in2="hardAlpha" operator="out"/>
<feColorMatrix type="matrix" values="0 0 0 0 0.762809 0 0 0 0 0.120455 0 0 0 0 0.42022 0 0 0 0.1 0"/>
<feBlend mode="normal" in2="BackgroundImageFix" result="effect1_dropShadow_5161_188267"/>
<feBlend mode="normal" in="SourceGraphic" in2="effect1_dropShadow_5161_188267" result="shape"/>
</filter>
</defs>
</svg>
