<svg width="14" height="14" viewBox="0 0 14 14" fill="none" xmlns="http://www.w3.org/2000/svg">
<mask id="path-1-inside-1_6714_58221" fill="white">
<path d="M2.66667 10.667H1.33333C0.979711 10.667 0.640573 10.5265 0.390524 10.2765C0.140476 10.0264 0 9.68728 0 9.33366V6.00033C0 5.6467 0.140476 5.30757 0.390524 5.05752C0.640573 4.80747 0.979711 4.66699 1.33333 4.66699H12C12.3536 4.66699 12.6928 4.80747 12.9428 5.05752C13.1929 5.30757 13.3333 5.6467 13.3333 6.00033V9.33366C13.3333 9.68728 13.1929 10.0264 12.9428 10.2765C12.6928 10.5265 12.3536 10.667 12 10.667H10.6667"/>
</mask>
<path d="M2.66667 11.667C3.21895 11.667 3.66667 11.2193 3.66667 10.667C3.66667 10.1147 3.21895 9.66699 2.66667 9.66699V10.667V11.667ZM0 9.33366H-1H0ZM1.33333 4.66699V5.66699V4.66699ZM10.6667 9.66699C10.1144 9.66699 9.66667 10.1147 9.66667 10.667C9.66667 11.2193 10.1144 11.667 10.6667 11.667V10.667V9.66699ZM2.66667 10.667V9.66699H1.33333V10.667V11.667H2.66667V10.667ZM1.33333 10.667V9.66699C1.24493 9.66699 1.16014 9.63187 1.09763 9.56936L0.390524 10.2765L-0.316583 10.9836C0.121002 11.4212 0.714494 11.667 1.33333 11.667V10.667ZM0.390524 10.2765L1.09763 9.56936C1.03512 9.50685 1 9.42206 1 9.33366H0H-1C-1 9.9525 -0.754167 10.546 -0.316583 10.9836L0.390524 10.2765ZM0 9.33366H1V6.00033H0H-1V9.33366H0ZM0 6.00033H1C1 5.91192 1.03512 5.82714 1.09763 5.76462L0.390524 5.05752L-0.316583 4.35041C-0.754167 4.78799 -1 5.38149 -1 6.00033H0ZM0.390524 5.05752L1.09763 5.76462C1.16014 5.70211 1.24493 5.66699 1.33333 5.66699V4.66699V3.66699C0.714494 3.66699 0.121002 3.91283 -0.316583 4.35041L0.390524 5.05752ZM1.33333 4.66699V5.66699H12V4.66699V3.66699H1.33333V4.66699ZM12 4.66699V5.66699C12.0884 5.66699 12.1732 5.70211 12.2357 5.76462L12.9428 5.05752L13.6499 4.35041C13.2123 3.91283 12.6188 3.66699 12 3.66699V4.66699ZM12.9428 5.05752L12.2357 5.76462C12.2982 5.82714 12.3333 5.91192 12.3333 6.00033H13.3333H14.3333C14.3333 5.38149 14.0875 4.78799 13.6499 4.35041L12.9428 5.05752ZM13.3333 6.00033H12.3333V9.33366H13.3333H14.3333V6.00033H13.3333ZM13.3333 9.33366H12.3333C12.3333 9.42206 12.2982 9.50685 12.2357 9.56936L12.9428 10.2765L13.6499 10.9836C14.0875 10.546 14.3333 9.9525 14.3333 9.33366H13.3333ZM12.9428 10.2765L12.2357 9.56936C12.1732 9.63187 12.0884 9.66699 12 9.66699V10.667V11.667C12.6188 11.667 13.2123 11.4212 13.6499 10.9836L12.9428 10.2765ZM12 10.667V9.66699H10.6667V10.667V11.667H12V10.667Z" fill="white" mask="url(#path-1-inside-1_6714_58221)"/>
<path d="M3.99902 8.5H9.33301C9.79299 8.50018 10.1658 8.87303 10.166 9.33301V12C10.166 12.4601 9.79309 12.8328 9.33301 12.833H3.99902C3.53894 12.8328 3.16602 12.4601 3.16602 12V9.33301C3.16618 8.9017 3.49398 8.54659 3.91406 8.50391L3.99902 8.5Z" stroke="white" stroke-linecap="round" stroke-linejoin="round"/>
<mask id="path-4-inside-2_6714_58221" fill="white">
<path d="M2.66602 4.66667V1.33333C2.66602 0.596953 3.26297 0 3.99935 0H9.33268C10.0691 0 10.666 0.596954 10.666 1.33333V4.66667"/>
</mask>
<path d="M1.66602 4.66667C1.66602 5.21895 2.11373 5.66667 2.66602 5.66667C3.2183 5.66667 3.66602 5.21895 3.66602 4.66667H2.66602H1.66602ZM9.66602 4.66667C9.66602 5.21895 10.1137 5.66667 10.666 5.66667C11.2183 5.66667 11.666 5.21895 11.666 4.66667H10.666H9.66602ZM2.66602 4.66667H3.66602V1.33333H2.66602H1.66602V4.66667H2.66602ZM3.99935 0V1H9.33268V0V-1H3.99935V0ZM10.666 1.33333H9.66602V4.66667H10.666H11.666V1.33333H10.666ZM9.33268 0V1C9.51678 1 9.66602 1.14924 9.66602 1.33333H10.666H11.666C11.666 0.0446687 10.6213 -1 9.33268 -1V0ZM2.66602 1.33333H3.66602C3.66602 1.14924 3.81525 1 3.99935 1V0V-1C2.71069 -1 1.66602 0.044668 1.66602 1.33333H2.66602Z" fill="white" mask="url(#path-4-inside-2_6714_58221)"/>
</svg>
