<svg width="8" height="14" viewBox="0 0 8 14" fill="none" xmlns="http://www.w3.org/2000/svg">
<path d="M1.70605 0.292969C1.31553 -0.0975015 0.682498 -0.0975375 0.291992 0.292969C-0.0984602 0.683479 -0.0984602 1.31652 0.291992 1.70703L5.24121 6.65625L0.291992 11.6055C-0.098309 11.996 -0.0984097 12.6291 0.291992 13.0195C0.682448 13.41 1.31551 13.4099 1.70605 13.0195L7.34473 7.38086C7.35072 7.37516 7.3574 7.37014 7.36328 7.36426C7.68062 7.04692 7.7404 6.5688 7.54199 6.19141C7.49617 6.104 7.43675 6.02171 7.36328 5.94824C7.35724 5.9422 7.35088 5.93652 7.34473 5.93066L1.70605 0.292969Z" fill="#7A53EC"/>
<path d="M1.70605 0.292969C1.31553 -0.0975015 0.682498 -0.0975375 0.291992 0.292969C-0.0984602 0.683479 -0.0984602 1.31652 0.291992 1.70703L5.24121 6.65625L0.291992 11.6055C-0.098309 11.996 -0.0984097 12.6291 0.291992 13.0195C0.682448 13.41 1.31551 13.4099 1.70605 13.0195L7.34473 7.38086C7.35072 7.37516 7.3574 7.37014 7.36328 7.36426C7.68062 7.04692 7.7404 6.5688 7.54199 6.19141C7.49617 6.104 7.43675 6.02171 7.36328 5.94824C7.35724 5.9422 7.35088 5.93652 7.34473 5.93066L1.70605 0.292969Z" fill="#7A53EC"/>
</svg>
