<svg width="16" height="16" viewBox="0 0 16 16" fill="none" xmlns="http://www.w3.org/2000/svg">
<path fill-rule="evenodd" clip-rule="evenodd" d="M12.7998 1.5C13.7387 1.5 14.5 2.26131 14.5 3.2002V9.7998C14.5 10.7387 13.7387 11.5 12.7998 11.5H12V12.4004L11.9922 12.5635C11.9158 13.3166 11.3166 13.9158 10.5635 13.9922L10.4004 14H3.59961C2.7713 13.9998 2.08966 13.3702 2.00781 12.5635L2 12.4004V5.59961C2.00021 4.71626 2.71626 4.00021 3.59961 4H4.5V3.2002C4.5 2.26131 5.26131 1.5 6.2002 1.5H12.7998ZM3.59961 5C3.26855 5.00021 3.00021 5.26855 3 5.59961V12.4004C3.00021 12.7315 3.26855 12.9998 3.59961 13H10.4004C10.7315 12.9998 10.9998 12.7315 11 12.4004V5.59961C10.9998 5.26855 10.7315 5.00021 10.4004 5H3.59961ZM6.2002 2.5C5.8136 2.5 5.5 2.8136 5.5 3.2002V4H10.4004L10.5635 4.00781C11.3702 4.08966 11.9998 4.7713 12 5.59961V10.5H12.7998C13.1864 10.5 13.5 10.1864 13.5 9.7998V3.2002C13.5 2.8136 13.1864 2.5 12.7998 2.5H6.2002Z" fill="#3A3A3A"/>
</svg>
