<svg width="160" height="160" viewBox="0 0 160 160" fill="none" xmlns="http://www.w3.org/2000/svg">
                <circle cx="80" cy="80" r="79.5" fill="#F9F9F9" stroke="#EAEAEA"/>
                <circle cx="80" cy="61" r="18" fill="#D9D9D9" stroke="#3A3A3A" stroke-width="4"/>
                <path d="M80 79C88.6141 79 95.0285 82.9854 99.3604 89.1865C103.737 95.452 106 104.023 106 113C106 113.778 105.998 114.331 105.954 114.791C105.911 115.239 105.84 115.446 105.787 115.548C105.761 115.598 105.618 115.965 104.081 116.294C102.536 116.625 100.084 116.813 96.1396 116.907C92.2318 117 87.0104 117 80 117C72.9896 117 67.7682 117 63.8604 116.907C59.9161 116.813 57.4637 116.625 55.9189 116.294C54.3825 115.965 54.2389 115.598 54.2129 115.548C54.16 115.446 54.0886 115.239 54.0459 114.791C54.0021 114.331 54 113.778 54 113C54 104.023 56.2629 95.452 60.6396 89.1865C64.9715 82.9854 71.3859 79 80 79Z" fill="white" stroke="#3A3A3A" stroke-width="4"/>
                </svg>