<svg width="16" height="22" viewBox="0 0 16 22" fill="none" xmlns="http://www.w3.org/2000/svg">
  <circle cx="7.91986" cy="5.93939" r="4.87234" fill="#D9D9D9" stroke="#3A3A3A" stroke-width="2.13411"/>
  <path d="M7.91895 10.9678C10.1748 10.9678 11.8421 12.0003 12.9834 13.6338C14.1486 15.3018 14.7715 17.6186 14.7715 20.082C14.7715 20.2698 14.7684 20.3915 14.7627 20.4854C14.7271 20.4957 14.6826 20.5111 14.625 20.5234C14.2396 20.606 13.5889 20.6589 12.4717 20.6855C11.3739 20.7117 9.90414 20.7119 7.91895 20.7119C5.93364 20.7119 4.46401 20.7117 3.36621 20.6855C2.24936 20.659 1.59932 20.606 1.21387 20.5234C1.15614 20.5111 1.11087 20.4967 1.0752 20.4863C1.06944 20.3923 1.06738 20.2705 1.06738 20.082C1.06741 17.6186 1.68931 15.3018 2.85449 13.6338C3.9957 12.0003 5.66316 10.9678 7.91895 10.9678Z" fill="white" stroke="#3A3A3A" stroke-width="2.13411"/>
  </svg>