<svg width="110" height="30" viewBox="0 0 110 30" fill="none" xmlns="http://www.w3.org/2000/svg">
        <rect width="110" height="30" fill="white" />
        <g clip-path="url(#clip0_5387_175951)">
          <path
            d="M12.781 11.9455H20.9867C24.547 11.9455 27.4333 14.8685 27.4333 18.4744C27.4333 22.0801 24.5471 25.0033 20.9867 25.0033H8.92969L11.1576 13.5894C11.3656 12.6847 11.8845 11.9453 12.781 11.9453V11.9455Z"
            fill="url(#paint0_linear_5387_175951)" />
          <g style="mix-blend-mode:multiply">
            <path
              d="M21.6522 18.0578H13.4465C9.88611 18.0578 7 15.1347 7 11.5289C7 7.923 9.88611 5 13.4465 5H25.5034L23.2754 16.4137C23.0675 17.3184 22.5486 18.0578 21.6521 18.0578H21.6522Z"
              fill="#59259F" />
          </g>
        </g>
        <path
          d="M103.664 9.09526V20.7891C103.664 21.1389 103.386 21.4213 103.041 21.4213H101.965C101.62 21.4213 101.342 21.1389 101.342 20.7891V16.1192H94.2246C93.8799 16.1192 93.6016 15.8368 93.6016 15.4869V14.3953C93.6016 14.0455 93.8799 13.7631 94.2246 13.7631H101.342V9.09315C101.342 8.74333 101.62 8.46094 101.965 8.46094H103.041C103.386 8.46094 103.664 8.74333 103.664 9.09315V9.09526Z"
          fill="#471596" />
        <path
          d="M86.503 8.46429C86.8478 8.46429 87.1261 8.74668 87.1261 9.0965V10.1881C87.1261 10.538 86.8478 10.8203 86.503 10.8203H83.0616V10.814H80.2267C79.0096 10.8288 78.0003 10.7318 77.0304 11.3324C75.0947 12.5505 74.6689 15.5156 75.9109 17.3954C77.0366 19.1909 78.6732 19.0813 80.6109 19.0602C81.5144 19.0602 82.557 19.0602 83.5144 19.0602C84.2434 19.0665 84.9142 19.0518 85.4438 19.0665H86.503C86.8478 19.0665 87.1261 19.3489 87.1261 19.6987V20.7904C87.1261 21.1402 86.8478 21.4226 86.503 21.4226H83.0616V21.4142C81.4832 21.4205 79.7324 21.4437 78.3741 21.3825C71.8672 20.8662 70.7935 11.2566 76.6711 8.89209C78.0086 8.34206 79.1633 8.47904 80.7106 8.45797L86.503 8.46429Z"
          fill="#471596" />
        <path
          d="M66.046 10.8248H60.5152V20.7948C60.5152 21.1447 60.2369 21.427 59.8922 21.427H58.8163C58.4716 21.427 58.1933 21.1447 58.1933 20.7948V10.8248H52.6231C52.2783 10.8248 52 10.5424 52 10.1926V9.10096C52 8.75114 52.2783 8.46875 52.6231 8.46875H66.046C66.3907 8.46875 66.669 8.75114 66.669 9.10096V10.1926C66.669 10.5424 66.3907 10.8248 66.046 10.8248Z"
          fill="#471596" />
        <path
          d="M91.9943 8.46484H90.9434C90.5993 8.46484 90.3203 8.7479 90.3203 9.09706V20.7909C90.3203 21.1401 90.5993 21.4231 90.9434 21.4231H91.9943C92.3384 21.4231 92.6173 21.1401 92.6173 20.7909V9.09706C92.6173 8.7479 92.3384 8.46484 91.9943 8.46484Z"
          fill="#471596" />
        <path
          d="M70.3146 8.46484H69.2637C68.9196 8.46484 68.6406 8.7479 68.6406 9.09706V20.7909C68.6406 21.1401 68.9196 21.4231 69.2637 21.4231H70.3146C70.6587 21.4231 70.9377 21.1401 70.9377 20.7909V9.09706C70.9377 8.7479 70.6587 8.46484 70.3146 8.46484Z"
          fill="#471596" />
        <path
          d="M46.1322 21.5181H37.0001C36.6554 21.5181 36.3771 21.2357 36.3771 20.8859V19.849C36.3771 19.4992 36.6554 19.2168 37.0001 19.2168H46.1322C46.884 19.2168 47.4926 18.5993 47.4926 17.8365V17.434C47.4926 16.6711 46.884 16.0536 46.1322 16.0536H40.0054C38.0012 16.0536 36.375 14.4057 36.375 12.3699V12.254C36.375 10.2204 37.9991 8.57031 40.0054 8.57031H49.1375C49.4822 8.57031 49.7605 8.8527 49.7605 9.20253V10.2394C49.7605 10.5892 49.4822 10.8716 49.1375 10.8716H40.0054C39.2536 10.8716 38.645 11.489 38.645 12.2519V12.3678C38.645 13.1307 39.2536 13.7481 40.0054 13.7481H46.1322C48.1364 13.7481 49.7626 15.3982 49.7626 17.4319V17.8344C49.7626 19.868 48.1364 21.5181 46.1322 21.5181Z"
          fill="#471596" />
        <defs>
          <linearGradient id="paint0_linear_5387_175951" x1="8.92969" y1="18.4775" x2="27.4333" y2="18.4775"
            gradientUnits="userSpaceOnUse">
            <stop stop-color="#9280FF" stop-opacity="0.3" />
            <stop offset="1" stop-color="#9280FF" />
          </linearGradient>
          <clipPath id="clip0_5387_175951">
            <rect width="20.4308" height="20" fill="white" transform="translate(7 5)" />
          </clipPath>
        </defs>
      </svg>