<svg width="12" height="12" viewBox="0 0 12 12" fill="none" xmlns="http://www.w3.org/2000/svg">
<path d="M6 0C9.31371 0 12 2.68629 12 6C12 9.31371 9.31371 12 6 12C2.68629 12 0 9.31371 0 6C0 2.68629 2.68629 0 6 0ZM6 1C3.23858 1 1 3.23858 1 6C1 8.76142 3.23858 11 6 11C8.76142 11 11 8.76142 11 6C11 3.23858 8.76142 1 6 1ZM7.64648 3.64648C7.84175 3.45122 8.15825 3.45122 8.35352 3.64648C8.54878 3.84175 8.54878 4.15825 8.35352 4.35352L6.70703 6L8.35352 7.64648L8.41797 7.72461C8.54613 7.91869 8.52438 8.18265 8.35352 8.35352C8.18265 8.52438 7.91869 8.54613 7.72461 8.41797L7.64648 8.35352L6 6.70703L4.35352 8.35352C4.15825 8.54878 3.84175 8.54878 3.64648 8.35352C3.45122 8.15825 3.45122 7.84175 3.64648 7.64648L5.29297 6L3.64648 4.35352C3.45122 4.15825 3.45122 3.84175 3.64648 3.64648C3.84175 3.45122 4.15825 3.45122 4.35352 3.64648L6 5.29297L7.64648 3.64648Z" fill="white"/>
</svg>
