<svg width="12" height="9" viewBox="0 0 12 9" fill="none" xmlns="http://www.w3.org/2000/svg">
<path d="M10.4004 3V4H1.59961V3H10.4004ZM11 2.40039V1.59961C10.9998 1.26855 10.7315 1.00021 10.4004 1H1.59961C1.26855 1.00021 1.00021 1.26855 1 1.59961V2.40039C1.00021 2.73145 1.26855 2.99979 1.59961 3V4C0.771305 3.9998 0.0896628 3.37023 0.0078125 2.56348L0 2.40039V1.59961C0.000211118 0.716264 0.716263 0.000211118 1.59961 0H10.4004L10.5635 0.0078125C11.3702 0.0896629 11.9998 0.771305 12 1.59961V2.40039L11.9922 2.56348C11.9158 3.31663 11.3166 3.91578 10.5635 3.99219L10.4004 4V3C10.7315 2.99979 10.9998 2.73145 11 2.40039Z" fill="#3A3A3A"/>
<path d="M10.4004 8V9H1.59961V8H10.4004ZM11 7.40039V6.59961C10.9998 6.26855 10.7315 6.00021 10.4004 6H1.59961C1.26855 6.00021 1.00021 6.26855 1 6.59961V7.40039C1.00021 7.73145 1.26855 7.99979 1.59961 8V9C0.771305 8.9998 0.0896628 8.37024 0.0078125 7.56348L0 7.40039V6.59961C0.000211118 5.71626 0.716263 5.00021 1.59961 5H10.4004L10.5635 5.00781C11.3702 5.08966 11.9998 5.7713 12 6.59961V7.40039L11.9922 7.56348C11.9158 8.31663 11.3166 8.91578 10.5635 8.99219L10.4004 9V8C10.7315 7.99979 10.9998 7.73145 11 7.40039Z" fill="#3A3A3A"/>
</svg>
