<svg width="12" height="12" viewBox="0 0 12 12" fill="none" xmlns="http://www.w3.org/2000/svg">
<path d="M6.50003 3.5C6.50003 2.94772 6.05231 2.5 5.50003 2.5C4.94774 2.5 4.50003 2.94772 4.50003 3.5C4.50003 4.05228 4.94774 4.5 5.50003 4.5V5.5C4.39546 5.5 3.50003 4.60457 3.50003 3.5C3.50003 2.39543 4.39546 1.5 5.50003 1.5C6.6046 1.5 7.50003 2.39543 7.50003 3.5C7.50003 4.60457 6.6046 5.5 5.50003 5.5V4.5C6.05231 4.5 6.50003 4.05228 6.50003 3.5Z" fill="#3A3A3A"/>
<path d="M5.50003 6.5C7.64439 6.5 9.43881 7.99991 9.89065 10.0078C10.0118 10.5466 9.55228 11 9.00003 11H2.00003C1.44777 11 0.988224 10.5466 1.1094 10.0078C1.56125 7.99991 3.35566 6.5 5.50003 6.5ZM5.50003 7.5C3.91556 7.5 2.57673 8.55426 2.14651 10H8.85354C8.42332 8.55426 7.0845 7.5 5.50003 7.5Z" fill="#3A3A3A"/>
<path d="M10 1C10.2762 1 10.5 1.22386 10.5 1.5V2H11C11.2762 2 11.5 2.22386 11.5 2.5C11.5 2.77614 11.2762 3 11 3H10.5V3.5C10.5 3.77614 10.2762 4 10 4C9.72389 4 9.50003 3.77614 9.50003 3.5V3H9.00003C8.72389 3 8.50003 2.77614 8.50003 2.5C8.50003 2.22386 8.72389 2 9.00003 2H9.50003V1.5C9.50003 1.22386 9.72389 1 10 1Z" fill="#3A3A3A"/>
</svg>
