<svg width="16" height="16" viewBox="0 0 16 16" fill="none" xmlns="http://www.w3.org/2000/svg">
<path d="M2.5 5.2002V3C2.5 2.72386 2.72386 2.5 3 2.5C3.27614 2.5 3.5 2.72386 3.5 3V5.2002C3.50011 5.36573 3.63427 5.49989 3.7998 5.5H6C6.27614 5.5 6.5 5.72386 6.5 6C6.5 6.27614 6.27614 6.5 6 6.5H3.7998C3.08199 6.49989 2.50011 5.91801 2.5 5.2002Z" fill="#3A3A3A"/>
<path d="M12.5 8C12.5 5.51861 10.4702 3.5 7.95801 3.5C6.55302 3.50013 5.29806 4.13152 4.46484 5.12402L4.15234 5.54688C3.98827 5.7688 3.67515 5.81618 3.45312 5.65234C3.2312 5.48827 3.18382 5.17515 3.34766 4.95312L3.66699 4.52051L3.67578 4.50977L3.68457 4.49805C4.70067 3.27784 6.23874 2.50013 7.95801 2.5C11.0146 2.5 13.5 4.95854 13.5 8C13.5 11.0415 11.0146 13.5 7.95801 13.5C5.24438 13.4998 2.98345 11.5628 2.50879 9C2.45854 8.7285 2.63768 8.46728 2.90918 8.41699C3.18059 8.3669 3.44094 8.54694 3.49121 8.81836C3.87871 10.9099 5.72941 12.4998 7.95801 12.5C10.4702 12.5 12.5 10.4814 12.5 8Z" fill="#3A3A3A"/>
</svg>
