<svg width="16" height="16" viewBox="0 0 16 16" fill="none" xmlns="http://www.w3.org/2000/svg">
<path d="M1.5 12.4006V10.0002C1.5 9.72402 1.72386 9.50016 2 9.50016C2.27614 9.50016 2.5 9.72402 2.5 10.0002V12.4006C2.50021 13.0078 2.99241 13.5 3.59961 13.5002H12.4004C13.0076 13.5 13.4998 13.0078 13.5 12.4006V10.0002C13.5 9.72402 13.7239 9.50016 14 9.50016C14.2761 9.50016 14.5 9.72402 14.5 10.0002V12.4006C14.4998 13.56 13.5599 14.5 12.4004 14.5002H3.59961C2.44012 14.5 1.50021 13.56 1.5 12.4006Z" fill="#3A3A3A"/>
<path d="M7.5 11.3335C7.5 11.6096 7.72386 11.8335 8 11.8335C8.27614 11.8335 8.5 11.6096 8.5 11.3335V3.23975L10.6396 5.4585C10.8313 5.65721 11.1479 5.66268 11.3467 5.47119C11.5454 5.27957 11.5518 4.96295 11.3604 4.76416L8.36035 1.65283C8.26612 1.55511 8.13576 1.50049 8 1.50049C7.86424 1.50049 7.73388 1.55511 7.63965 1.65283L4.63965 4.76416L5 5.11084L5.36035 5.4585L7.5 3.23975V11.3335ZM4.65332 5.47119C4.85211 5.66268 5.16874 5.65721 5.36035 5.4585L4.63965 4.76416C4.44816 4.96295 4.4546 5.27957 4.65332 5.47119Z" fill="#3A3A3A"/>
</svg>
