<svg width="12" height="12" viewBox="0 0 12 12" fill="none" xmlns="http://www.w3.org/2000/svg">
<path d="M6.9375 4.24805H8.31641L6.9375 2.8291V4.24805ZM10 9.69727C10 10.064 9.85869 10.4191 9.60254 10.6826C9.34583 10.9467 8.99429 11.0977 8.625 11.0977H3.375C3.00571 11.0977 2.65417 10.9467 2.39746 10.6826C2.14131 10.4191 2 10.064 2 9.69727V2.49805C2 2.13129 2.14131 1.77624 2.39746 1.5127C2.65417 1.24865 3.00571 1.09766 3.375 1.09766H6.4375C6.5725 1.09766 6.70177 1.15225 6.7959 1.24902L9.8584 4.39941C9.94907 4.49273 10 4.61792 10 4.74805V9.69727ZM3 9.69727C3 9.80783 3.04329 9.91135 3.11523 9.98535C3.1867 10.0588 3.28022 10.0977 3.375 10.0977H8.625C8.71978 10.0977 8.8133 10.0588 8.88477 9.98535C8.95671 9.91135 9 9.80783 9 9.69727V5.24805H6.4375C6.16149 5.24805 5.93771 5.02401 5.9375 4.74805V2.09766H3.375C3.28022 2.09766 3.1867 2.13653 3.11523 2.20996C3.04329 2.28396 3 2.38749 3 2.49805V9.69727Z" fill="#3A3A3A"/>
</svg>
