<svg width="24" height="24" viewBox="0 0 24 24" fill="none" xmlns="http://www.w3.org/2000/svg">
<path d="M14.4992 7C14.4992 5.61929 13.3799 4.5 11.9992 4.5C10.6185 4.5 9.4992 5.61929 9.4992 7C9.4992 8.38071 10.6185 9.5 11.9992 9.5V11C9.79006 11 7.9992 9.20914 7.9992 7C7.9992 4.79086 9.79006 3 11.9992 3C14.2083 3 15.9992 4.79086 15.9992 7C15.9992 9.20914 14.2083 11 11.9992 11V9.5C13.3799 9.5 14.4992 8.38071 14.4992 7Z" fill="#3A3A3A"/>
<path d="M19.9992 20.5V22H3.9992V20.5H19.9992ZM11.9992 12C16.8416 12 20.8803 15.4419 21.8019 20.0127C22.0202 21.0955 21.1038 22 19.9992 22V20.5C20.1463 20.5 20.2534 20.4385 20.3039 20.3848C20.3262 20.3609 20.3321 20.3451 20.3332 20.3418C20.3337 20.34 20.334 20.3378 20.3342 20.335C20.3343 20.332 20.3341 20.3239 20.3312 20.3096C19.548 16.425 16.1135 13.5 11.9992 13.5C7.88487 13.5 4.45039 16.425 3.66716 20.3096C3.66429 20.3239 3.66411 20.332 3.66423 20.335C3.66437 20.3378 3.66467 20.34 3.66521 20.3418C3.66625 20.3451 3.67215 20.3609 3.69451 20.3848C3.74499 20.4385 3.8521 20.5 3.9992 20.5V22C2.89463 22 1.97814 21.0955 2.19646 20.0127C3.11807 15.4419 7.15678 12 11.9992 12Z" fill="#3A3A3A"/>
</svg>
