<svg width="10" height="10" viewBox="0 0 10 10" fill="none" xmlns="http://www.w3.org/2000/svg">
<path d="M9 5C9 2.79086 7.20914 1 5 1C2.79086 1 1 2.79086 1 5C1 7.20914 2.79086 9 5 9V10C2.23858 10 0 7.76142 0 5C0 2.23858 2.23858 0 5 0C7.76142 0 10 2.23858 10 5C10 7.76142 7.76142 10 5 10V9C7.20914 9 9 7.20914 9 5Z" fill="black"/>
<path d="M6.14648 3.14648C6.34175 2.95122 6.65825 2.95122 6.85352 3.14648C7.0487 3.34175 7.04875 3.65828 6.85352 3.85352L5.70703 5L6.85352 6.14648C7.0487 6.34175 7.04875 6.65828 6.85352 6.85352C6.65828 7.04875 6.34175 7.0487 6.14648 6.85352L5 5.70703L3.85352 6.85352C3.65828 7.04875 3.34175 7.0487 3.14648 6.85352C2.95122 6.65825 2.95122 6.34175 3.14648 6.14648L4.29297 5L3.14648 3.85352C2.95122 3.65825 2.95122 3.34175 3.14648 3.14648C3.34175 2.95122 3.65825 2.95122 3.85352 3.14648L5 4.29297L6.14648 3.14648Z" fill="black"/>
</svg>
