<svg width="22" height="22" viewBox="0 0 22 22" fill="none" xmlns="http://www.w3.org/2000/svg">
<mask id="path-1-inside-1_5010_278903" fill="white">
<path d="M15.5175 4.21543C19.0802 6.53252 20.0891 11.2979 17.7338 14.8355C16.5694 16.584 14.8003 17.7036 12.8791 18.1107L10.051 20.1061L9.68921 18.1283C8.75052 17.9391 7.83263 17.5767 6.98656 17.0265C3.42343 14.7095 2.41422 9.94285 4.76997 6.40515C7.12581 2.86779 11.9545 1.89843 15.5175 4.21543Z"/>
</mask>
<path d="M15.5175 4.21543C19.0802 6.53252 20.0891 11.2979 17.7338 14.8355C16.5694 16.584 14.8003 17.7036 12.8791 18.1107L10.051 20.1061L9.68921 18.1283C8.75052 17.9391 7.83263 17.5767 6.98656 17.0265C3.42343 14.7095 2.41422 9.94285 4.76997 6.40515C7.12581 2.86779 11.9545 1.89843 15.5175 4.21543Z" fill="white"/>
<path d="M15.5175 4.21543L16.0718 3.38311L16.0717 3.38308L15.5175 4.21543ZM17.7338 14.8355L18.5721 15.3806L18.5722 15.3806L17.7338 14.8355ZM12.8791 18.1107L12.6729 17.1377L12.4686 17.181L12.2982 17.3012L12.8791 18.1107ZM10.051 20.1061L9.06209 20.2875L9.34329 21.8248L10.6319 20.9156L10.051 20.1061ZM9.68921 18.1283L10.6781 17.9469L10.5574 17.287L9.8937 17.1532L9.68921 18.1283ZM6.98656 17.0265L6.4323 17.8589L6.43235 17.8589L6.98656 17.0265ZM4.76997 6.40515L3.93167 5.85994L3.93164 5.85999L4.76997 6.40515ZM15.5175 4.21543L14.9632 5.04774C18.068 7.06707 18.9413 11.2176 16.8954 14.2904L17.7338 14.8355L18.5722 15.3806C21.2369 11.3783 20.0923 5.99796 16.0718 3.38311L15.5175 4.21543ZM17.7338 14.8355L16.8955 14.2903C15.8843 15.8087 14.3483 16.7827 12.6729 17.1377L12.8791 18.1107L13.0854 19.0836C15.2523 18.6244 17.2545 17.3593 18.5721 15.3806L17.7338 14.8355ZM12.8791 18.1107L12.2982 17.3012L9.47009 19.2967L10.051 20.1061L10.6319 20.9156L13.4601 18.9201L12.8791 18.1107ZM10.051 20.1061L11.0399 19.9247L10.6781 17.9469L9.68921 18.1283L8.70029 18.3097L9.06209 20.2875L10.051 20.1061ZM9.68921 18.1283L9.8937 17.1532C9.07569 16.9884 8.27713 16.673 7.54077 16.1942L6.98656 17.0265L6.43235 17.8589C7.38812 18.4804 8.42535 18.8899 9.48473 19.1033L9.68921 18.1283ZM6.98656 17.0265L7.54082 16.1942C4.43556 14.1749 3.56203 10.0233 5.6083 6.95032L4.76997 6.40515L3.93164 5.85999C1.26641 9.86244 2.41129 15.244 6.4323 17.8589L6.98656 17.0265ZM4.76997 6.40515L5.60826 6.95037C7.65457 3.87779 11.858 3.02847 14.9632 5.04777L15.5175 4.21543L16.0717 3.38308C12.0509 0.76838 6.59706 1.85779 3.93167 5.85994L4.76997 6.40515Z" fill="#3A3A3A" mask="url(#path-1-inside-1_5010_278903)"/>
<path d="M9.88477 7.63086H12.7946L12.3096 11.4649H10.3697L9.88477 7.63086Z" fill="#7A53EC"/>
<rect x="10.3711" y="12.4238" width="1.93988" height="1.91701" fill="#7A53EC"/>
</svg>
