<svg width="114" height="30" viewBox="0 0 114 30" fill="none" xmlns="http://www.w3.org/2000/svg">
<rect width="114" height="30" fill="white"/>
<path d="M24.9118 5.5H5.5V23.493H24.9118V5.5Z" fill="#0091D0"/>
<path d="M5.5 5.5L10.353 9.99694L15.2059 5.5H5.5Z" fill="#0091D0"/>
<path d="M5.5 5.5V14.4939L10.3524 9.99694L5.5 5.5Z" fill="#009CD8"/>
<path d="M15.2059 14.5047L10.3586 10.0078L5.5 14.5047H15.2059Z" fill="#0091D0"/>
<path d="M15.2139 14.4939V5.5L10.3672 9.99694L15.2139 14.4939Z" fill="#0082C9"/>
<path d="M15.2188 5.5V14.4939L20.0712 9.99694L15.2188 5.5Z" fill="#0071BB"/>
<path d="M24.9247 14.5047L20.0774 10.0078L15.2188 14.5047H24.9247Z" fill="#004C98"/>
<path d="M5.5 14.5L10.353 19.0022L15.2059 14.5H5.5Z" fill="#0082C9"/>
<path d="M5.5 14.5V23.4939L10.3524 19.0022L5.5 14.5Z" fill="#0071BB"/>
<path d="M15.2059 23.4944L10.3586 18.9922L5.5 23.4944H15.2059Z" fill="#0061AF"/>
<path d="M15.2139 23.4991V14.5L10.3672 18.9969L15.2139 23.4991Z" fill="#00529C"/>
<path d="M15.2188 14.5L20.0717 19.0022L24.9303 14.5H15.2188Z" fill="#1D388B"/>
<path d="M15.2188 14.5V23.4939L20.0712 19.0022L15.2188 14.5Z" fill="#004C98"/>
<path d="M24.9247 23.4944L20.0774 18.9922L15.2188 23.4944H24.9247Z" fill="#1D388B"/>
<path d="M24.9014 23.4991V14.5L20.0547 18.9969L24.9014 23.4991Z" fill="#1D388B"/>
<path d="M15.2188 5.5L20.0717 9.99694L24.9303 5.5H15.2188Z" fill="#0061AF"/>
<path d="M24.9014 14.4939V5.5L20.0547 9.99694L24.9014 14.4939Z" fill="#00529C"/>
<path d="M24.9208 16.7463L18.7072 11.2617L9.27344 20.0244L12.7147 23.2133L18.7072 17.7445L24.9208 23.4759V16.7463Z" fill="white"/>
<path d="M56.5413 14.4877C56.5413 11.5729 58.4495 9.79633 61.1537 9.79633C62.6228 9.79633 63.893 10.1102 64.8529 10.7431V9.05699C64.2032 8.62615 62.8452 8.19531 60.9605 8.19531C56.752 8.19531 53.8722 10.6846 53.8722 14.4877C53.8722 18.2908 56.7579 20.7801 60.9605 20.7801C62.8511 20.7801 64.1681 20.3812 64.8529 19.9184V18.2323C63.893 18.8706 62.617 19.1791 61.1537 19.1791C58.4495 19.1791 56.5413 17.4025 56.5413 14.4824M45.1568 9.78038H47.0298C48.657 9.78038 49.7164 10.8282 49.7164 12.6101C49.7164 14.392 48.657 15.4398 47.0298 15.4398H45.1568V9.7857V9.78038ZM45.1568 16.86H47.0942C49.8803 16.86 52.2919 15.3653 52.2919 12.6101C52.2919 9.85484 49.8803 8.3602 47.0942 8.3602H42.5521V20.6205H45.1568V16.86ZM33.3684 9.78038H35.2414C36.8744 9.78038 37.9339 10.8282 37.9339 12.6101C37.9339 14.392 36.8744 15.4398 35.2414 15.4398H33.3684V9.7857V9.78038ZM33.3684 16.86H35.3058C38.0919 16.86 40.5034 15.3653 40.5034 12.6101C40.5034 9.85484 38.0919 8.3602 35.3058 8.3602H30.7578V20.6205H33.3625V16.86H33.3684Z" fill="#021D49"/>
<path d="M85.6338 13.1521C85.0895 12.7053 84.27 12.4766 83.1989 12.4766C82.6955 12.4766 82.1804 12.5351 81.6712 12.6574C81.162 12.7744 80.682 12.9393 80.2489 13.1521L79.9796 13.2851L80.641 14.7584L80.9688 14.6201C81.3025 14.4765 81.6537 14.3489 82.0166 14.2425C82.3677 14.1361 82.7423 14.0829 83.1345 14.0829C83.6262 14.0829 83.9715 14.184 84.1705 14.3808C84.3813 14.5882 84.4866 14.9393 84.4866 15.4233V15.5616L83.433 15.5935C80.6059 15.6733 79.1719 16.5775 79.1719 18.2743C79.1719 19.0615 79.4411 19.6838 79.9679 20.1253C80.4889 20.5615 81.2029 20.7849 82.0926 20.7849C82.7482 20.7849 83.3101 20.6944 83.7608 20.5083C84.0769 20.3806 84.393 20.1732 84.7032 19.8913L84.8905 20.6466H86.4826V15.269C86.4826 14.3169 86.2016 13.5989 85.6456 13.1468L85.6338 13.1521ZM84.4573 17.0296V17.3807C84.4573 17.9658 84.2759 18.4179 83.9247 18.7211C83.5618 19.0296 83.0409 19.1891 82.3853 19.1891C81.999 19.1891 81.7005 19.1094 81.5073 18.9551C81.32 18.8062 81.2322 18.5987 81.2322 18.2956C81.2322 17.8913 81.3844 17.6147 81.7122 17.4286C82.0868 17.2211 82.7248 17.0988 83.6028 17.0669L84.4515 17.0296H84.4573Z" fill="#00529C"/>
<path d="M95.0906 13.224C94.5404 12.7241 93.7034 12.4688 92.6146 12.4688C92.0118 12.4688 91.4557 12.5804 90.9523 12.7985C90.6597 12.9262 90.4021 13.0911 90.1797 13.2826L90.0451 12.6017H88.3359V20.66H90.3612V16.4952C90.3612 15.6176 90.525 14.9953 90.8587 14.6283C91.163 14.2825 91.6898 14.107 92.4215 14.107C92.9483 14.107 93.3346 14.224 93.557 14.4527C93.7912 14.6868 93.9141 15.0697 93.9141 15.5963V20.66H95.9217V15.5059C95.9217 14.49 95.6408 13.724 95.0906 13.224Z" fill="#00529C"/>
<path d="M101.728 16.1154L105.381 12.6049H102.875L100.148 15.2272L99.7557 15.6527L99.7733 9.50391H97.7656V20.6632H99.7733V17.7643L100.306 17.3335L103.028 20.6632H105.504L101.728 16.1154Z" fill="#00529C"/>
<path d="M74.0844 14.0972C75.3077 13.7089 76.0862 12.661 76.0862 11.6664C76.0862 9.34198 73.8854 8.36328 71.2983 8.36328H67.0312V20.6236H72.0358C75.0034 20.6236 77.5261 19.7194 77.5261 17.1769C77.5261 15.5333 75.9808 14.4057 74.0903 14.0972H74.0844ZM69.6008 9.72495H71.31C72.6328 9.72495 73.5576 10.5866 73.5576 11.693C73.5576 12.7993 72.6269 13.7089 71.31 13.7089H69.6008V9.72495ZM72.065 19.2619H69.6008V15.0705H71.31C73.0542 15.0705 74.7634 15.6024 74.7634 17.1769C74.7634 18.5811 73.54 19.2672 72.0592 19.2672L72.065 19.2619Z" fill="#00529C"/>
</svg>
