<svg width="600" height="550" viewBox="0 0 600 550" fill="none" xmlns="http://www.w3.org/2000/svg">
<rect width="600" height="550" fill="#F4F3F8"/>
<path d="M236 212C236 205.373 241.373 200 248 200H272C278.627 200 284 205.373 284 212V372H236V212Z" fill="#E1DEEA"/>
<path d="M316 242C316 235.373 321.373 230 328 230H352C358.627 230 364 235.373 364 242V372H316V242Z" fill="#E1DEEA"/>
<path d="M396 272C396 265.373 401.373 260 408 260H432C438.627 260 444 265.373 444 272V372H396V272Z" fill="#E1DEEA"/>
<mask id="path-4-outside-1_6415_252395" maskUnits="userSpaceOnUse" x="148" y="162" width="64" height="210" fill="black">
<rect fill="white" x="148" y="162" width="64" height="210"/>
<path d="M156 182C156 175.373 161.373 170 168 170H192C198.627 170 204 175.373 204 182V372H156V182Z"/>
</mask>
<path d="M156 182C156 175.373 161.373 170 168 170H192C198.627 170 204 175.373 204 182V372H156V182Z" fill="#7A53EC"/>
<path d="M148 182C148 170.954 156.954 162 168 162H192C203.046 162 212 170.954 212 182H196C196 179.791 194.209 178 192 178H168C165.791 178 164 179.791 164 182H148ZM204 372H156H204ZM148 372V182C148 170.954 156.954 162 168 162V178C165.791 178 164 179.791 164 182V372H148ZM192 162C203.046 162 212 170.954 212 182V372H196V182C196 179.791 194.209 178 192 178V162Z" fill="white" mask="url(#path-4-outside-1_6415_252395)"/>
<rect x="100" y="372" width="400" height="8" fill="white"/>
<path d="M270.131 395.635C270.117 397.316 271.102 398.848 273.043 399.463L272.223 400.652C270.876 400.181 269.933 399.285 269.406 398.109C268.859 399.456 267.827 400.516 266.33 401.035L265.523 399.805C267.574 399.135 268.6 397.48 268.6 395.703V394.527H270.131V395.635ZM275.955 393.857V401.131H274.438V397.494H271.977V396.25H274.438V393.857H275.955ZM271.771 401.459C274.396 401.459 275.996 402.334 275.996 403.838C275.996 405.342 274.396 406.203 271.771 406.203C269.16 406.203 267.561 405.342 267.574 403.838C267.561 402.334 269.16 401.459 271.771 401.459ZM271.771 402.635C270.049 402.635 269.078 403.059 269.078 403.838C269.078 404.59 270.049 405.014 271.771 405.014C273.494 405.014 274.479 404.59 274.479 403.838C274.479 403.059 273.494 402.635 271.771 402.635Z" fill="#0A0A0A"/>
<path d="M263.797 393.857V406.23H262.293V393.857H263.797ZM259.996 394.938V399.572H255.744V402.061C257.692 402.047 259.374 401.951 261.295 401.623L261.432 402.867C259.326 403.236 257.48 403.305 255.266 403.305H254.186V398.369H258.451V396.168H254.172V394.938H259.996Z" fill="#0A0A0A"/>
<path d="M251.4 397.33V398.547H247.805V400.146H252.686V401.377H241.406V400.146H246.287V398.547H242.869V394.254H244.373V397.33H251.4ZM251.51 404.74V405.971H242.773V402.238H244.277V404.74H251.51Z" fill="#0A0A0A"/>
<path d="M350.131 395.635C350.117 397.316 351.102 398.848 353.043 399.463L352.223 400.652C350.876 400.181 349.933 399.285 349.406 398.109C348.859 399.456 347.827 400.516 346.33 401.035L345.523 399.805C347.574 399.135 348.6 397.48 348.6 395.703V394.527H350.131V395.635ZM355.955 393.857V401.131H354.438V397.494H351.977V396.25H354.438V393.857H355.955ZM351.771 401.459C354.396 401.459 355.996 402.334 355.996 403.838C355.996 405.342 354.396 406.203 351.771 406.203C349.16 406.203 347.561 405.342 347.574 403.838C347.561 402.334 349.16 401.459 351.771 401.459ZM351.771 402.635C350.049 402.635 349.078 403.059 349.078 403.838C349.078 404.59 350.049 405.014 351.771 405.014C353.494 405.014 354.479 404.59 354.479 403.838C354.479 403.059 353.494 402.635 351.771 402.635Z" fill="#0A0A0A"/>
<path d="M340.74 394.965V398.492H335.955V399.723H341.041V400.912H338.402V402.621C339.469 402.58 340.535 402.512 341.547 402.402L341.67 403.51C338.949 403.947 336.092 403.975 333.754 403.947L333.562 402.689C334.588 402.696 335.716 402.696 336.871 402.662V400.912H334.424V397.371H339.236V396.168H334.41V394.965H340.74ZM343.803 393.857V406.23H342.285V393.857H343.803Z" fill="#0A0A0A"/>
<path d="M331.703 393.871V402.895H330.172V393.871H331.703ZM332.045 404.74V405.971H323.527V402.033H325.059V404.74H332.045ZM326.016 395.758C326.016 397.48 327.027 399.107 328.982 399.764L328.203 400.967C326.795 400.475 325.79 399.49 325.25 398.232C324.689 399.579 323.671 400.659 322.215 401.186L321.422 399.982C323.432 399.271 324.443 397.535 324.443 395.758V394.555H326.016V395.758Z" fill="#0A0A0A"/>
<path d="M430.131 395.635C430.117 397.316 431.102 398.848 433.043 399.463L432.223 400.652C430.876 400.181 429.933 399.285 429.406 398.109C428.859 399.456 427.827 400.516 426.33 401.035L425.523 399.805C427.574 399.135 428.6 397.48 428.6 395.703V394.527H430.131V395.635ZM435.955 393.857V401.131H434.438V397.494H431.977V396.25H434.438V393.857H435.955ZM431.771 401.459C434.396 401.459 435.996 402.334 435.996 403.838C435.996 405.342 434.396 406.203 431.771 406.203C429.16 406.203 427.561 405.342 427.574 403.838C427.561 402.334 429.16 401.459 431.771 401.459ZM431.771 402.635C430.049 402.635 429.078 403.059 429.078 403.838C429.078 404.59 430.049 405.014 431.771 405.014C433.494 405.014 434.479 404.59 434.479 403.838C434.479 403.059 433.494 402.635 431.771 402.635Z" fill="#0A0A0A"/>
<path d="M424.773 399.805V401.021H413.508V399.805H416.133V398.232C415.203 397.843 414.67 397.221 414.67 396.414C414.67 394.938 416.406 394.062 419.127 394.062C421.848 394.062 423.57 394.938 423.584 396.414C423.577 397.228 423.044 397.85 422.107 398.232V399.805H424.773ZM419.127 401.773C421.793 401.76 423.393 402.553 423.406 403.975C423.393 405.41 421.793 406.189 419.127 406.189C416.434 406.189 414.82 405.41 414.82 403.975C414.82 402.553 416.434 401.76 419.127 401.773ZM419.127 402.922C417.322 402.922 416.352 403.277 416.365 403.975C416.352 404.672 417.322 405.041 419.127 405.041C420.891 405.041 421.875 404.672 421.889 403.975C421.875 403.277 420.891 402.922 419.127 402.922ZM419.127 395.238C417.295 395.238 416.242 395.648 416.256 396.414C416.242 397.166 417.295 397.562 419.127 397.562C420.945 397.562 422.012 397.166 422.012 396.414C422.012 395.648 420.945 395.238 419.127 395.238ZM417.664 399.805H420.59V398.629C420.146 398.69 419.653 398.725 419.127 398.725C418.601 398.725 418.108 398.69 417.664 398.629V399.805Z" fill="#0A0A0A"/>
<path d="M411.195 393.857V396.865H412.863V398.137H411.195V401.131H409.678V393.857H411.195ZM411.195 401.623V404.289H404.482V405.082H411.633V406.107H402.965V403.346H409.678V402.648H402.938V401.623H411.195ZM401.297 399.887C402.227 399.887 403.293 399.887 404.414 399.846V399.23C403.026 399.094 402.172 398.533 402.172 397.617C402.172 396.619 403.334 396.031 405.152 396.031C406.971 396.031 408.133 396.619 408.133 397.617C408.133 398.52 407.299 399.08 405.932 399.23V399.791C406.984 399.75 408.044 399.661 409.035 399.531L409.158 400.488C406.52 400.939 403.621 400.953 401.461 400.953L401.297 399.887ZM408.707 394.691V395.73H401.611V394.691H404.414V393.762H405.932V394.691H408.707ZM405.152 396.988C404.195 397.002 403.621 397.207 403.635 397.617C403.621 398.055 404.195 398.301 405.152 398.301C406.109 398.301 406.684 398.055 406.684 397.617C406.684 397.207 406.109 397.002 405.152 396.988Z" fill="#0A0A0A"/>
<path d="M195.645 399.477V400.68H191.98V403.51H196.902V404.754H185.609V403.51H190.477V400.68H186.977V394.773H195.549V395.99H188.494V399.477H195.645Z" fill="#0A0A0A"/>
<path d="M178.037 395.635C178.023 397.316 179.008 398.848 180.949 399.463L180.129 400.652C178.782 400.181 177.839 399.285 177.312 398.109C176.766 399.456 175.733 400.516 174.236 401.035L173.43 399.805C175.48 399.135 176.506 397.48 176.506 395.703V394.527H178.037V395.635ZM183.861 393.857V401.131H182.344V397.494H179.883V396.25H182.344V393.857H183.861ZM179.678 401.459C182.303 401.459 183.902 402.334 183.902 403.838C183.902 405.342 182.303 406.203 179.678 406.203C177.066 406.203 175.467 405.342 175.48 403.838C175.467 402.334 177.066 401.459 179.678 401.459ZM179.678 402.635C177.955 402.635 176.984 403.059 176.984 403.838C176.984 404.59 177.955 405.014 179.678 405.014C181.4 405.014 182.385 404.59 182.385 403.838C182.385 403.059 181.4 402.635 179.678 402.635Z" fill="#0A0A0A"/>
<path d="M165.143 394.391C166.947 394.391 168.232 395.389 168.246 396.879C168.232 398.103 167.31 399.025 165.936 399.285V400.283C166.961 400.229 167.993 400.133 168.957 399.996L169.08 401.104C166.51 401.568 163.639 401.609 161.547 401.609L161.383 400.393C162.271 400.399 163.311 400.393 164.404 400.352V399.285C162.989 399.053 162.039 398.123 162.053 396.879C162.039 395.389 163.324 394.391 165.143 394.391ZM165.143 395.553C164.158 395.553 163.461 396.045 163.475 396.879C163.461 397.686 164.158 398.191 165.143 398.205C166.127 398.191 166.797 397.686 166.811 396.879C166.797 396.045 166.127 395.553 165.143 395.553ZM171.199 393.871V397.863H172.867V399.121H171.199V403.305H169.682V393.871H171.199ZM171.637 404.727V405.957H163.078V402.471H164.596V404.727H171.637Z" fill="#0A0A0A"/>
<path d="M192.549 141.857V149.035H191.031V146.041H188.898V144.797H191.031V141.857H192.549ZM192.549 149.568V154.066H184.332V149.568H192.549ZM185.85 150.771V152.836H191.059V150.771H185.85ZM186.738 143.895C186.738 145.385 187.736 146.902 189.65 147.559L188.885 148.762C187.504 148.29 186.526 147.354 185.986 146.191C185.439 147.477 184.407 148.509 182.951 148.994L182.172 147.805C184.141 147.148 185.193 145.521 185.193 143.881V143.785H182.623V142.555H189.295V143.785H186.738V143.895Z" fill="#7A53EC"/>
<path d="M177.316 153.137C174.938 153.137 173.516 151.291 173.516 148.051C173.516 144.824 174.938 142.965 177.316 142.965C179.682 142.965 181.117 144.824 181.117 148.051C181.117 151.291 179.695 153.137 177.316 153.137ZM177.316 151.646C178.561 151.646 179.326 150.43 179.326 148.051C179.326 145.686 178.547 144.441 177.316 144.441C176.086 144.441 175.307 145.686 175.307 148.051C175.307 150.43 176.072 151.646 177.316 151.646Z" fill="#7A53EC"/>
<path d="M168.414 153.137C166.295 153.137 164.791 151.988 164.75 150.32H166.541C166.596 151.113 167.389 151.633 168.414 151.633C169.508 151.633 170.287 151.031 170.287 150.156C170.287 149.268 169.521 148.625 168.236 148.625H167.348V147.258H168.236C169.289 147.258 170.027 146.67 170.014 145.809C170.027 144.975 169.398 144.414 168.428 144.414C167.498 144.414 166.691 144.934 166.664 145.768H164.955C164.996 144.1 166.5 142.965 168.441 142.965C170.451 142.965 171.75 144.195 171.736 145.713C171.75 146.82 171.012 147.627 169.932 147.846V147.928C171.326 148.119 172.119 149.008 172.105 150.252C172.119 151.92 170.561 153.137 168.414 153.137Z" fill="#7A53EC"/>
<path d="M272.838 180.857V188.035H271.32V185.041H269.188V183.797H271.32V180.857H272.838ZM272.838 188.568V193.066H264.621V188.568H272.838ZM266.139 189.771V191.836H271.348V189.771H266.139ZM267.027 182.895C267.027 184.385 268.025 185.902 269.939 186.559L269.174 187.762C267.793 187.29 266.815 186.354 266.275 185.191C265.729 186.477 264.696 187.509 263.24 187.994L262.461 186.805C264.43 186.148 265.482 184.521 265.482 182.881V182.785H262.912V181.555H269.584V182.785H267.027V182.895Z" fill="#C4BED7"/>
<path d="M257.768 192.137C255.785 192.137 254.336 190.961 254.281 189.32H256.018C256.072 190.127 256.824 190.701 257.768 190.701C258.875 190.701 259.668 189.895 259.668 188.801C259.668 187.666 258.848 186.859 257.713 186.859C256.947 186.846 256.387 187.119 256.072 187.707H254.418L255.02 182.102H260.871V183.592H256.482L256.182 186.217H256.277C256.66 185.779 257.385 185.465 258.191 185.465C260.037 185.465 261.391 186.846 261.391 188.746C261.391 190.729 259.9 192.137 257.768 192.137Z" fill="#C4BED7"/>
<path d="M245.822 192V190.715L249.322 187.338C250.32 186.34 250.84 185.752 250.84 184.918C250.84 184.002 250.115 183.414 249.145 183.414C248.119 183.414 247.463 184.057 247.477 185.055H245.781C245.768 183.182 247.176 181.965 249.158 181.965C251.182 181.965 252.549 183.168 252.549 184.836C252.549 185.957 252.002 186.859 250.061 188.691L248.297 190.441V190.51H252.699V192H245.822Z" fill="#C4BED7"/>
<path d="M351.018 210.857V218.035H349.5V215.041H347.367V213.797H349.5V210.857H351.018ZM351.018 218.568V223.066H342.801V218.568H351.018ZM344.318 219.771V221.836H349.527V219.771H344.318ZM345.207 212.895C345.207 214.385 346.205 215.902 348.119 216.559L347.354 217.762C345.973 217.29 344.995 216.354 344.455 215.191C343.908 216.477 342.876 217.509 341.42 217.994L340.641 216.805C342.609 216.148 343.662 214.521 343.662 212.881V212.785H341.092V211.555H347.764V212.785H345.207V212.895Z" fill="#C4BED7"/>
<path d="M335.846 222.137C333.645 222.137 332.086 220.961 332.086 219.348C332.086 218.09 333.016 217.064 334.205 216.873V216.818C333.166 216.6 332.455 215.697 332.455 214.617C332.455 213.086 333.891 211.965 335.846 211.965C337.787 211.965 339.223 213.086 339.223 214.617C339.223 215.697 338.498 216.6 337.473 216.818V216.873C338.662 217.064 339.605 218.09 339.605 219.348C339.605 220.961 338.033 222.137 335.846 222.137ZM335.846 220.729C337.008 220.729 337.773 220.1 337.773 219.184C337.773 218.254 336.953 217.57 335.846 217.57C334.725 217.57 333.904 218.254 333.918 219.184C333.904 220.1 334.67 220.729 335.846 220.729ZM335.846 216.244C336.803 216.244 337.486 215.643 337.486 214.781C337.486 213.947 336.816 213.359 335.846 213.359C334.861 213.359 334.191 213.934 334.191 214.781C334.191 215.643 334.875 216.244 335.846 216.244Z" fill="#C4BED7"/>
<path d="M329.844 212.102V222H328.053V213.838H327.998L325.688 215.314V213.688L328.135 212.102H329.844Z" fill="#C4BED7"/>
<path d="M430.83 240.857V248.035H429.312V245.041H427.18V243.797H429.312V240.857H430.83ZM430.83 248.568V253.066H422.613V248.568H430.83ZM424.131 249.771V251.836H429.34V249.771H424.131ZM425.02 242.895C425.02 244.385 426.018 245.902 427.932 246.559L427.166 247.762C425.785 247.29 424.808 246.354 424.268 245.191C423.721 246.477 422.688 247.509 421.232 247.994L420.453 246.805C422.422 246.148 423.475 244.521 423.475 242.881V242.785H420.904V241.555H427.576V242.785H425.02V242.895Z" fill="#C4BED7"/>
<path d="M415.768 252.137C413.785 252.137 412.336 250.961 412.281 249.32H414.018C414.072 250.127 414.824 250.701 415.768 250.701C416.875 250.701 417.668 249.895 417.668 248.801C417.668 247.666 416.848 246.859 415.713 246.859C414.947 246.846 414.387 247.119 414.072 247.707H412.418L413.02 242.102H418.871V243.592H414.482L414.182 246.217H414.277C414.66 245.779 415.385 245.465 416.191 245.465C418.037 245.465 419.391 246.846 419.391 248.746C419.391 250.729 417.9 252.137 415.768 252.137Z" fill="#C4BED7"/>
<path d="M409.844 242.102V252H408.053V243.838H407.998L405.688 245.314V243.688L408.135 242.102H409.844Z" fill="#C4BED7"/>
<rect x="100" y="83" width="111.633" height="30.6055" rx="8" fill="#E1DEEA"/>
<path d="M199.363 93.0117V100.746H198.062V96.8672H196.188V95.8125H198.062V93.0117H199.363ZM199.633 102.328V103.383H192.414V100.066H193.715V102.328H199.633ZM194.383 95.1211C194.383 96.3984 195.238 97.7109 196.879 98.25L196.223 99.293C195.039 98.8887 194.201 98.0859 193.738 97.0781C193.27 98.1973 192.385 99.082 191.137 99.5156L190.469 98.4609C192.156 97.9102 193.059 96.5156 193.059 95.1094V94.8281H190.855V93.7734H196.574V94.8281H194.383V95.1211Z" fill="#0A0A0A"/>
<path d="M189.805 101.238V102.305H180.125V101.238H184.297V98.9297H181.191V93.8203H188.691V98.9297H185.586V101.238H189.805ZM182.469 94.8633V97.9102H187.402V94.8633H182.469Z" fill="#0A0A0A"/>
<path d="M174.52 99.6211C176.816 99.6328 178.27 100.359 178.281 101.613C178.27 102.844 176.816 103.582 174.52 103.582C172.234 103.582 170.77 102.844 170.77 101.613C170.77 100.359 172.234 99.6328 174.52 99.6211ZM174.52 100.605C172.996 100.605 172.07 100.969 172.082 101.613C172.07 102.234 172.996 102.574 174.52 102.574C176.055 102.574 176.98 102.234 176.992 101.613C176.98 100.969 176.055 100.605 174.52 100.605ZM178.211 93.5039V94.3828C178.211 95.2148 178.211 96.1055 177.918 97.1953L176.629 97.0781C176.893 96.0469 176.91 95.3027 176.91 94.5352H170.875V93.5039H178.211ZM179.383 97.8047V98.8594H169.773V97.8047H173.5V95.8828H174.789V97.8047H179.383Z" fill="#0A0A0A"/>
<path d="M165.418 93V103.605H164.129V97.8867H162.137V96.832H164.129V93H165.418ZM161.973 93.9141V94.9805H158.328V96.8789H161.551V97.9102H158.328V100.09C159.939 100.084 161.146 100.031 162.512 99.8086L162.641 100.863C161.094 101.098 159.746 101.156 157.848 101.168H157.016V93.9141H161.973Z" fill="#0A0A0A"/>
<path d="M154.988 93.0117V99.4922H153.676V93.0117H154.988ZM154.988 99.9844V103.594H153.676V101.051H147.758V99.9844H154.988ZM151.59 93.6094V96.75H148.004V97.9336C149.82 97.9277 151.104 97.8691 152.621 97.6406L152.785 98.6836C151.109 98.9531 149.68 99 147.629 99H146.727V95.7422H150.301V94.6641H146.703V93.6094H151.59Z" fill="#0A0A0A"/>
<path d="M144.93 93V103.594H143.664V98.1914H142.527V103.102H141.32V93.2461H142.527V97.1367H143.664V93H144.93ZM140.523 94.2539C140.512 97.1719 139.738 99.6914 136.551 101.496L135.789 100.57C137.26 99.7441 138.162 98.7773 138.684 97.6641L136.012 97.957L135.848 96.8438L139.035 96.6562C139.146 96.2285 139.217 95.7773 139.258 95.3086H136.398V94.2539H140.523Z" fill="#0A0A0A"/>
<path d="M128.488 94.1016V94.8516C128.488 95.8008 128.488 97.125 128.195 98.9531L126.906 98.8477C127.158 97.2422 127.188 96.0586 127.199 95.1445H123.039V94.1016H128.488ZM125.816 97.125V100.254C126.895 100.213 128.002 100.137 129.016 100.008L129.086 100.98C126.895 101.332 124.469 101.379 122.605 101.367L122.477 100.324C123.104 100.318 123.801 100.312 124.527 100.289V97.125H125.816ZM130.879 93V97.3125H132.414V98.4141H130.879V103.594H129.566V93H130.879Z" fill="#0A0A0A"/>
<path d="M115.984 95.543C115.973 97.4297 116.922 99.3516 118.562 100.137L117.766 101.18C116.617 100.6 115.791 99.4805 115.34 98.1328C114.877 99.5742 114.01 100.77 112.797 101.379L112 100.336C113.699 99.5273 114.672 97.5 114.684 95.543V93.8555H115.984V95.543ZM120.496 93V97.1484H122.125V98.2617H120.496V103.594H119.195V93H120.496Z" fill="#0A0A0A"/>
</svg>
