<svg width="600" height="550" viewBox="0 0 600 550" fill="none" xmlns="http://www.w3.org/2000/svg">
<g clip-path="url(#clip0_6415_252488)">
<rect width="600" height="550" fill="#F4F3F8"/>
<g filter="url(#filter0_d_6415_252488)">
<path d="M80 52C80 40.9543 88.9543 32 100 32H260C271.046 32 280 40.9543 280 52V172C280 183.046 271.046 192 260 192H100C88.9543 192 80 183.046 80 172V52Z" fill="#F9F9F9"/>
<path d="M260 28C273.255 28 284 38.7452 284 52V172C284 185.255 273.255 196 260 196H100C86.7452 196 76 185.255 76 172V52C76 38.7452 86.7452 28 100 28H260Z" stroke="white" stroke-width="8"/>
<g filter="url(#filter1_d_6415_252488)">
<rect x="120" y="123" width="120" height="12" rx="6" fill="#D9D9D9"/>
<rect x="142" y="123" width="50" height="12" fill="#7A53EC"/>
<g filter="url(#filter2_d_6415_252488)">
<circle cx="142" cy="129" r="10" fill="#FF44BF"/>
<circle cx="142" cy="129" r="7" stroke="#5E39C9" stroke-width="6"/>
</g>
<g filter="url(#filter3_d_6415_252488)">
<circle cx="192" cy="129" r="10" fill="#7A53EC"/>
<circle cx="192" cy="129" r="7" stroke="#5E39C9" stroke-width="6"/>
</g>
</g>
<g filter="url(#filter4_d_6415_252488)">
<path d="M137 98C137 91.3726 142.373 86 149 86H164C170.627 86 176 91.3726 176 98C176 104.627 170.627 110 164 110H137V98Z" fill="#FF44BF"/>
</g>
<path d="M152.766 91.6875V103H150.406V93.9219H150.344L147.75 95.5469V93.4688L150.547 91.6875H152.766ZM159.781 103.156C156.953 103.156 155.234 101.047 155.234 97.3438C155.234 93.6406 156.953 91.5312 159.781 91.5312C162.609 91.5312 164.328 93.6562 164.328 97.3438C164.328 101.062 162.609 103.156 159.781 103.156ZM159.781 101.219C161.094 101.219 161.938 99.9531 161.922 97.3438C161.922 94.7656 161.094 93.4531 159.781 93.4531C158.469 93.4531 157.641 94.7656 157.641 97.3438C157.625 99.9531 158.469 101.219 159.781 101.219Z" fill="white"/>
<path d="M159.672 47.5312V49.1094H151.766V47.5312H154.828V46.0938H156.812V47.5312H159.672ZM155.797 49.5781C157.75 49.5938 159.156 50.6719 159.172 52.25C159.156 53.8438 157.75 54.9062 155.797 54.8906C153.828 54.9062 152.453 53.8438 152.469 52.25C152.453 50.6719 153.828 49.5938 155.797 49.5781ZM155.797 51.0625C154.891 51.0625 154.312 51.4844 154.328 52.25C154.312 53.0156 154.891 53.4219 155.797 53.4219C156.688 53.4219 157.312 53.0156 157.312 52.25C157.312 51.4844 156.688 51.0625 155.797 51.0625ZM163.719 46.2188V55.2812H161.734V53.7812H159.797V52.1875H161.734V50.9375H159.828V49.3438H161.734V46.2188H163.719ZM158.891 55.4531C161.906 55.4531 163.797 56.375 163.797 57.9531C163.797 59.5 161.906 60.4375 158.891 60.4375C155.859 60.4375 153.984 59.5 153.984 57.9531C153.984 56.375 155.859 55.4531 158.891 55.4531ZM158.891 56.9531C157.078 56.9688 156.078 57.2812 156.078 57.9531C156.078 58.5938 157.078 58.9375 158.891 58.9375C160.672 58.9375 161.656 58.5938 161.656 57.9531C161.656 57.2812 160.672 56.9688 158.891 56.9531Z" fill="#0A0A0A"/>
<path d="M145.062 47.4688V49.0938H140.594V55.4062C142.664 55.3828 144.156 55.2891 145.828 54.9844L146.031 56.5938C144.078 56.9688 142.359 57.0469 139.734 57.0312H138.578V47.4688H145.062ZM149.922 46.2188V60.4688H147.938V52.7656H144.359V51.1406H147.938V46.2188H149.922Z" fill="#0A0A0A"/>
<path d="M135.984 46.2188V60.4688H133.969V46.2188H135.984ZM128.266 47.2188C130.406 47.2188 132 49.1875 132 52.2812C132 55.4062 130.406 57.3594 128.266 57.3594C126.078 57.3594 124.484 55.4062 124.5 52.2812C124.484 49.1875 126.078 47.2188 128.266 47.2188ZM128.266 49.0156C127.156 49.0156 126.422 50.1719 126.422 52.2812C126.422 54.4062 127.156 55.5469 128.266 55.5469C129.344 55.5469 130.078 54.4062 130.078 52.2812C130.078 50.1719 129.344 49.0156 128.266 49.0156Z" fill="#0A0A0A"/>
<path d="M121.469 46.2188V51.5938H123.562V53.2344H121.469V60.4688H119.5V46.2188H121.469ZM117.406 47.4062V52.9219H112.828V55.5C114.898 55.4922 116.609 55.3984 118.5 55.0781L118.672 56.6719C116.5 57.0625 114.547 57.1562 112.047 57.1562H110.844V51.3438H115.422V49.0156H110.828V47.4062H117.406Z" fill="#0A0A0A"/>
<path d="M103.938 46.625C103.938 48.0312 105.562 49.4688 108.766 49.7969L108.078 51.2969C105.625 51.0156 103.82 50.0781 102.906 48.7656C101.984 50.0781 100.188 51.0156 97.7344 51.2969L97.0625 49.7969C100.234 49.4688 101.875 48.0312 101.891 46.625V46.3281H103.938V46.625ZM109.391 51.8438V53.4375H96.4219V51.8438H109.391ZM107.812 54.2969V57.9688H99.8906V58.8438H108.188V60.3438H97.9375V56.5781H105.844V55.7812H97.9219V54.2969H107.812Z" fill="#0A0A0A"/>
</g>
<g filter="url(#filter5_d_6415_252488)">
<path d="M320 171C320 159.954 328.954 151 340 151H500C511.046 151 520 159.954 520 171V291C520 302.046 511.046 311 500 311H340C328.954 311 320 302.046 320 291V171Z" fill="#F9F9F9"/>
<path d="M500 147C513.255 147 524 157.745 524 171V291C524 304.255 513.255 315 500 315H340C326.745 315 316 304.255 316 291V171C316 157.745 326.745 147 340 147H500Z" stroke="white" stroke-width="8"/>
<g filter="url(#filter6_d_6415_252488)">
<path d="M419.122 237.61C419.501 236.915 420.499 236.915 420.878 237.61L424.446 244.152C424.589 244.415 424.844 244.6 425.139 244.656L432.464 246.027C433.242 246.173 433.55 247.122 433.006 247.697L427.887 253.112C427.681 253.33 427.583 253.63 427.622 253.927L428.581 261.317C428.683 262.102 427.875 262.688 427.16 262.349L420.429 259.154C420.157 259.025 419.843 259.025 419.571 259.154L412.84 262.349C412.125 262.688 411.317 262.102 411.419 261.317L412.378 253.927C412.417 253.63 412.319 253.33 412.113 253.112L406.994 247.697C406.45 247.122 406.758 246.173 407.536 246.027L414.861 244.656C415.156 244.6 415.411 244.415 415.554 244.152L419.122 237.61Z" fill="#D9D9D9"/>
</g>
<g filter="url(#filter7_d_6415_252488)">
<path d="M385.122 237.61C385.501 236.915 386.499 236.915 386.878 237.61L390.446 244.152C390.589 244.415 390.844 244.6 391.139 244.656L398.464 246.027C399.242 246.173 399.55 247.122 399.006 247.697L393.887 253.112C393.681 253.33 393.583 253.63 393.622 253.927L394.581 261.317C394.683 262.102 393.875 262.688 393.16 262.349L386.429 259.154C386.157 259.025 385.843 259.025 385.571 259.154L378.84 262.349C378.125 262.688 377.317 262.102 377.419 261.317L378.378 253.927C378.417 253.63 378.319 253.33 378.113 253.112L372.994 247.697C372.45 247.122 372.758 246.173 373.536 246.027L380.861 244.656C381.156 244.6 381.411 244.415 381.554 244.152L385.122 237.61Z" fill="#D9D9D9"/>
</g>
<g filter="url(#filter8_d_6415_252488)">
<path d="M351.122 237.61C351.501 236.915 352.499 236.915 352.878 237.61L356.446 244.152C356.589 244.415 356.844 244.6 357.139 244.656L364.464 246.027C365.242 246.173 365.55 247.122 365.006 247.697L359.887 253.112C359.681 253.33 359.583 253.63 359.622 253.927L360.581 261.317C360.683 262.102 359.875 262.688 359.16 262.349L352.429 259.154C352.157 259.025 351.843 259.025 351.571 259.154L344.84 262.349C344.125 262.688 343.317 262.102 343.419 261.317L344.378 253.927C344.417 253.63 344.319 253.33 344.113 253.112L338.994 247.697C338.45 247.122 338.758 246.173 339.536 246.027L346.861 244.656C347.156 244.6 347.411 244.415 347.554 244.152L351.122 237.61Z" fill="#D9D9D9"/>
</g>
<g filter="url(#filter9_d_6415_252488)">
<path d="M487.122 237.61C487.501 236.915 488.499 236.915 488.878 237.61L492.446 244.152C492.589 244.415 492.844 244.6 493.139 244.656L500.464 246.027C501.242 246.173 501.55 247.122 501.006 247.697L495.887 253.112C495.681 253.33 495.583 253.63 495.622 253.927L496.581 261.317C496.683 262.102 495.875 262.688 495.16 262.349L488.429 259.154C488.157 259.025 487.843 259.025 487.571 259.154L480.84 262.349C480.125 262.688 479.317 262.102 479.419 261.317L480.378 253.927C480.417 253.63 480.319 253.33 480.113 253.112L474.994 247.697C474.45 247.122 474.758 246.173 475.536 246.027L482.861 244.656C483.156 244.6 483.411 244.415 483.554 244.152L487.122 237.61Z" fill="#D9D9D9"/>
</g>
<g filter="url(#filter10_d_6415_252488)">
<path d="M453.122 237.61C453.501 236.915 454.499 236.915 454.878 237.61L458.446 244.152C458.589 244.415 458.844 244.6 459.139 244.656L466.464 246.027C467.242 246.173 467.55 247.122 467.006 247.697L461.887 253.112C461.681 253.33 461.583 253.63 461.622 253.927L462.581 261.317C462.683 262.102 461.875 262.688 461.16 262.349L454.429 259.154C454.157 259.025 453.843 259.025 453.571 259.154L446.84 262.349C446.125 262.688 445.317 262.102 445.419 261.317L446.378 253.927C446.417 253.63 446.319 253.33 446.113 253.112L440.994 247.697C440.45 247.122 440.758 246.173 441.536 246.027L448.861 244.656C449.156 244.6 449.411 244.415 449.554 244.152L453.122 237.61Z" fill="#D9D9D9"/>
</g>
<path d="M419.122 237.61C419.501 236.915 420.499 236.915 420.878 237.61L424.446 244.152C424.589 244.415 424.844 244.6 425.139 244.656L432.464 246.027C433.242 246.173 433.55 247.122 433.006 247.697L427.887 253.112C427.681 253.33 427.583 253.63 427.622 253.927L428.581 261.317C428.683 262.102 427.875 262.688 427.16 262.349L420.429 259.154C420.157 259.025 419.843 259.025 419.571 259.154L412.84 262.349C412.125 262.688 411.317 262.102 411.419 261.317L412.378 253.927C412.417 253.63 412.319 253.33 412.113 253.112L406.994 247.697C406.45 247.122 406.758 246.173 407.536 246.027L414.861 244.656C415.156 244.6 415.411 244.415 415.554 244.152L419.122 237.61Z" fill="#7A53EC"/>
<path d="M385.122 237.61C385.501 236.915 386.499 236.915 386.878 237.61L390.446 244.152C390.589 244.415 390.844 244.6 391.139 244.656L398.464 246.027C399.242 246.173 399.55 247.122 399.006 247.697L393.887 253.112C393.681 253.33 393.583 253.63 393.622 253.927L394.581 261.317C394.683 262.102 393.875 262.688 393.16 262.349L386.429 259.154C386.157 259.025 385.843 259.025 385.571 259.154L378.84 262.349C378.125 262.688 377.317 262.102 377.419 261.317L378.378 253.927C378.417 253.63 378.319 253.33 378.113 253.112L372.994 247.697C372.45 247.122 372.758 246.173 373.536 246.027L380.861 244.656C381.156 244.6 381.411 244.415 381.554 244.152L385.122 237.61Z" fill="#7A53EC"/>
<path d="M351.122 237.61C351.501 236.915 352.499 236.915 352.878 237.61L356.446 244.152C356.589 244.415 356.844 244.6 357.139 244.656L364.464 246.027C365.242 246.173 365.55 247.122 365.006 247.697L359.887 253.112C359.681 253.33 359.583 253.63 359.622 253.927L360.581 261.317C360.683 262.102 359.875 262.688 359.16 262.349L352.429 259.154C352.157 259.025 351.843 259.025 351.571 259.154L344.84 262.349C344.125 262.688 343.317 262.102 343.419 261.317L344.378 253.927C344.417 253.63 344.319 253.33 344.113 253.112L338.994 247.697C338.45 247.122 338.758 246.173 339.536 246.027L346.861 244.656C347.156 244.6 347.411 244.415 347.554 244.152L351.122 237.61Z" fill="#7A53EC"/>
<g filter="url(#filter11_d_6415_252488)">
<path d="M417 217C417 210.373 422.373 205 429 205H451C457.627 205 463 210.373 463 217C463 223.627 457.627 229 451 229H417V217Z" fill="#FF44BF"/>
</g>
<path d="M432.078 222.156C429.594 222.156 427.812 220.781 427.766 218.812H430.141C430.188 219.656 431 220.219 432.094 220.219C433.219 220.219 434.031 219.578 434.016 218.672C434.031 217.75 433.203 217.094 431.875 217.094H430.828V215.359H431.875C432.984 215.359 433.766 214.75 433.766 213.859C433.766 213 433.109 212.406 432.109 212.406C431.109 212.406 430.281 212.969 430.25 213.828H428C428.031 211.875 429.797 210.531 432.109 210.531C434.469 210.531 436.047 211.922 436.031 213.719C436.047 214.984 435.156 215.891 433.891 216.109V216.203C435.547 216.406 436.469 217.422 436.453 218.828C436.469 220.766 434.625 222.156 432.078 222.156ZM443.016 210.156L439.359 223.703H437.375L441.016 210.156H443.016ZM448.203 222.156C445.844 222.156 444.125 220.766 444.078 218.812H446.359C446.406 219.703 447.219 220.297 448.203 220.297C449.375 220.297 450.203 219.469 450.203 218.297C450.203 217.094 449.359 216.266 448.172 216.25C447.328 216.25 446.734 216.562 446.391 217.203H444.266L444.875 210.688H451.844V212.609H446.812L446.5 215.469H446.594C447.016 214.906 447.859 214.516 448.859 214.516C450.938 214.516 452.484 216.062 452.484 218.234C452.484 220.516 450.75 222.156 448.203 222.156Z" fill="white"/>
<path d="M372.016 166.531V168.109H364.109V166.531H367.172V165.094H369.156V166.531H372.016ZM368.141 168.578C370.094 168.594 371.5 169.672 371.516 171.25C371.5 172.844 370.094 173.906 368.141 173.891C366.172 173.906 364.797 172.844 364.812 171.25C364.797 169.672 366.172 168.594 368.141 168.578ZM368.141 170.062C367.234 170.062 366.656 170.484 366.672 171.25C366.656 172.016 367.234 172.422 368.141 172.422C369.031 172.422 369.656 172.016 369.656 171.25C369.656 170.484 369.031 170.062 368.141 170.062ZM376.062 165.219V174.281H374.078V172.781H372.141V171.188H374.078V169.938H372.172V168.344H374.078V165.219H376.062ZM371.234 174.453C374.25 174.453 376.141 175.375 376.141 176.953C376.141 178.5 374.25 179.438 371.234 179.438C368.203 179.438 366.328 178.5 366.328 176.953C366.328 175.375 368.203 174.453 371.234 174.453ZM371.234 175.953C369.422 175.969 368.422 176.281 368.422 176.953C368.422 177.594 369.422 177.938 371.234 177.938C373.016 177.938 374 177.594 374 176.953C374 176.281 373.016 175.969 371.234 175.953Z" fill="#0A0A0A"/>
<path d="M362.234 165.219V173.438H360.25V170.125H358V168.5H360.25V165.219H362.234ZM362.234 174.031V179.281H352.672V174.031H362.234ZM354.672 175.594V177.688H360.281V175.594H354.672ZM358.453 165.938V167.547H355.625C355.656 169.164 356.664 170.891 358.891 171.625L357.906 173.203C356.328 172.68 355.242 171.648 354.625 170.359C353.992 171.781 352.859 172.914 351.188 173.453L350.172 171.891C352.469 171.156 353.539 169.344 353.594 167.547H350.734V165.938H358.453Z" fill="#0A0A0A"/>
<path d="M348.406 165.219V172.531H346.422V171.109H343.797V172.125H337.031V165.828H339.031V167.484H341.828V165.828H343.797V167.031H346.422V165.219H348.406ZM348.406 173.062V176.859H340.953V177.719H348.828V179.281H338.953V175.406H346.422V174.594H338.938V173.062H348.406ZM339.031 170.562H341.828V169H339.031V170.562ZM343.797 169.609H346.422V168.516H343.797V169.609Z" fill="#0A0A0A"/>
</g>
<g filter="url(#filter12_d_6415_252488)">
<path d="M80 252C80 240.954 88.9543 232 100 232H260C271.046 232 280 240.954 280 252V402C280 413.046 271.046 422 260 422H100C88.9543 422 80 413.046 80 402V252Z" fill="#F9F9F9"/>
<path d="M260 228C273.255 228 284 238.745 284 252V402C284 415.255 273.255 426 260 426H100C86.7452 426 76 415.255 76 402V252C76 238.745 86.7452 228 100 228H260Z" stroke="white" stroke-width="8"/>
<g filter="url(#filter13_d_6415_252488)">
<rect x="108" y="367" width="140" height="34" rx="17" fill="white"/>
<rect x="108" y="367" width="140" height="34" rx="17" fill="white"/>
<rect x="108" y="367" width="140" height="34" rx="17" fill="white"/>
<rect x="108" y="367" width="140" height="34" rx="17" fill="white"/>
</g>
<rect x="217" y="380" width="6" height="6" rx="3" fill="#BDBDBD"/>
<rect x="200" y="380" width="6" height="6" rx="3" fill="#BDBDBD"/>
<rect x="184" y="380" width="6" height="6" rx="3" fill="#BDBDBD"/>
<rect x="165" y="380" width="6" height="6" rx="3" fill="#BDBDBD"/>
<rect x="175" y="380" width="6" height="6" rx="3" fill="#BDBDBD"/>
<rect x="148" y="380" width="6" height="6" rx="3" fill="#BDBDBD"/>
<g filter="url(#filter14_i_6415_252488)">
<circle cx="125" cy="384" r="11" fill="#D9D9D9"/>
</g>
<path d="M124.973 389.137C122.799 389.137 121.24 387.934 121.199 386.211H123.277C123.318 386.949 124.029 387.441 124.986 387.441C125.971 387.441 126.682 386.881 126.668 386.088C126.682 385.281 125.957 384.707 124.795 384.707H123.879V383.189H124.795C125.766 383.189 126.449 382.656 126.449 381.877C126.449 381.125 125.875 380.605 125 380.605C124.125 380.605 123.4 381.098 123.373 381.85H121.404C121.432 380.141 122.977 378.965 125 378.965C127.064 378.965 128.445 380.182 128.432 381.754C128.445 382.861 127.666 383.654 126.559 383.846V383.928C128.008 384.105 128.814 384.994 128.801 386.225C128.814 387.92 127.201 389.137 124.973 389.137Z" fill="#919191"/>
<g filter="url(#filter15_d_6415_252488)">
<rect x="108" y="325" width="140" height="34" rx="17" fill="white"/>
<rect x="108" y="325" width="140" height="34" rx="17" fill="white"/>
<rect x="108" y="325" width="140" height="34" rx="17" fill="white"/>
<rect x="108" y="325" width="140" height="34" rx="17" fill="white"/>
</g>
<rect x="220" y="339" width="6" height="6" rx="3" fill="#747474"/>
<rect x="210" y="339" width="6" height="6" rx="3" fill="#747474"/>
<rect x="194" y="339" width="6" height="6" rx="3" fill="#747474"/>
<rect x="184" y="339" width="6" height="6" rx="3" fill="#747474"/>
<rect x="174" y="339" width="6" height="6" rx="3" fill="#747474"/>
<rect x="158" y="339" width="6" height="6" rx="3" fill="#747474"/>
<rect x="148" y="339" width="6" height="6" rx="3" fill="#747474"/>
<g filter="url(#filter16_d_6415_252488)">
<circle cx="125" cy="342" r="11" fill="#7A53EC"/>
</g>
<path d="M122.828 344.07L128.839 338.06C129.424 337.474 130.374 337.474 130.96 338.06C131.546 338.646 131.546 339.595 130.96 340.181L124.949 346.192L122.828 344.07Z" fill="#FF44BF"/>
<path d="M121.061 342.303C120.475 341.717 120.475 340.767 121.061 340.182C121.646 339.596 122.596 339.596 123.182 340.182L126.364 343.364L124.243 345.485L121.061 342.303Z" fill="#FF44BF"/>
<g filter="url(#filter17_d_6415_252488)">
<rect x="108" y="283" width="140" height="34" rx="17" fill="white"/>
<rect x="108" y="283" width="140" height="34" rx="17" fill="white"/>
<rect x="108" y="283" width="140" height="34" rx="17" fill="white"/>
<rect x="108" y="283" width="140" height="34" rx="17" fill="white"/>
<rect x="220" y="297" width="6" height="6" rx="3" fill="#BDBDBD"/>
<rect x="210" y="297" width="6" height="6" rx="3" fill="#BDBDBD"/>
<rect x="200" y="297" width="6" height="6" rx="3" fill="#BDBDBD"/>
<rect x="184" y="297" width="6" height="6" rx="3" fill="#BDBDBD"/>
<rect x="158" y="297" width="6" height="6" rx="3" fill="#BDBDBD"/>
<rect x="168" y="297" width="6" height="6" rx="3" fill="#BDBDBD"/>
<rect x="148" y="297" width="6" height="6" rx="3" fill="#BDBDBD"/>
<g filter="url(#filter18_i_6415_252488)">
<circle cx="125" cy="300" r="11" fill="#D9D9D9"/>
</g>
<path d="M126.764 295.102V305H124.699V297.057H124.645L122.375 298.479V296.66L124.822 295.102H126.764Z" fill="#919191"/>
</g>
<g filter="url(#filter19_d_6415_252488)">
<path d="M224 319C224 312.373 229.373 307 236 307H240C246.627 307 252 312.373 252 319C252 325.627 246.627 331 240 331H224V319Z" fill="#FF44BF"/>
</g>
<path d="M238.047 324.156C235.688 324.156 233.969 322.766 233.922 320.812H236.203C236.25 321.703 237.062 322.297 238.047 322.297C239.219 322.297 240.047 321.469 240.047 320.297C240.047 319.094 239.203 318.266 238.016 318.25C237.172 318.25 236.578 318.562 236.234 319.203H234.109L234.719 312.688H241.688V314.609H236.656L236.344 317.469H236.438C236.859 316.906 237.703 316.516 238.703 316.516C240.781 316.516 242.328 318.062 242.328 320.234C242.328 322.516 240.594 324.156 238.047 324.156Z" fill="white"/>
<path d="M177.188 247.531V249.109H169.281V247.531H172.344V246.094H174.328V247.531H177.188ZM173.312 249.578C175.266 249.594 176.672 250.672 176.688 252.25C176.672 253.844 175.266 254.906 173.312 254.891C171.344 254.906 169.969 253.844 169.984 252.25C169.969 250.672 171.344 249.594 173.312 249.578ZM173.312 251.062C172.406 251.062 171.828 251.484 171.844 252.25C171.828 253.016 172.406 253.422 173.312 253.422C174.203 253.422 174.828 253.016 174.828 252.25C174.828 251.484 174.203 251.062 173.312 251.062ZM181.234 246.219V255.281H179.25V253.781H177.312V252.188H179.25V250.938H177.344V249.344H179.25V246.219H181.234ZM176.406 255.453C179.422 255.453 181.312 256.375 181.312 257.953C181.312 259.5 179.422 260.438 176.406 260.438C173.375 260.438 171.5 259.5 171.5 257.953C171.5 256.375 173.375 255.453 176.406 255.453ZM176.406 256.953C174.594 256.969 173.594 257.281 173.594 257.953C173.594 258.594 174.594 258.938 176.406 258.938C178.188 258.938 179.172 258.594 179.172 257.953C179.172 257.281 178.188 256.969 176.406 256.953Z" fill="#0A0A0A"/>
<path d="M162.969 247.328C162.969 249 164.672 250.859 167.938 251.266L167.156 252.875C164.672 252.516 162.852 251.367 161.922 249.828C160.984 251.367 159.18 252.516 156.719 252.875L155.922 251.266C159.156 250.859 160.875 249 160.875 247.328V246.641H162.969V247.328ZM168.391 253.953V255.578H162.859V260.438H160.891V255.578H155.422V253.953H168.391Z" fill="#0A0A0A"/>
<path d="M153.578 246.219V254.438H151.594V251.125H149.344V249.5H151.594V246.219H153.578ZM153.578 255.031V260.281H144.016V255.031H153.578ZM146.016 256.594V258.688H151.625V256.594H146.016ZM149.797 246.938V248.547H146.969C147 250.164 148.008 251.891 150.234 252.625L149.25 254.203C147.672 253.68 146.586 252.648 145.969 251.359C145.336 252.781 144.203 253.914 142.531 254.453L141.516 252.891C143.812 252.156 144.883 250.344 144.938 248.547H142.078V246.938H149.797Z" fill="#0A0A0A"/>
<path d="M129.531 248.234C129.516 250.016 130.531 251.734 132.875 252.438L131.875 254C130.258 253.484 129.141 252.477 128.5 251.172C127.859 252.578 126.703 253.68 125.031 254.219L124.031 252.656C126.406 251.891 127.453 250.047 127.453 248.234V246.875H129.531V248.234ZM135.984 255.312V260.438H133.984V256.906H126.203V255.312H135.984ZM135.984 246.219V254.703H133.984V246.219H135.984Z" fill="#0A0A0A"/>
<path d="M118.219 247.25V248.141C118.219 249.125 118.219 250.547 117.891 252.312L115.938 252.125C116.188 250.758 116.25 249.727 116.266 248.875H110.906V247.25H118.219ZM114.688 250.531V253.25C116.102 253.195 117.555 253.086 118.891 252.891L119 254.328C116.047 254.875 112.703 254.922 110.234 254.938L110.062 253.344C110.859 253.344 111.758 253.344 112.703 253.312V250.531H114.688ZM121.703 246.219V250.547H123.422V252.219H121.703V256.859H119.656V246.219H121.703ZM122.141 258.594V260.188H112.156V255.906H114.156V258.594H122.141Z" fill="#0A0A0A"/>
<path d="M108.641 246.234V254.562H106.75V251.125H105.469V254.5H103.594V246.484H105.469V249.5H106.75V246.234H108.641ZM108.641 255.109V260.438H106.656V256.719H98.7188V255.109H108.641ZM102.625 247.203C102.625 250.781 100.906 253.188 97.2031 254.656L96.2656 253.172C98.9453 252.188 100.289 250.719 100.594 248.797H96.9531V247.203H102.625Z" fill="#0A0A0A"/>
</g>
<g filter="url(#filter20_d_6415_252488)">
<path d="M320 371C320 359.954 328.954 351 340 351H500C511.046 351 520 359.954 520 371V491C520 502.046 511.046 511 500 511H340C328.954 511 320 502.046 320 491V371Z" fill="#F9F9F9"/>
<path d="M500 347C513.255 347 524 357.745 524 371V491C524 504.255 513.255 515 500 515H340C326.745 515 316 504.255 316 491V371C316 357.745 326.745 347 340 347H500Z" stroke="white" stroke-width="8"/>
<g filter="url(#filter21_d_6415_252488)">
<rect x="356" y="430" width="120" height="32" rx="8" fill="#D9D9D9"/>
<rect x="337" y="430" width="165" height="32" rx="10" fill="white"/>
<g filter="url(#filter22_d_6415_252488)">
<path d="M337 440C337 434.477 341.477 430 347 430H427C432.523 430 437 434.477 437 440V452C437 457.523 432.523 462 427 462H347C341.477 462 337 457.523 337 452V440Z" fill="#7A53EC"/>
</g>
<rect x="469" y="440" width="1" height="12" fill="#D9D9D9" fill-opacity="0.3"/>
<rect x="402" y="440" width="1" height="12" fill="#D9D9D9" fill-opacity="0.3"/>
<rect x="369" y="440" width="1" height="12" fill="#D9D9D9" fill-opacity="0.3"/>
</g>
<g filter="url(#filter23_d_6415_252488)">
<path d="M437 413C437 406.373 442.373 401 449 401H457C463.627 401 469 406.373 469 413C469 419.627 463.627 425 457 425H437V413Z" fill="#FF44BF"/>
</g>
<path d="M452.078 418.156C449.594 418.156 447.812 416.781 447.766 414.812H450.141C450.188 415.656 451 416.219 452.094 416.219C453.219 416.219 454.031 415.578 454.016 414.672C454.031 413.75 453.203 413.094 451.875 413.094H450.828V411.359H451.875C452.984 411.359 453.766 410.75 453.766 409.859C453.766 409 453.109 408.406 452.109 408.406C451.109 408.406 450.281 408.969 450.25 409.828H448C448.031 407.875 449.797 406.531 452.109 406.531C454.469 406.531 456.047 407.922 456.031 409.719C456.047 410.984 455.156 411.891 453.891 412.109V412.203C455.547 412.406 456.469 413.422 456.453 414.828C456.469 416.766 454.625 418.156 452.078 418.156Z" fill="white"/>
<path d="M417.188 366.531V368.109H409.281V366.531H412.344V365.094H414.328V366.531H417.188ZM413.312 368.578C415.266 368.594 416.672 369.672 416.688 371.25C416.672 372.844 415.266 373.906 413.312 373.891C411.344 373.906 409.969 372.844 409.984 371.25C409.969 369.672 411.344 368.594 413.312 368.578ZM413.312 370.062C412.406 370.062 411.828 370.484 411.844 371.25C411.828 372.016 412.406 372.422 413.312 372.422C414.203 372.422 414.828 372.016 414.828 371.25C414.828 370.484 414.203 370.062 413.312 370.062ZM421.234 365.219V374.281H419.25V372.781H417.312V371.188H419.25V369.938H417.344V368.344H419.25V365.219H421.234ZM416.406 374.453C419.422 374.453 421.312 375.375 421.312 376.953C421.312 378.5 419.422 379.438 416.406 379.438C413.375 379.438 411.5 378.5 411.5 376.953C411.5 375.375 413.375 374.453 416.406 374.453ZM416.406 375.953C414.594 375.969 413.594 376.281 413.594 376.953C413.594 377.594 414.594 377.938 416.406 377.938C418.188 377.938 419.172 377.594 419.172 376.953C419.172 376.281 418.188 375.969 416.406 375.953Z" fill="#0A0A0A"/>
<path d="M402.969 366.328C402.969 368 404.672 369.859 407.938 370.266L407.156 371.875C404.672 371.516 402.852 370.367 401.922 368.828C400.984 370.367 399.18 371.516 396.719 371.875L395.922 370.266C399.156 369.859 400.875 368 400.875 366.328V365.641H402.969V366.328ZM408.391 372.953V374.578H402.859V379.438H400.891V374.578H395.422V372.953H408.391Z" fill="#0A0A0A"/>
<path d="M393.578 365.219V373.438H391.594V370.125H389.344V368.5H391.594V365.219H393.578ZM393.578 374.031V379.281H384.016V374.031H393.578ZM386.016 375.594V377.688H391.625V375.594H386.016ZM389.797 365.938V367.547H386.969C387 369.164 388.008 370.891 390.234 371.625L389.25 373.203C387.672 372.68 386.586 371.648 385.969 370.359C385.336 371.781 384.203 372.914 382.531 373.453L381.516 371.891C383.812 371.156 384.883 369.344 384.938 367.547H382.078V365.938H389.797Z" fill="#0A0A0A"/>
<path d="M376.062 365.219V372.531H374.078V371.109H371.453V372.125H364.688V365.828H366.688V367.484H369.484V365.828H371.453V367.031H374.078V365.219H376.062ZM376.062 373.062V376.859H368.609V377.719H376.484V379.281H366.609V375.406H374.078V374.594H366.594V373.062H376.062ZM366.688 370.562H369.484V369H366.688V370.562ZM371.453 369.609H374.078V368.516H371.453V369.609Z" fill="#0A0A0A"/>
<path d="M362.578 365.219V379.438H360.703V365.219H362.578ZM359.609 365.531V378.812H357.719V374.125H355.703V372.516H357.719V370.578H355.969C355.305 372.922 353.867 374.906 351.203 376.484L350.031 375.078C352.914 373.375 354.18 371.305 354.453 368.516H350.859V366.906H356.438C356.438 367.617 356.391 368.305 356.312 368.969H357.719V365.531H359.609Z" fill="#0A0A0A"/>
<path d="M347.703 365.219V369.094H349.625V370.734H347.703V375.5H345.703V365.219H347.703ZM343.391 366.359V367.953H338.969V371.547C341.539 371.531 342.953 371.453 344.547 371.109L344.75 372.703C342.969 373.078 341.328 373.156 338.172 373.156H336.969V366.359H343.391ZM348.219 377.594V379.188H338.484V374.406H340.469V377.594H348.219Z" fill="#0A0A0A"/>
</g>
<g filter="url(#filter24_d_6415_252488)">
<path d="M80 482C80 470.954 88.9543 462 100 462H260C271.046 462 280 470.954 280 482V602C280 613.046 271.046 622 260 622H100C88.9543 622 80 613.046 80 602V482Z" fill="#F9F9F9"/>
<path d="M260 458C273.255 458 284 468.745 284 482V602C284 615.255 273.255 626 260 626H100C86.7452 626 76 615.255 76 602V482C76 468.745 86.7452 458 100 458H260Z" stroke="white" stroke-width="8"/>
<g filter="url(#filter25_d_6415_252488)">
<path d="M109 542C109 537.582 112.582 534 117 534H221C225.418 534 229 537.582 229 542V586C229 590.418 225.418 594 221 594H109V542Z" fill="white"/>
<rect x="196" y="548" width="10" height="6" rx="3" fill="#747474"/>
<rect x="186" y="548" width="6" height="6" rx="3" fill="#7A53EC"/>
<rect x="170" y="548" width="6" height="6" rx="3" fill="#747474"/>
<rect x="150" y="548" width="16" height="6" rx="3" fill="#7A53EC"/>
<rect x="134" y="548" width="6" height="6" rx="3" fill="#747474"/>
<rect x="124" y="548" width="6" height="6" rx="3" fill="#7A53EC"/>
</g>
<g filter="url(#filter26_d_6415_252488)">
<path d="M213 528C213 521.373 218.373 516 225 516H240C246.627 516 252 521.373 252 528C252 534.627 246.627 540 240 540H213V528Z" fill="#FF44BF"/>
</g>
<path d="M228.766 521.688V533H226.406V523.922H226.344L223.75 525.547V523.469L226.547 521.688H228.766ZM235.781 533.156C232.953 533.156 231.234 531.047 231.234 527.344C231.234 523.641 232.953 521.531 235.781 521.531C238.609 521.531 240.328 523.656 240.328 527.344C240.328 531.062 238.609 533.156 235.781 533.156ZM235.781 531.219C237.094 531.219 237.938 529.953 237.922 527.344C237.922 524.766 237.094 523.453 235.781 523.453C234.469 523.453 233.641 524.766 233.641 527.344C233.625 529.953 234.469 531.219 235.781 531.219Z" fill="white"/>
<path d="M132.016 477.531V479.109H124.109V477.531H127.172V476.094H129.156V477.531H132.016ZM128.141 479.578C130.094 479.594 131.5 480.672 131.516 482.25C131.5 483.844 130.094 484.906 128.141 484.891C126.172 484.906 124.797 483.844 124.812 482.25C124.797 480.672 126.172 479.594 128.141 479.578ZM128.141 481.062C127.234 481.062 126.656 481.484 126.672 482.25C126.656 483.016 127.234 483.422 128.141 483.422C129.031 483.422 129.656 483.016 129.656 482.25C129.656 481.484 129.031 481.062 128.141 481.062ZM136.062 476.219V485.281H134.078V483.781H132.141V482.188H134.078V480.938H132.172V479.344H134.078V476.219H136.062ZM131.234 485.453C134.25 485.453 136.141 486.375 136.141 487.953C136.141 489.5 134.25 490.438 131.234 490.438C128.203 490.438 126.328 489.5 126.328 487.953C126.328 486.375 128.203 485.453 131.234 485.453ZM131.234 486.953C129.422 486.969 128.422 487.281 128.422 487.953C128.422 488.594 129.422 488.938 131.234 488.938C133.016 488.938 134 488.594 134 487.953C134 487.281 133.016 486.969 131.234 486.953Z" fill="#0A0A0A"/>
<path d="M117.766 476.594C117.766 477.984 119.406 479.375 122.578 479.719L121.922 481.219C119.445 480.945 117.641 480.016 116.734 478.703C115.805 480.016 114.008 480.945 111.562 481.219L110.891 479.719C114.078 479.375 115.703 477.984 115.719 476.594V476.297H117.766V476.594ZM123.219 481.812V483.375H117.719V484.312H121.641V487.984H113.719V488.844H122.016V490.344H111.766V486.578H119.672V485.828H111.75V484.312H115.719V483.375H110.25V481.812H123.219Z" fill="#0A0A0A"/>
<path d="M101.797 479.438C101.797 482.109 102.875 484.703 105.25 485.734L104.031 487.328C102.453 486.555 101.398 485.141 100.812 483.391C100.188 485.25 99.0938 486.773 97.4688 487.578L96.2188 485.953C98.6562 484.859 99.7656 482.109 99.7812 479.438V477.312H101.797V479.438ZM108.422 476.219V490.469H106.453V482.297H103.656V480.688H106.453V476.219H108.422Z" fill="#0A0A0A"/>
</g>
</g>
<defs>
<filter id="filter0_d_6415_252488" x="64" y="20" width="232" height="192" filterUnits="userSpaceOnUse" color-interpolation-filters="sRGB">
<feFlood flood-opacity="0" result="BackgroundImageFix"/>
<feColorMatrix in="SourceAlpha" type="matrix" values="0 0 0 0 0 0 0 0 0 0 0 0 0 0 0 0 0 0 127 0" result="hardAlpha"/>
<feOffset dy="4"/>
<feGaussianBlur stdDeviation="4"/>
<feComposite in2="hardAlpha" operator="out"/>
<feColorMatrix type="matrix" values="0 0 0 0 0.270588 0 0 0 0 0.101961 0 0 0 0 0.368627 0 0 0 0.15 0"/>
<feBlend mode="normal" in2="BackgroundImageFix" result="effect1_dropShadow_6415_252488"/>
<feBlend mode="normal" in="SourceGraphic" in2="effect1_dropShadow_6415_252488" result="shape"/>
</filter>
<filter id="filter1_d_6415_252488" x="120" y="119" width="120" height="24" filterUnits="userSpaceOnUse" color-interpolation-filters="sRGB">
<feFlood flood-opacity="0" result="BackgroundImageFix"/>
<feColorMatrix in="SourceAlpha" type="matrix" values="0 0 0 0 0 0 0 0 0 0 0 0 0 0 0 0 0 0 127 0" result="hardAlpha"/>
<feOffset dy="4"/>
<feComposite in2="hardAlpha" operator="out"/>
<feColorMatrix type="matrix" values="0 0 0 0 0.604704 0 0 0 0 0.604704 0 0 0 0 0.604704 0 0 0 0.1 0"/>
<feBlend mode="normal" in2="BackgroundImageFix" result="effect1_dropShadow_6415_252488"/>
<feBlend mode="normal" in="SourceGraphic" in2="effect1_dropShadow_6415_252488" result="shape"/>
</filter>
<filter id="filter2_d_6415_252488" x="132" y="119" width="20" height="21" filterUnits="userSpaceOnUse" color-interpolation-filters="sRGB">
<feFlood flood-opacity="0" result="BackgroundImageFix"/>
<feColorMatrix in="SourceAlpha" type="matrix" values="0 0 0 0 0 0 0 0 0 0 0 0 0 0 0 0 0 0 127 0" result="hardAlpha"/>
<feOffset dy="1"/>
<feComposite in2="hardAlpha" operator="out"/>
<feColorMatrix type="matrix" values="0 0 0 0 0.359132 0 0 0 0 0.299222 0 0 0 0 0.898324 0 0 0 0.4 0"/>
<feBlend mode="normal" in2="BackgroundImageFix" result="effect1_dropShadow_6415_252488"/>
<feBlend mode="normal" in="SourceGraphic" in2="effect1_dropShadow_6415_252488" result="shape"/>
</filter>
<filter id="filter3_d_6415_252488" x="182" y="119" width="20" height="21" filterUnits="userSpaceOnUse" color-interpolation-filters="sRGB">
<feFlood flood-opacity="0" result="BackgroundImageFix"/>
<feColorMatrix in="SourceAlpha" type="matrix" values="0 0 0 0 0 0 0 0 0 0 0 0 0 0 0 0 0 0 127 0" result="hardAlpha"/>
<feOffset dy="1"/>
<feComposite in2="hardAlpha" operator="out"/>
<feColorMatrix type="matrix" values="0 0 0 0 0.359132 0 0 0 0 0.299222 0 0 0 0 0.898324 0 0 0 0.4 0"/>
<feBlend mode="normal" in2="BackgroundImageFix" result="effect1_dropShadow_6415_252488"/>
<feBlend mode="normal" in="SourceGraphic" in2="effect1_dropShadow_6415_252488" result="shape"/>
</filter>
<filter id="filter4_d_6415_252488" x="137" y="86" width="39" height="28" filterUnits="userSpaceOnUse" color-interpolation-filters="sRGB">
<feFlood flood-opacity="0" result="BackgroundImageFix"/>
<feColorMatrix in="SourceAlpha" type="matrix" values="0 0 0 0 0 0 0 0 0 0 0 0 0 0 0 0 0 0 127 0" result="hardAlpha"/>
<feOffset dy="4"/>
<feComposite in2="hardAlpha" operator="out"/>
<feColorMatrix type="matrix" values="0 0 0 0 0.762809 0 0 0 0 0.120455 0 0 0 0 0.42022 0 0 0 0.1 0"/>
<feBlend mode="normal" in2="BackgroundImageFix" result="effect1_dropShadow_6415_252488"/>
<feBlend mode="normal" in="SourceGraphic" in2="effect1_dropShadow_6415_252488" result="shape"/>
</filter>
<filter id="filter5_d_6415_252488" x="304" y="139" width="232" height="192" filterUnits="userSpaceOnUse" color-interpolation-filters="sRGB">
<feFlood flood-opacity="0" result="BackgroundImageFix"/>
<feColorMatrix in="SourceAlpha" type="matrix" values="0 0 0 0 0 0 0 0 0 0 0 0 0 0 0 0 0 0 127 0" result="hardAlpha"/>
<feOffset dy="4"/>
<feGaussianBlur stdDeviation="4"/>
<feComposite in2="hardAlpha" operator="out"/>
<feColorMatrix type="matrix" values="0 0 0 0 0.270588 0 0 0 0 0.101961 0 0 0 0 0.368627 0 0 0 0.15 0"/>
<feBlend mode="normal" in2="BackgroundImageFix" result="effect1_dropShadow_6415_252488"/>
<feBlend mode="normal" in="SourceGraphic" in2="effect1_dropShadow_6415_252488" result="shape"/>
</filter>
<filter id="filter6_d_6415_252488" x="406.719" y="237.088" width="26.5625" height="29.3594" filterUnits="userSpaceOnUse" color-interpolation-filters="sRGB">
<feFlood flood-opacity="0" result="BackgroundImageFix"/>
<feColorMatrix in="SourceAlpha" type="matrix" values="0 0 0 0 0 0 0 0 0 0 0 0 0 0 0 0 0 0 127 0" result="hardAlpha"/>
<feOffset dy="4"/>
<feComposite in2="hardAlpha" operator="out"/>
<feColorMatrix type="matrix" values="0 0 0 0 0.698991 0 0 0 0 0.698991 0 0 0 0 0.698991 0 0 0 0.1 0"/>
<feBlend mode="normal" in2="BackgroundImageFix" result="effect1_dropShadow_6415_252488"/>
<feBlend mode="normal" in="SourceGraphic" in2="effect1_dropShadow_6415_252488" result="shape"/>
</filter>
<filter id="filter7_d_6415_252488" x="372.719" y="237.088" width="26.5625" height="29.3594" filterUnits="userSpaceOnUse" color-interpolation-filters="sRGB">
<feFlood flood-opacity="0" result="BackgroundImageFix"/>
<feColorMatrix in="SourceAlpha" type="matrix" values="0 0 0 0 0 0 0 0 0 0 0 0 0 0 0 0 0 0 127 0" result="hardAlpha"/>
<feOffset dy="4"/>
<feComposite in2="hardAlpha" operator="out"/>
<feColorMatrix type="matrix" values="0 0 0 0 0.698991 0 0 0 0 0.698991 0 0 0 0 0.698991 0 0 0 0.1 0"/>
<feBlend mode="normal" in2="BackgroundImageFix" result="effect1_dropShadow_6415_252488"/>
<feBlend mode="normal" in="SourceGraphic" in2="effect1_dropShadow_6415_252488" result="shape"/>
</filter>
<filter id="filter8_d_6415_252488" x="338.719" y="237.088" width="26.5625" height="29.3594" filterUnits="userSpaceOnUse" color-interpolation-filters="sRGB">
<feFlood flood-opacity="0" result="BackgroundImageFix"/>
<feColorMatrix in="SourceAlpha" type="matrix" values="0 0 0 0 0 0 0 0 0 0 0 0 0 0 0 0 0 0 127 0" result="hardAlpha"/>
<feOffset dy="4"/>
<feComposite in2="hardAlpha" operator="out"/>
<feColorMatrix type="matrix" values="0 0 0 0 0.698991 0 0 0 0 0.698991 0 0 0 0 0.698991 0 0 0 0.1 0"/>
<feBlend mode="normal" in2="BackgroundImageFix" result="effect1_dropShadow_6415_252488"/>
<feBlend mode="normal" in="SourceGraphic" in2="effect1_dropShadow_6415_252488" result="shape"/>
</filter>
<filter id="filter9_d_6415_252488" x="474.719" y="237.088" width="26.5625" height="29.3594" filterUnits="userSpaceOnUse" color-interpolation-filters="sRGB">
<feFlood flood-opacity="0" result="BackgroundImageFix"/>
<feColorMatrix in="SourceAlpha" type="matrix" values="0 0 0 0 0 0 0 0 0 0 0 0 0 0 0 0 0 0 127 0" result="hardAlpha"/>
<feOffset dy="4"/>
<feComposite in2="hardAlpha" operator="out"/>
<feColorMatrix type="matrix" values="0 0 0 0 0.698991 0 0 0 0 0.698991 0 0 0 0 0.698991 0 0 0 0.1 0"/>
<feBlend mode="normal" in2="BackgroundImageFix" result="effect1_dropShadow_6415_252488"/>
<feBlend mode="normal" in="SourceGraphic" in2="effect1_dropShadow_6415_252488" result="shape"/>
</filter>
<filter id="filter10_d_6415_252488" x="440.719" y="237.088" width="26.5625" height="29.3594" filterUnits="userSpaceOnUse" color-interpolation-filters="sRGB">
<feFlood flood-opacity="0" result="BackgroundImageFix"/>
<feColorMatrix in="SourceAlpha" type="matrix" values="0 0 0 0 0 0 0 0 0 0 0 0 0 0 0 0 0 0 127 0" result="hardAlpha"/>
<feOffset dy="4"/>
<feComposite in2="hardAlpha" operator="out"/>
<feColorMatrix type="matrix" values="0 0 0 0 0.698991 0 0 0 0 0.698991 0 0 0 0 0.698991 0 0 0 0.1 0"/>
<feBlend mode="normal" in2="BackgroundImageFix" result="effect1_dropShadow_6415_252488"/>
<feBlend mode="normal" in="SourceGraphic" in2="effect1_dropShadow_6415_252488" result="shape"/>
</filter>
<filter id="filter11_d_6415_252488" x="417" y="205" width="46" height="28" filterUnits="userSpaceOnUse" color-interpolation-filters="sRGB">
<feFlood flood-opacity="0" result="BackgroundImageFix"/>
<feColorMatrix in="SourceAlpha" type="matrix" values="0 0 0 0 0 0 0 0 0 0 0 0 0 0 0 0 0 0 127 0" result="hardAlpha"/>
<feOffset dy="4"/>
<feComposite in2="hardAlpha" operator="out"/>
<feColorMatrix type="matrix" values="0 0 0 0 0.604704 0 0 0 0 0.604704 0 0 0 0 0.604704 0 0 0 0.1 0"/>
<feBlend mode="normal" in2="BackgroundImageFix" result="effect1_dropShadow_6415_252488"/>
<feBlend mode="normal" in="SourceGraphic" in2="effect1_dropShadow_6415_252488" result="shape"/>
</filter>
<filter id="filter12_d_6415_252488" x="64" y="220" width="232" height="222" filterUnits="userSpaceOnUse" color-interpolation-filters="sRGB">
<feFlood flood-opacity="0" result="BackgroundImageFix"/>
<feColorMatrix in="SourceAlpha" type="matrix" values="0 0 0 0 0 0 0 0 0 0 0 0 0 0 0 0 0 0 127 0" result="hardAlpha"/>
<feOffset dy="4"/>
<feGaussianBlur stdDeviation="4"/>
<feComposite in2="hardAlpha" operator="out"/>
<feColorMatrix type="matrix" values="0 0 0 0 0.270588 0 0 0 0 0.101961 0 0 0 0 0.368627 0 0 0 0.15 0"/>
<feBlend mode="normal" in2="BackgroundImageFix" result="effect1_dropShadow_6415_252488"/>
<feBlend mode="normal" in="SourceGraphic" in2="effect1_dropShadow_6415_252488" result="shape"/>
</filter>
<filter id="filter13_d_6415_252488" x="108" y="367" width="140" height="38" filterUnits="userSpaceOnUse" color-interpolation-filters="sRGB">
<feFlood flood-opacity="0" result="BackgroundImageFix"/>
<feColorMatrix in="SourceAlpha" type="matrix" values="0 0 0 0 0 0 0 0 0 0 0 0 0 0 0 0 0 0 127 0" result="hardAlpha"/>
<feOffset dy="4"/>
<feComposite in2="hardAlpha" operator="out"/>
<feColorMatrix type="matrix" values="0 0 0 0 0.698991 0 0 0 0 0.698991 0 0 0 0 0.698991 0 0 0 0.1 0"/>
<feBlend mode="normal" in2="BackgroundImageFix" result="effect1_dropShadow_6415_252488"/>
<feBlend mode="normal" in="SourceGraphic" in2="effect1_dropShadow_6415_252488" result="shape"/>
</filter>
<filter id="filter14_i_6415_252488" x="114" y="373" width="22" height="22" filterUnits="userSpaceOnUse" color-interpolation-filters="sRGB">
<feFlood flood-opacity="0" result="BackgroundImageFix"/>
<feBlend mode="normal" in="SourceGraphic" in2="BackgroundImageFix" result="shape"/>
<feColorMatrix in="SourceAlpha" type="matrix" values="0 0 0 0 0 0 0 0 0 0 0 0 0 0 0 0 0 0 127 0" result="hardAlpha"/>
<feOffset dy="2"/>
<feComposite in2="hardAlpha" operator="arithmetic" k2="-1" k3="1"/>
<feColorMatrix type="matrix" values="0 0 0 0 0.500358 0 0 0 0 0.500358 0 0 0 0 0.500358 0 0 0 0.1 0"/>
<feBlend mode="normal" in2="shape" result="effect1_innerShadow_6415_252488"/>
</filter>
<filter id="filter15_d_6415_252488" x="108" y="325" width="140" height="38" filterUnits="userSpaceOnUse" color-interpolation-filters="sRGB">
<feFlood flood-opacity="0" result="BackgroundImageFix"/>
<feColorMatrix in="SourceAlpha" type="matrix" values="0 0 0 0 0 0 0 0 0 0 0 0 0 0 0 0 0 0 127 0" result="hardAlpha"/>
<feOffset dy="4"/>
<feComposite in2="hardAlpha" operator="out"/>
<feColorMatrix type="matrix" values="0 0 0 0 0.698991 0 0 0 0 0.698991 0 0 0 0 0.698991 0 0 0 0.1 0"/>
<feBlend mode="normal" in2="BackgroundImageFix" result="effect1_dropShadow_6415_252488"/>
<feBlend mode="normal" in="SourceGraphic" in2="effect1_dropShadow_6415_252488" result="shape"/>
</filter>
<filter id="filter16_d_6415_252488" x="114" y="331" width="22" height="24" filterUnits="userSpaceOnUse" color-interpolation-filters="sRGB">
<feFlood flood-opacity="0" result="BackgroundImageFix"/>
<feColorMatrix in="SourceAlpha" type="matrix" values="0 0 0 0 0 0 0 0 0 0 0 0 0 0 0 0 0 0 127 0" result="hardAlpha"/>
<feOffset dy="2"/>
<feComposite in2="hardAlpha" operator="out"/>
<feColorMatrix type="matrix" values="0 0 0 0 0.501961 0 0 0 0 0.501961 0 0 0 0 0.501961 0 0 0 0.1 0"/>
<feBlend mode="normal" in2="BackgroundImageFix" result="effect1_dropShadow_6415_252488"/>
<feBlend mode="normal" in="SourceGraphic" in2="effect1_dropShadow_6415_252488" result="shape"/>
</filter>
<filter id="filter17_d_6415_252488" x="108" y="283" width="140" height="38" filterUnits="userSpaceOnUse" color-interpolation-filters="sRGB">
<feFlood flood-opacity="0" result="BackgroundImageFix"/>
<feColorMatrix in="SourceAlpha" type="matrix" values="0 0 0 0 0 0 0 0 0 0 0 0 0 0 0 0 0 0 127 0" result="hardAlpha"/>
<feOffset dy="4"/>
<feComposite in2="hardAlpha" operator="out"/>
<feColorMatrix type="matrix" values="0 0 0 0 0.698991 0 0 0 0 0.698991 0 0 0 0 0.698991 0 0 0 0.1 0"/>
<feBlend mode="normal" in2="BackgroundImageFix" result="effect1_dropShadow_6415_252488"/>
<feBlend mode="normal" in="SourceGraphic" in2="effect1_dropShadow_6415_252488" result="shape"/>
</filter>
<filter id="filter18_i_6415_252488" x="114" y="289" width="22" height="22" filterUnits="userSpaceOnUse" color-interpolation-filters="sRGB">
<feFlood flood-opacity="0" result="BackgroundImageFix"/>
<feBlend mode="normal" in="SourceGraphic" in2="BackgroundImageFix" result="shape"/>
<feColorMatrix in="SourceAlpha" type="matrix" values="0 0 0 0 0 0 0 0 0 0 0 0 0 0 0 0 0 0 127 0" result="hardAlpha"/>
<feOffset dy="2"/>
<feComposite in2="hardAlpha" operator="arithmetic" k2="-1" k3="1"/>
<feColorMatrix type="matrix" values="0 0 0 0 0.500358 0 0 0 0 0.500358 0 0 0 0 0.500358 0 0 0 0.1 0"/>
<feBlend mode="normal" in2="shape" result="effect1_innerShadow_6415_252488"/>
</filter>
<filter id="filter19_d_6415_252488" x="224" y="307" width="28" height="28" filterUnits="userSpaceOnUse" color-interpolation-filters="sRGB">
<feFlood flood-opacity="0" result="BackgroundImageFix"/>
<feColorMatrix in="SourceAlpha" type="matrix" values="0 0 0 0 0 0 0 0 0 0 0 0 0 0 0 0 0 0 127 0" result="hardAlpha"/>
<feOffset dy="4"/>
<feComposite in2="hardAlpha" operator="out"/>
<feColorMatrix type="matrix" values="0 0 0 0 0.604704 0 0 0 0 0.604704 0 0 0 0 0.604704 0 0 0 0.1 0"/>
<feBlend mode="normal" in2="BackgroundImageFix" result="effect1_dropShadow_6415_252488"/>
<feBlend mode="normal" in="SourceGraphic" in2="effect1_dropShadow_6415_252488" result="shape"/>
</filter>
<filter id="filter20_d_6415_252488" x="304" y="339" width="232" height="192" filterUnits="userSpaceOnUse" color-interpolation-filters="sRGB">
<feFlood flood-opacity="0" result="BackgroundImageFix"/>
<feColorMatrix in="SourceAlpha" type="matrix" values="0 0 0 0 0 0 0 0 0 0 0 0 0 0 0 0 0 0 127 0" result="hardAlpha"/>
<feOffset dy="4"/>
<feGaussianBlur stdDeviation="4"/>
<feComposite in2="hardAlpha" operator="out"/>
<feColorMatrix type="matrix" values="0 0 0 0 0.270588 0 0 0 0 0.101961 0 0 0 0 0.368627 0 0 0 0.15 0"/>
<feBlend mode="normal" in2="BackgroundImageFix" result="effect1_dropShadow_6415_252488"/>
<feBlend mode="normal" in="SourceGraphic" in2="effect1_dropShadow_6415_252488" result="shape"/>
</filter>
<filter id="filter21_d_6415_252488" x="337" y="430" width="165" height="36" filterUnits="userSpaceOnUse" color-interpolation-filters="sRGB">
<feFlood flood-opacity="0" result="BackgroundImageFix"/>
<feColorMatrix in="SourceAlpha" type="matrix" values="0 0 0 0 0 0 0 0 0 0 0 0 0 0 0 0 0 0 127 0" result="hardAlpha"/>
<feOffset dy="4"/>
<feComposite in2="hardAlpha" operator="out"/>
<feColorMatrix type="matrix" values="0 0 0 0 0.604704 0 0 0 0 0.604704 0 0 0 0 0.604704 0 0 0 0.1 0"/>
<feBlend mode="normal" in2="BackgroundImageFix" result="effect1_dropShadow_6415_252488"/>
<feBlend mode="normal" in="SourceGraphic" in2="effect1_dropShadow_6415_252488" result="shape"/>
</filter>
<filter id="filter22_d_6415_252488" x="337" y="430" width="100" height="36" filterUnits="userSpaceOnUse" color-interpolation-filters="sRGB">
<feFlood flood-opacity="0" result="BackgroundImageFix"/>
<feColorMatrix in="SourceAlpha" type="matrix" values="0 0 0 0 0 0 0 0 0 0 0 0 0 0 0 0 0 0 127 0" result="hardAlpha"/>
<feOffset dy="4"/>
<feComposite in2="hardAlpha" operator="out"/>
<feColorMatrix type="matrix" values="0 0 0 0 0.478431 0 0 0 0 0.32549 0 0 0 0 0.92549 0 0 0 0.1 0"/>
<feBlend mode="normal" in2="BackgroundImageFix" result="effect1_dropShadow_6415_252488"/>
<feBlend mode="normal" in="SourceGraphic" in2="effect1_dropShadow_6415_252488" result="shape"/>
</filter>
<filter id="filter23_d_6415_252488" x="437" y="401" width="32" height="28" filterUnits="userSpaceOnUse" color-interpolation-filters="sRGB">
<feFlood flood-opacity="0" result="BackgroundImageFix"/>
<feColorMatrix in="SourceAlpha" type="matrix" values="0 0 0 0 0 0 0 0 0 0 0 0 0 0 0 0 0 0 127 0" result="hardAlpha"/>
<feOffset dy="4"/>
<feComposite in2="hardAlpha" operator="out"/>
<feColorMatrix type="matrix" values="0 0 0 0 0.604704 0 0 0 0 0.604704 0 0 0 0 0.604704 0 0 0 0.1 0"/>
<feBlend mode="normal" in2="BackgroundImageFix" result="effect1_dropShadow_6415_252488"/>
<feBlend mode="normal" in="SourceGraphic" in2="effect1_dropShadow_6415_252488" result="shape"/>
</filter>
<filter id="filter24_d_6415_252488" x="64" y="450" width="232" height="192" filterUnits="userSpaceOnUse" color-interpolation-filters="sRGB">
<feFlood flood-opacity="0" result="BackgroundImageFix"/>
<feColorMatrix in="SourceAlpha" type="matrix" values="0 0 0 0 0 0 0 0 0 0 0 0 0 0 0 0 0 0 127 0" result="hardAlpha"/>
<feOffset dy="4"/>
<feGaussianBlur stdDeviation="4"/>
<feComposite in2="hardAlpha" operator="out"/>
<feColorMatrix type="matrix" values="0 0 0 0 0.270588 0 0 0 0 0.101961 0 0 0 0 0.368627 0 0 0 0.15 0"/>
<feBlend mode="normal" in2="BackgroundImageFix" result="effect1_dropShadow_6415_252488"/>
<feBlend mode="normal" in="SourceGraphic" in2="effect1_dropShadow_6415_252488" result="shape"/>
</filter>
<filter id="filter25_d_6415_252488" x="109" y="534" width="120" height="64" filterUnits="userSpaceOnUse" color-interpolation-filters="sRGB">
<feFlood flood-opacity="0" result="BackgroundImageFix"/>
<feColorMatrix in="SourceAlpha" type="matrix" values="0 0 0 0 0 0 0 0 0 0 0 0 0 0 0 0 0 0 127 0" result="hardAlpha"/>
<feOffset dy="4"/>
<feComposite in2="hardAlpha" operator="out"/>
<feColorMatrix type="matrix" values="0 0 0 0 0.604704 0 0 0 0 0.604704 0 0 0 0 0.604704 0 0 0 0.1 0"/>
<feBlend mode="normal" in2="BackgroundImageFix" result="effect1_dropShadow_6415_252488"/>
<feBlend mode="normal" in="SourceGraphic" in2="effect1_dropShadow_6415_252488" result="shape"/>
</filter>
<filter id="filter26_d_6415_252488" x="213" y="516" width="39" height="28" filterUnits="userSpaceOnUse" color-interpolation-filters="sRGB">
<feFlood flood-opacity="0" result="BackgroundImageFix"/>
<feColorMatrix in="SourceAlpha" type="matrix" values="0 0 0 0 0 0 0 0 0 0 0 0 0 0 0 0 0 0 127 0" result="hardAlpha"/>
<feOffset dy="4"/>
<feComposite in2="hardAlpha" operator="out"/>
<feColorMatrix type="matrix" values="0 0 0 0 0.604704 0 0 0 0 0.604704 0 0 0 0 0.604704 0 0 0 0.1 0"/>
<feBlend mode="normal" in2="BackgroundImageFix" result="effect1_dropShadow_6415_252488"/>
<feBlend mode="normal" in="SourceGraphic" in2="effect1_dropShadow_6415_252488" result="shape"/>
</filter>
<clipPath id="clip0_6415_252488">
<rect width="600" height="550" fill="white"/>
</clipPath>
</defs>
</svg>
