<svg width="1488" height="617" viewBox="0 0 1488 617" fill="none" xmlns="http://www.w3.org/2000/svg">
<path d="M1131.14 160.4C1131.26 163.829 1131.62 167.264 1131.89 170.686C1132.44 177.615 1133.04 184.545 1133.7 191.467C1135.02 205.359 1136.55 219.237 1138.31 233.083C1140.06 246.876 1142.02 260.643 1144.19 274.377C1146.36 288.04 1148.74 301.662 1151.33 315.252C1152.49 321.336 1153.7 327.413 1154.94 333.484C1145.81 330.652 1136.59 328.075 1127.32 325.741C1118.03 323.408 1108.68 321.316 1099.28 319.461C1089.84 317.599 1080.34 315.967 1070.81 314.564C1068.48 314.223 1066.14 313.889 1063.8 313.574C1061.63 313.279 1059.45 312.945 1057.26 312.84C1053.3 312.656 1048.83 313.587 1046.51 317.121C1044.47 320.208 1045.35 324.221 1047.42 327.046C1048.76 328.875 1050.54 330.324 1052.38 331.615C1054.35 332.999 1056.38 334.303 1058.38 335.634C1066.84 341.213 1075.38 346.654 1084.01 351.958C1092.65 357.261 1101.35 362.427 1110.15 367.455C1118.94 372.484 1127.82 377.374 1136.76 382.114C1140.93 384.33 1145.12 386.513 1149.34 388.663C1140.75 396.746 1132.37 405.066 1124.19 413.562C1107.53 430.849 1091.61 448.831 1075.99 467.056C1068.17 476.175 1060.43 485.353 1052.69 494.544C1050.94 496.622 1049.1 498.655 1047.46 500.825C1046.3 502.372 1045.18 504.155 1045.02 506.135C1044.85 508.075 1045.78 509.839 1047.43 510.855C1049.43 512.081 1051.83 512.042 1054 511.412C1056.58 510.671 1058.99 509.295 1061.4 508.141C1064.09 506.843 1066.79 505.538 1069.48 504.234C1074.93 501.585 1080.35 498.917 1085.76 496.216C1096.59 490.821 1107.37 485.314 1118.09 479.709C1139.52 468.492 1160.76 456.882 1181.73 444.813C1183.6 443.738 1185.47 442.643 1187.34 441.555C1181.29 458.94 1175.89 476.647 1170.96 494.531C1164.63 517.509 1159.05 540.762 1153.77 564.087C1151.12 575.756 1148.55 587.452 1145.99 599.147C1145.41 601.796 1144.75 604.444 1144.27 607.119C1143.94 609.027 1143.72 611.118 1144.24 612.94C1144.75 614.73 1145.98 615.864 1147.49 616.002C1149.3 616.166 1151.01 615.025 1152.37 613.465C1153.97 611.623 1155.26 609.289 1156.6 607.165C1158.11 604.772 1159.62 602.379 1161.12 599.98C1164.15 595.129 1167.17 590.264 1170.17 585.38C1176.16 575.612 1182.09 565.779 1187.94 555.873C1199.64 536.068 1219.5 500.031 1230.6 479.689C1231.64 477.768 1234.46 472.366 1236.31 468.839C1240.92 476.929 1245.62 484.96 1250.44 492.925C1256.46 502.877 1262.64 512.73 1268.99 522.478C1275.31 532.187 1281.8 541.785 1288.44 551.277C1291.77 556.043 1295.15 560.777 1298.56 565.49C1300.05 567.542 1301.65 569.896 1304.14 570.781C1306.05 571.462 1308.08 571.004 1309.7 569.837C1313.63 567.005 1313.77 561.944 1313.28 557.558C1312.65 551.907 1311.81 546.262 1311 540.631C1309.39 529.296 1307.59 517.988 1305.62 506.705C1303.65 495.443 1301.51 484.213 1299.19 473.015C1296.86 461.759 1294.35 450.536 1291.67 439.358C1289.76 431.393 1287.76 423.448 1285.67 415.528C1287.12 415.948 1451.56 451.762 1474.03 455.898C1478.72 456.764 1486.71 456.403 1487.88 450.3C1488.39 447.645 1487.16 444.918 1485.32 443.043C1482.6 440.263 1478.65 438.932 1475.16 437.411C1459.77 430.705 1444.37 423.998 1428.97 417.285C1413.58 410.579 1398.18 403.866 1382.79 397.159C1367.39 390.453 1352 383.746 1336.6 377.04C1326.35 372.575 1316.09 368.104 1305.83 363.64C1306.94 362.722 1308.05 361.804 1309.16 360.887C1318.54 353.066 1327.82 345.114 1336.99 337.037C1346.23 328.914 1355.34 320.661 1364.35 312.289C1373.36 303.917 1382.25 295.421 1391.03 286.807C1395.32 282.598 1399.71 278.442 1403.82 274.063C1406.51 271.204 1409.39 266.714 1406.23 263.095C1402.73 259.096 1397.04 260.696 1392.77 262.217C1387.26 264.177 1381.77 266.189 1376.29 268.248C1365.23 272.398 1354.24 276.744 1343.33 281.274C1332.38 285.824 1321.5 290.564 1310.71 295.487C1300.03 300.358 1289.43 305.419 1278.93 310.65C1274.88 312.669 1270.85 314.721 1266.82 316.786C1269.32 296.215 1271.69 275.63 1274.01 255.038C1277.12 227.491 1280.1 199.931 1282.94 172.358C1283.25 169.407 1283.71 166.431 1283.75 163.468C1283.78 161.272 1283.53 158.853 1282.2 157.024C1279.18 152.881 1273.46 154.795 1270.69 158.132C1268.69 160.544 1267.56 163.553 1266.32 166.385C1264.93 169.539 1263.55 172.685 1262.18 175.845C1259.43 182.158 1256.71 188.478 1254.01 194.811C1243.22 220.142 1232.83 245.644 1222.84 271.303C1216.31 288.092 1209.94 304.947 1203.75 321.867C1201.25 313.574 1198.74 305.288 1196.24 297.001C1191.93 282.71 1187.6 268.425 1183.27 254.14C1179.22 240.779 1175.22 227.399 1170.81 214.157C1166.46 201.117 1161.69 188.196 1156.08 175.642C1154.7 172.548 1153.26 169.48 1151.77 166.431C1150.3 163.422 1148.88 160.295 1146.96 157.535C1145.38 155.254 1143.28 153.182 1140.56 152.389C1138.31 151.733 1135.65 151.891 1133.72 153.307C1131.46 154.959 1131.06 157.771 1131.15 160.387L1131.14 160.4Z" fill="#5D6ACF"/>
<path d="M383.191 491.897C379.521 486.687 378.851 479.647 382.051 473.637C386.581 465.117 397.151 461.887 405.661 466.407C470.031 500.607 520.811 494.837 556.591 449.237C563.881 439.947 568.471 429.027 571.261 417.187C565.481 409.817 559.881 402.297 554.501 394.637C519.371 344.717 492.811 288.977 476.221 229.717C472.791 217.467 470.221 190.307 485.021 175.187C489.671 170.437 499.961 163.097 516.541 167.367C525.331 169.627 531.971 174.557 537.831 179.537C576.821 212.677 604.571 285.107 607.911 333.197L608.061 335.337C609.621 357.707 611.381 382.927 608.361 407.497C620.801 422.397 634.121 436.607 648.281 450.037C669.801 470.467 712.801 503.887 758.951 498.257C792.961 494.107 822.371 468.237 835.711 430.747C849.301 392.547 848.431 346.337 832.911 290.457C813.451 289.047 794.011 282.067 775.491 269.697C755.211 256.147 737.231 237.107 722.251 215.807C696.931 179.827 680.131 137.397 675.141 104.037C671.531 79.8973 681.241 60.8373 699.321 56.6173C714.341 53.1073 726.901 62.3773 731.631 65.8673C781.131 102.407 821.431 157.947 848.181 226.477C851.751 235.637 855.031 244.607 858.001 253.397C896.651 242.707 917.821 195.777 916.001 155.947C913.881 109.727 889.351 65.1873 867.711 25.8873C863.061 17.4373 866.131 6.81732 874.581 2.16732C883.031 -2.48268 893.651 0.597324 898.301 9.03732C921.781 51.6673 948.391 99.9973 950.881 154.347C953.301 207.027 925.101 270.617 868.091 286.837C884.061 347.437 884.181 398.717 868.621 442.457C850.821 492.497 810.421 527.157 763.191 532.927C738.401 535.947 712.631 531.307 686.591 519.127C665.321 509.177 644.341 494.457 624.241 475.377C615.021 466.627 606.141 457.577 597.591 448.237C594.081 456.127 589.641 463.687 584.071 470.787C537.661 529.937 468.481 539.327 389.281 497.247C386.781 495.917 384.731 494.057 383.201 491.887L383.191 491.897ZM509.261 201.787C508.211 206.187 508.191 214.407 509.841 220.307C524.011 270.927 545.971 318.807 574.711 362.307C574.351 354.037 573.771 345.797 573.211 337.777L573.061 335.627C570.251 295.267 545.801 232.157 515.201 206.157C513.961 205.097 511.381 202.907 509.261 201.787ZM709.401 92.9173C709.301 94.5873 709.341 96.6373 709.681 98.8873C716.611 145.227 750.381 210.927 794.901 240.677C803.551 246.457 812.221 250.587 820.871 253.067C819.211 248.497 817.471 243.877 815.641 239.197C791.301 176.817 755.081 126.607 710.891 93.9873C710.351 93.5873 709.861 93.2373 709.411 92.9273L709.401 92.9173Z" fill="#1B3595"/>
<path d="M26.7748 83.2764L57.7544 91.9477C61.4845 92.9923 63.612 96.8834 62.4622 100.559C58.8251 112.181 51.5389 135.352 49.5422 140.898C46.5317 149.255 50.5182 155.326 53.8024 156.251C58.4378 157.557 63.6481 156.637 70.5126 145.625C77.0982 135.061 87.5413 118.654 109.904 113.103C129.393 108.265 152.236 117.334 161.136 134.612C167.185 146.354 166.529 171.443 166.521 181.984C166.509 196.101 181.002 195.432 184.835 184.711C188.77 173.703 196.495 150.744 200.167 139.785C201.313 136.366 204.931 134.419 208.441 135.33L236.854 142.707C240.607 143.681 242.81 147.54 241.722 151.238C237.837 164.457 229.337 193.299 226.301 202.905C220.158 222.345 203.212 239.951 177.924 240.97C149.447 242.117 134.992 222.098 130.794 212.65C126.597 203.203 124.757 192.586 124.003 178.033C123.279 164.035 112.88 164.782 108.772 171.923C103.757 180.639 99.6385 187.187 85.4757 198.428C69.9015 210.787 40.6277 211.057 23.3528 198.007C6.07804 184.959 -4.48721 164.546 1.86089 137.118C6.65467 116.404 14.5863 96.5193 18.5677 87.1898C19.9206 84.0184 23.4372 82.3412 26.7765 83.2747L26.7748 83.2764Z" fill="#FFBDE8"/>
<mask id="mask0_6857_99600" style="mask-type:alpha" maskUnits="userSpaceOnUse" x="0" y="83" width="242" height="159">
<path d="M26.7748 83.2764L57.7544 91.9477C61.4845 92.9923 63.612 96.8834 62.4622 100.559C58.8251 112.181 51.5389 135.352 49.5422 140.898C46.5317 149.255 50.5182 155.326 53.8024 156.251C58.4378 157.557 63.6481 156.637 70.5126 145.625C77.0982 135.061 87.5413 118.654 109.904 113.103C129.393 108.265 152.236 117.334 161.136 134.612C167.185 146.354 166.529 171.443 166.521 181.984C166.509 196.101 181.002 195.432 184.835 184.711C188.77 173.703 196.495 150.744 200.167 139.785C201.313 136.366 204.931 134.419 208.441 135.33L236.854 142.707C240.607 143.681 242.81 147.54 241.722 151.238C237.837 164.457 229.337 193.299 226.301 202.905C220.158 222.345 203.212 239.951 177.924 240.97C149.447 242.117 134.992 222.098 130.794 212.65C126.597 203.203 124.757 192.586 124.003 178.033C123.279 164.035 112.88 164.782 108.772 171.923C103.757 180.639 99.6385 187.187 85.4757 198.428C69.9015 210.787 40.6277 211.057 23.3528 198.007C6.07804 184.959 -4.48721 164.546 1.86089 137.118C6.65467 116.404 14.5863 96.5193 18.5677 87.1898C19.9206 84.0184 23.4372 82.3412 26.7765 83.2747L26.7748 83.2764Z" fill="#FFBDE8"/>
</mask>
<g mask="url(#mask0_6857_99600)">
<g opacity="0.3" filter="url(#filter0_f_6857_99600)">
<circle cx="141" cy="126.018" r="47" fill="white" style="mix-blend-mode:plus-darker"/>
</g>
<g opacity="0.7" filter="url(#filter1_f_6857_99600)">
<circle cx="184" cy="257.018" r="47" fill="#D875B5" style="mix-blend-mode:multiply"/>
</g>
</g>
<path d="M910.626 298.018H798.374C780.494 298.018 766 312.555 766 330.489V343.1C766 361.034 780.494 375.571 798.374 375.571H897.457C905.335 380.778 911.831 388.663 915.736 394.093C916.994 395.84 919.746 394.943 919.746 392.789V374.263C933.185 370.313 943 357.858 943 343.1V330.489C943 312.555 928.506 298.018 910.626 298.018Z" fill="#8BB53E"/>
<path d="M897.972 331.562H810.322C808.089 331.562 806.277 329.745 806.277 327.506C806.277 325.266 808.089 323.449 810.322 323.449H897.969C900.202 323.449 902.014 325.266 902.014 327.506C902.014 329.745 900.202 331.562 897.969 331.562H897.972Z" fill="#1D2129"/>
<path d="M897.972 350.144H882.211C879.978 350.144 878.167 348.327 878.167 346.088C878.167 343.848 879.978 342.031 882.211 342.031H897.972C900.205 342.031 902.016 343.848 902.016 346.088C902.016 348.327 900.205 350.144 897.972 350.144Z" fill="#1D2129"/>
<path d="M862.719 350.144H810.322C808.089 350.144 806.277 348.327 806.277 346.088C806.277 343.848 808.089 342.031 810.322 342.031H862.719C864.952 342.031 866.763 343.848 866.763 346.088C866.763 348.327 864.952 350.144 862.719 350.144Z" fill="#1D2129"/>
<defs>
<filter id="filter0_f_6857_99600" x="44" y="29.0176" width="194" height="194" filterUnits="userSpaceOnUse" color-interpolation-filters="sRGB">
<feFlood flood-opacity="0" result="BackgroundImageFix"/>
<feBlend mode="normal" in="SourceGraphic" in2="BackgroundImageFix" result="shape"/>
<feGaussianBlur stdDeviation="25" result="effect1_foregroundBlur_6857_99600"/>
</filter>
<filter id="filter1_f_6857_99600" x="87" y="160.018" width="194" height="194" filterUnits="userSpaceOnUse" color-interpolation-filters="sRGB">
<feFlood flood-opacity="0" result="BackgroundImageFix"/>
<feBlend mode="normal" in="SourceGraphic" in2="BackgroundImageFix" result="shape"/>
<feGaussianBlur stdDeviation="25" result="effect1_foregroundBlur_6857_99600"/>
</filter>
</defs>
</svg>
